<?xml version="1.0" encoding="UTF-8" standalone="no"?>
<!-- Created with Inkscape (http://www.inkscape.org/) -->

<svg
   width="115.01362mm"
   height="178.62941mm"
   viewBox="0 0 115.01361 178.62942"
   version="1.1"
   id="svg1"
   xml:space="preserve"
   inkscape:version="1.3.2 (1:1.3.2+202311252150+091e20ef0f)"
   sodipodi:docname="avatar.svg"
   inkscape:export-filename="pppic.png"
   inkscape:export-xdpi="5000"
   inkscape:export-ydpi="5000"
   xmlns:inkscape="http://www.inkscape.org/namespaces/inkscape"
   xmlns:sodipodi="http://sodipodi.sourceforge.net/DTD/sodipodi-0.dtd"
   xmlns="http://www.w3.org/2000/svg"
   xmlns:svg="http://www.w3.org/2000/svg"><sodipodi:namedview
     id="namedview1"
     pagecolor="#3f3f3f"
     bordercolor="#000000"
     borderopacity="0.25"
     inkscape:showpageshadow="2"
     inkscape:pageopacity="0.0"
     inkscape:pagecheckerboard="0"
     inkscape:deskcolor="#2f2f2f"
     inkscape:document-units="mm"
     inkscape:zoom="2.8284271"
     inkscape:cx="101.11627"
     inkscape:cy="546.59354"
     inkscape:window-width="1856"
     inkscape:window-height="1016"
     inkscape:window-x="0"
     inkscape:window-y="0"
     inkscape:window-maximized="1"
     inkscape:current-layer="layer1"
     showguides="true"
     inkscape:export-bgcolor="#ffffffff"
     showgrid="false"
     inkscape:lockguides="true" /><defs
     id="defs1"><inkscape:path-effect
       effect="simplify"
       id="path-effect465"
       is_visible="true"
       lpeversion="1"
       steps="1"
       threshold="0.00416667"
       smooth_angles="360"
       helper_size="0"
       simplify_individual_paths="false"
       simplify_just_coalesce="false" /></defs><g
     inkscape:label="Layer 1"
     inkscape:groupmode="layer"
     id="layer1"
     transform="translate(-45.594824,-98.535388)"
     style="display:inline"><g
       id="g4"
       style="display:inline"><path
         style="fill:#a02c2c;stroke:none;stroke-width:0.0914874"
         d="m 113.16021,183.22344 c 0,0 -11.28532,5.62884 -19.428901,5.87682 -8.873717,0.27021 -19.780268,-0.96513 -23.13856,1.12549 -5.742464,3.57481 -6.321966,5.68256 -10.10225,14.20125 -3.104344,6.99549 -5.531894,-9.34035 4.208349,-18.48963 4.269665,-4.01064 8.915215,-7.05878 24.765297,-6.53781 7.86674,0.25856 20.442755,-6.20632 20.784175,-7.83277 0.34145,-1.62644 2.91189,11.65665 2.91189,11.65665 z"
         id="path10"
         sodipodi:nodetypes="cssssssc" /><path
         style="fill:#a02c2c;stroke:none;stroke-width:0.0914874"
         d="m 124.02456,157.35759 c 0,0 -0.12305,-12.56035 3.23127,-19.94822 3.65506,-8.05027 9.5625,-17.256 9.1507,-21.17631 -0.70415,-6.70347 -2.35239,-8.14757 -8.38201,-15.26948 -4.95148,-5.848474 10.86305,-0.84051 14.84324,11.88564 1.74473,5.57854 2.4554,11.07016 -4.97926,25.00842 -3.68998,6.91787 -3.37927,20.9992 -2.06094,22.01902 1.31833,1.01983 -11.803,-2.51907 -11.803,-2.51907 z"
         id="path6"
         sodipodi:nodetypes="cssssssc" /><path
         style="fill:#a02c2c;stroke:none;stroke-width:0.0914874"
         d="m 125.4312,159.40957 c 0,0 0.12305,-12.56034 -3.23127,-19.94822 -3.65506,-8.05026 -9.5625,-17.256 -9.1507,-21.1763 0.70415,-6.70348 2.35239,-8.14758 8.38201,-15.26949 4.95148,-5.848471 -10.86305,-0.84051 -14.84324,11.88564 -1.74473,5.57854 -2.4554,11.07016 4.97926,25.00843 3.68997,6.91786 3.37927,20.99919 2.06094,22.01902 -1.31833,1.01983 11.803,-2.51908 11.803,-2.51908 z"
         id="path24"
         sodipodi:nodetypes="cssssssc" /><path
         style="fill:#a02c2c;stroke:none;stroke-width:0.0914874"
         d="m 104.44463,165.4046 c 0,0 -12.263311,-2.9804 -20.257055,-1.41346 -8.710456,1.70743 -19.064726,5.3339 -22.807268,4.04189 -6.399508,-2.20924 -7.437211,-4.13511 -13.03308,-11.59929 -4.595292,-6.12955 -3.297053,10.33331 8.249869,17.08849 5.061632,2.96118 10.273755,4.90066 25.607082,0.87259 7.610261,-1.99922 21.319252,1.50946 22.016912,3.01906 0.69769,1.50957 0.22354,-12.00928 0.22354,-12.00928 z"
         id="path28"
         sodipodi:nodetypes="cssssssc" /><path
         style="fill:#a02c2c;stroke:none;stroke-width:0.0914874"
         d="m 102.76954,182.88618 c 0,0 11.75785,4.57208 19.88983,4.07365 8.86107,-0.54311 19.60717,-2.77142 23.1445,-0.99705 6.04859,3.03407 6.82048,5.07985 11.37224,13.21643 3.73788,6.68171 4.64498,-9.80706 -5.89976,-18.02608 -4.62233,-3.60283 -9.52998,-6.21287 -25.26469,-4.24342 -7.80949,0.97748 -20.92984,-4.30896 -21.42017,-5.89726 -0.49036,-1.58831 -1.82195,11.87373 -1.82195,11.87373 z"
         id="path25"
         sodipodi:nodetypes="cssssssc" /><path
         style="fill:#a02c2c;stroke:none;stroke-width:0.0914874"
         d="m 123.68636,175.23371 c 0,0 4.03833,-11.90089 9.64942,-17.77871 6.11418,-6.40482 14.73745,-13.16314 15.64529,-16.9999 1.55236,-6.56061 0.47359,-8.46401 -2.86442,-17.16372 -2.74116,-7.14415 10.53586,2.76373 10.08495,16.08431 -0.19766,5.83912 -1.34302,11.25752 -12.97378,21.98457 -5.77259,5.32408 -10.13681,18.72268 -9.22925,20.11741 0.90755,1.39474 -10.31221,-6.24396 -10.31221,-6.24396 z"
         id="path7"
         sodipodi:nodetypes="cssssssc" /><path
         style="fill:#a02c2c;stroke:none;stroke-width:0.0914874"
         d="m 95.662847,171.39164 c 0,0 9.588623,8.1722 12.999943,15.5683 3.71715,8.05922 6.84414,18.58074 10.07978,20.84928 5.5327,3.87908 7.6979,3.58391 17.01093,3.71429 7.64779,0.10708 -6.42875,8.76143 -18.65148,3.39464 -5.35786,-2.35253 -9.97739,-5.42924 -15.69381,-20.21893 -2.837183,-7.34044 -13.699303,-16.37173 -15.328733,-16.04665 -1.62947,0.32503 9.58337,-7.26094 9.58337,-7.26094 z"
         id="path9"
         sodipodi:nodetypes="cssssssc" /><path
         style="fill:#c83737;stroke:none;stroke-width:0.0914874"
         d="m 72.905389,157.33064 c 0,0 -2.351573,3.09932 -3.283046,5.4646 -2.236169,5.67828 -6.381996,-21.5232 -2.186442,-26.04776 3.904678,-4.21087 25.578193,-4.88053 25.669032,0.92412 0.09084,5.80465 -5.164796,5.41096 -5.164796,5.41096 0,0 16.995593,19.3877 11.784609,24.71816 -6.573346,6.72404 -26.819357,-10.47008 -26.819357,-10.47008 z"
         id="path2"
         sodipodi:nodetypes="csszcsc" /><path
         style="fill:#a02c2c;stroke:none;stroke-width:0.0925349"
         d="m 112.3812,165.93219 c 0,0 -10.46582,7.17692 -14.558323,14.19047 -4.45941,7.64238 -8.518489,17.78949 -12.009928,19.72528 -5.970099,3.31011 -8.157375,2.80377 -17.680484,2.01696 -7.820311,-0.64611 5.845946,9.33844 18.771603,5.20835 5.666018,-1.81044 10.637406,-4.4131 17.692312,-18.54656 3.5015,-7.01473 15.33871,-14.91998 16.97632,-14.43665 1.63759,0.48334 -9.1915,-8.15785 -9.1915,-8.15785 z"
         id="path19"
         sodipodi:nodetypes="cssssssc" /><path
         id="path1"
         style="fill:#ececec;stroke:none;stroke-width:0.0974542"
         d="m 84.842394,147.74813 c 3.221951,3.24208 6.07764,9.93611 4.32908,11.47121 -1.748559,1.53509 -9.530817,-1.97917 -12.752762,-5.22123 -3.221951,-3.24207 0.317085,-3.87555 2.065644,-5.41064 1.74856,-1.53509 3.136087,-4.08141 6.358038,-0.83934 z"
         sodipodi:nodetypes="sssss" /><path
         style="fill:#d38d5f;stroke:none;stroke-width:1.06583"
         d="m 94.898061,153.94245 c 0.870789,-2.40478 0.372256,-5.36515 -1.150416,-7.38771 -0.982071,-2.36504 -2.484693,-4.32932 -4.180412,-6.2063 -0.748424,-2.19628 -3.882733,-4.63947 -1.963073,-6.94314 -4.111965,-29.36881 35.52036,-23.35829 30.8747,-2.6926 0.71094,-0.24486 1.52553,-0.44062 1.21396,2.47208 0.30509,2.55317 -0.51907,4.3146 -1.13158,6.77901 -0.69431,2.16703 0.0339,4.72983 -1.59475,6.56222 -1.64797,1.76288 -0.82476,4.31382 -0.60787,6.70673 0.22977,2.24611 1.2138,3.7671 0.8203,6.24889 0.31537,2.26329 0.20411,5.71961 -2.63224,6.22936 -3.31563,0.66412 -6.7084,1.36235 -10.12062,1.02039 -3.50412,0.0137 -7.136732,-0.83837 -10.054536,-2.80385 -1.941852,-1.95456 -4.078901,-3.66205 -6.279773,-5.26916 -0.302993,-0.32723 -0.588553,-0.66982 -0.890745,-0.99776"
         id="path11"
         sodipodi:nodetypes="ccccccccccccccc" /><path
         style="fill:#000000;stroke:none;stroke-width:1.06583"
         d="m 90.138702,128.93164 c 2.338251,-0.87664 3.848067,-1.3979 6.606594,-1.96379 2.09129,-0.31428 5.280894,0.14274 7.342374,0.20131 2.33009,-0.21063 2.72745,-0.32641 4.53033,-1.19988 2.31798,-0.73689 5.73899,-0.005 8.08832,0.2405 0.56205,0.77176 0.09,3.52538 0.11087,5.23668 -0.34512,2.5541 -0.71322,3.50414 -4.69689,3.94527 -4.00488,0.3389 -4.57445,-1.36021 -6.01087,-3.49166 -0.78507,-1.68311 -0.9883,-4.15015 -2.37357,-3.97616 -1.1533,-0.007 -0.69925,1.85921 -1.09495,3.47385 -0.4629,3.49201 -1.66813,4.90739 -4.595926,5.23925 -1.695682,0.26865 -3.865585,0.88492 -5.024859,-0.72533 -1.54494,-2.07086 -2.001283,-4.61274 -2.881423,-6.98004 z"
         id="path13"
         sodipodi:nodetypes="ccccccccccccc" /><path
         style="fill:#502d16;stroke:none;stroke-width:1.06583"
         d="m 90.138702,136.60855 c -0.0311,0.28932 0.153627,0.5832 0.09291,0.8732 -0.0293,0.13997 -0.132367,0.27852 -0.185816,0.41325 -0.195596,0.49304 -0.294754,0.99524 -0.146698,1.51904 0.17343,0.61357 0.814091,0.81592 1.271382,1.15768 0.260589,0.19476 0.457861,0.44588 0.650363,0.70325 0.110554,0.14779 0.415031,1.26287 0.528113,1.23422 0.07237,-0.0183 0.150569,-0.0993 0.205378,-0.14758 0.175434,-0.15461 0.0234,-0.48961 -0.05868,-0.64875 -0.426242,-0.82649 -0.637036,-1.67304 -0.948647,-2.54535 -0.141685,-0.39662 -0.351314,-0.7624 -0.513442,-1.14957 -0.363292,-0.86756 -0.497088,-1.97893 -0.400975,-2.91188 0.07799,-0.75704 0.290553,-1.4965 0.337404,-2.25796 0.02581,-0.4194 -0.12223,-0.84198 -0.09291,-1.26992 0.08807,-1.28527 0.42681,-2.48412 0.74327,-3.72476 0.162984,-0.63896 0.283302,-1.47918 0.69437,-2.01727 0.516961,-0.67671 0.828851,-0.53193 1.457202,-0.88391 0.645604,-0.36164 1.292403,-0.79748 1.863064,-1.26733 0.09212,-0.0758 0.213359,-0.19537 0.327625,-0.23516 0.488199,-0.17003 1.668282,0.32082 2.161346,0.4405 0.510666,0.12394 1.028963,0.19546 1.535447,0.33929 0.647222,0.18379 1.262112,0.46029 1.907072,0.64874 0.52274,0.15274 1.06093,0.25004 1.58923,0.38049 0.57601,0.14223 -1.34225,-1.62188 -1.25671,-1.81194 0.0368,-0.0819 0.87832,0.37245 0.94864,0.41065 1.08301,0.58833 2.16932,1.22138 3.30071,1.71041 1.79377,0.77536 -0.5418,-0.95854 -0.58679,-1.31078 -9.2e-4,-0.007 0.26919,0.0517 0.4352,0.10121 0.4325,0.1291 0.7904,0.30977 1.19314,0.49791 0.2668,0.12462 1.62543,0.75299 1.93642,0.61047 0.0476,-0.0218 -0.42447,-0.56669 -0.22983,-0.56669 0.11476,0 0.23373,0.0499 0.34719,0.0659 0.0792,0.0111 0.13004,0.0161 0.20538,0.0302 0.24955,0.0464 0.51412,0.0792 0.75794,0.14759 0.74395,0.20862 1.4498,0.51268 2.20047,0.70356 0.13505,0.0343 0.34918,0.14778 0.48899,0.13949 0.16679,-0.01 -0.058,-0.49871 0.0147,-0.50895 0.0884,-0.0125 1.70135,0.60033 1.95107,0.67308 0.72225,0.21038 0.36366,-0.37792 0.44988,-0.40223 0.12467,-0.0351 0.39293,0.1561 0.50367,0.20793 0.24522,0.11477 0.82206,0.28982 0.9193,0.59943 0.01,0.031 -0.0464,0.10343 -0.0293,0.13689 0.0792,0.15516 0.12713,0.33484 0.12713,0.53099 0,0.72967 -0.0103,1.43972 0.12225,2.16486 0.042,0.2299 0.006,0.48167 0.0147,0.71427 0.0122,0.34768 0.0645,0.71258 0.11246,1.05648 0.12431,0.89059 0.36843,1.75539 0.52322,2.63845 0.10723,0.61172 0.16733,1.21825 0.23472,1.83367 0.0752,0.68711 0.15339,1.4291 -0.01,2.10453 -0.0268,0.11074 -0.11405,1.31372 0.0391,1.28905 0.0401,-0.006 0.0717,-0.14562 0.0978,-0.18327 0.45967,-0.66472 0.48437,-1.38609 0.65526,-2.15124 0.0154,-0.0691 0.12321,0.21768 0.17114,0.15052 0.1433,-0.20081 0.0497,-1.58019 0.0342,-1.88298 -0.0427,-0.8363 0.0617,-1.60515 -0.0734,-2.43863 -0.0888,-0.54747 -0.76029,-1.98288 -0.69437,-2.36987 0.0239,-0.14049 0.85374,-0.90783 1.00732,-1.42334 0.19981,-0.67063 0.13529,-1.35225 0.16627,-2.04451 0.0145,-0.32378 0.11146,-0.64291 0.13691,-0.96598 0.0337,-0.42784 -0.0634,-0.96526 0.12225,-1.36854 0.0815,-0.17716 0.14211,-0.38242 0.25428,-0.54461 0.0971,-0.14039 0.32273,-0.18105 0.32273,-0.39671 0,-0.77253 -0.39997,-1.75134 -0.60145,-2.4769 -0.13409,-0.48285 -0.17381,-0.97913 -0.35208,-1.45611 -0.17239,-0.46122 -0.55522,-0.81863 -0.78729,-1.24527 -0.14873,-0.27343 -0.19994,-0.59614 -0.35207,-0.86769 -0.3637,-0.6492 -0.68181,-1.38399 -1.15891,-1.96245 -0.18979,-0.23011 -0.35974,-0.48419 -0.5819,-0.6867 -0.3401,-0.30999 -0.727,-0.58027 -1.05134,-0.90596 -0.37996,-0.38155 -0.68359,-0.86396 -1.10024,-1.207 -0.27501,-0.22642 -0.60335,-0.36686 -0.90463,-0.55305 -1.11037,-0.68616 -2.19819,-1.41884 -3.42786,-1.89109 -1.26338,-0.48519 -3.47029,-0.86677 -4.84103,-0.96338 -0.578,-0.0407 -1.19411,0.0313 -1.76527,-0.0549 -0.99209,-0.14957 -1.94494,-0.47453 -2.94862,-0.58549 -0.416825,-0.0461 -0.855109,0.0251 -1.276279,0.008 -0.405651,-0.0163 -0.809229,-0.096 -1.212705,-0.13689 -0.638766,-0.0648 -1.284007,-0.0262 -1.921739,-0.0766 -0.960693,-0.0758 -1.650526,-0.35823 -2.645454,-0.24361 -1.436003,0.16544 -2.847508,0.6351 -3.408286,2.06106 -0.261081,0.66388 -0.234961,1.41021 -0.381414,2.0935 -0.0767,0.35785 -0.298903,0.68591 -0.366745,1.03994 -0.05778,0.30151 -0.104335,0.60256 -0.249388,0.87871 -0.322925,0.61479 -2.080223,1.25192 -2.713915,1.6968 -0.70024,0.4916 -1.027601,1.26119 -1.432751,1.97607 -0.586434,1.03476 -1.304116,2.14488 -1.261602,3.38288 0.0232,0.67527 0.344375,1.26379 0.430313,1.92126 0.03988,0.30508 0.118052,0.61532 0.102689,0.9251 -0.0206,0.41532 -0.097,0.84604 -0.0049,1.25889 0.04744,0.21263 0.193325,0.39371 0.293397,0.5829 0.274731,0.51939 0.582618,1.06632 0.806839,1.60921 0.172065,0.4166 0.199299,0.88934 0.327625,1.31921 0.03837,0.12856 0.168595,0.209 0.224937,0.3286 0.272848,0.57917 0.511371,1.16616 0.81173,1.73798 0.415635,0.79129 0.59893,1.67275 1.056226,2.44122 0.02198,0.037 0.0508,0.1879 0.07824,0.20793 0.231949,0.16925 0.572197,0.24769 0.831289,0.386 0.806773,0.43069 1.638674,1.06261 1.941305,1.94591 0.01665,0.0486 0.113591,0.2541 0.09291,0.30361 -0.05766,0.13801 -0.120619,0.27377 -0.180926,0.41066 z"
         id="path12" /><path
         style="fill:#37c871;stroke:none;stroke-width:1.06583"
         d="m 91.637956,129.64541 c 1.310489,-1.435 3.815679,-1.9749 7.215267,-2.01652 2.813397,0.1502 3.376597,0.6064 3.225507,2.27176 0.0463,1.63412 -0.35697,2.90665 -0.97002,4.4361 -0.74453,1.50631 -2.250479,1.80227 -3.697445,1.98689 -1.021562,-0.006 -2.496099,0.66001 -3.345827,-0.25786 -1.28498,-1.01939 -1.936743,-2.44598 -2.503982,-3.72835 -0.135358,-0.78128 -0.347313,-1.92724 0.0765,-2.69202 z"
         id="path14"
         sodipodi:nodetypes="cccccccc" /><path
         style="fill:#afdde9;stroke:none;stroke-width:1.06583"
         d="m 106.03783,128.37891 c -0.11676,-1.67066 5.22613,-1.79931 7.85548,-1.60501 1.43928,0.12551 2.5622,0.6185 2.41434,2.91295 -0.0521,2.71803 -0.0936,3.52047 -1.53167,4.57166 -1.01086,0.55531 -2.29861,0.58283 -3.3957,0.74731 -1.48858,0.0537 -2.77311,-0.26521 -3.74318,-1.67327 -0.81393,-1.22452 -1.06591,-2.2851 -1.4904,-3.39601 z"
         id="path15"
         sodipodi:nodetypes="sccccccs" /><path
         style="fill:#f9f9f9;stroke:none;stroke-width:1.06583"
         d="m 66.921113,179.6112 c 2.642832,-2.7295 2.087975,-7.12435 4.883824,-9.73019 2.76453,-3.54154 6.426754,-6.17921 10.241598,-8.48988 2.891214,-2.54861 6.054847,-4.73219 9.432108,-6.6437 0.906454,-0.9314 3.762849,-0.78341 1.403532,0.28474 -1.945243,0.88617 -6.679368,2.41124 -2.869675,4.71102 3.329079,1.55203 4.769487,5.4698 8.678918,5.85892 4.015192,0.24105 8.003732,1.13135 12.056082,0.72164 4.14816,0.2884 6.45989,-3.75837 5.78829,-7.31573 -0.0885,-3.54961 -0.90353,-5.87764 -0.36807,-7.71255 5.99922,1.79099 13.094,4.28398 18.90925,6.60224 3.40886,1.41246 3.74451,5.39482 5.39596,8.25586 1.39934,3.61415 1.66044,7.62895 3.27064,11.136 2.14764,3.73022 -3.57472,5.18618 -6.32182,5.42965 -8.79966,1.33031 -11.92525,14.67359 -20.60814,17.54121 -3.35978,1.03479 -11.32449,0.0656 -14.92572,-0.28172 -5.943179,-0.23974 -11.10766,-8.4614 -17.008389,-6.78728 -4.521477,0.96926 -11.728676,-6.67683 -15.973251,-9.47762 -1.279249,-0.867 -2.900671,-2.43025 -1.985468,-4.10257 z"
         id="path16"
         sodipodi:nodetypes="scccccccccccccccccss" /><path
         style="opacity:0.35345;fill:#4d4d4d;stroke:none;stroke-width:1.06583"
         d="m 94.59625,147.99258 c 1.866881,0.90778 4.767428,2.4157 6.8486,2.73788 2.5939,0.31198 5.17252,0.3525 7.72387,-0.1967 1.96432,-0.5836 3.99083,-1.06431 5.40384,-1.97776 -1.50614,2.02181 -5.42013,2.87376 -6.00681,3.68379 -0.52873,1.31788 0.85912,2.41588 0.95129,3.71893 0.26564,0.88212 -3.05587,1.24948 -2.77191,2.12596 0.28907,0.89228 3.80666,-0.31866 4.01661,0.59464 0.16784,0.52252 -0.75412,1.55058 -2.39682,3.01488 -0.46899,0.41806 3.24493,0.0158 2.7566,0.60636 -1.06583,0.97223 -3.84528,0.20104 -4.48129,-0.89247 -0.53501,-0.73848 3.58949,-1.1622 2.917,-1.80013 -0.72934,-0.69185 -3.89701,0.43003 -4.87277,-0.31509 -0.88515,-0.67013 -2.62996,-1.46221 -3.40934,-0.46583 -1.12979,1.52248 -1.671696,3.48784 -3.175106,4.73821 -1.09053,1.01863 -2.867031,1.03035 -4.003802,0.0784 -1.357525,-1.02894 -2.257879,-2.60908 -3.88345,-3.28964 -1.297987,-0.54784 -2.0717,-2.44422 -1.139401,-3.44041 0.845395,-0.88508 2.280077,-1.19404 3.289044,-1.85781 1.322319,-0.71961 2.697858,-0.54849 2.769838,-1.87423 0.06542,-1.19809 0.06562,-3.3951 -0.535993,-5.18898 z"
         id="path17"
         sodipodi:nodetypes="ccccccscsccsccccccccc" /><path
         style="opacity:0.455878;fill:#333333;stroke:none;stroke-width:1.06583"
         d="m 100.97998,134.99087 c 0.82517,0.3043 1.16571,0.68648 1.30701,1.47849 0.002,0.0128 0.0396,0.26331 0.0553,0.26331 0.14303,0 -0.0207,-1.40027 -0.0207,-1.53675 0,-1.13432 0.13057,-2.24211 0.34577,-3.35561 0.0708,-0.36635 0.135,-0.74122 0.2213,-1.10325 0.0532,-0.22329 0.0998,-0.46358 0.19362,-0.67342 0.11651,-0.26054 0.22489,-0.53405 0.32503,-0.80141 0.65496,-1.74872 1.8316,1.89322 2.55178,2.00925 0.29857,0.0481 0.3801,-1.87015 0.27662,-2.16017 -0.36335,-1.01837 -2.62831,-1.96652 -3.40237,-1.00233 -0.7423,0.92462 -0.70084,2.31753 -0.91976,3.41755 -0.23759,1.19388 -0.88646,2.23395 -0.93358,3.46434 z"
         id="path22" /><path
         style="opacity:0.464077;fill:#4d4d4d;stroke:none;stroke-width:1.06583"
         d="m 99.169066,136.48083 c 0.03458,0.67317 0.07759,1.38556 -0.252412,2.00098 -0.266288,0.49656 -0.601657,0.94162 -0.850593,1.44363 -0.02137,0.043 -0.109975,0.15424 -0.07613,0.21102 9.18e-4,0.002 0.169868,-0.11069 0.331948,-0.16836 0.20173,-0.0717 0.428856,-0.063 0.632759,-0.13739 0.257731,-0.094 0.467459,-0.28483 0.712286,-0.40459 0.743036,-0.36351 1.521206,-0.45008 2.337406,-0.35025 0.39873,0.0487 0.87667,0.25065 1.28281,0.17432 0.26863,-0.0505 0.40173,-0.33485 0.63967,-0.4491 0.49567,-0.23799 1.07312,-0.3361 1.6113,-0.42386 0.5605,-0.0914 1.01816,-0.33799 1.53521,-0.54176 0.28904,-0.11392 0.59983,-0.15597 0.89556,-0.24979 0.18574,-0.059 0.35525,-0.16005 0.5394,-0.22248 0.17929,-0.0608 0.7069,-0.26114 0.45641,-0.54176 -0.27632,-0.30957 -0.83954,0.20006 -1.13412,0.29405 -0.70398,0.22458 -0.80601,0.0468 -1.45915,0.54198 -0.18512,0.14035 -0.33517,0.2995 -0.54977,0.40254 -0.23958,0.11503 -0.49413,0.19507 -0.73303,0.31331 -0.39106,0.19355 -0.75279,0.52839 -1.22058,0.26722 -0.42629,-0.23801 -0.2972,-0.79567 -1.04768,-0.95027 -0.765,-0.15757 -2.21441,0.53235 -2.79383,0.20713 -0.386837,-0.21714 -0.445306,-0.53894 -0.54978,-0.93674 -0.01587,-0.0605 -0.01899,-0.15895 -0.06227,-0.20895 -0.0797,-0.0922 -0.163667,-0.18059 -0.245497,-0.27088 z"
         id="path18" /><path
         style="opacity:0.256008;fill:#aa4400;stroke:none;stroke-width:1.06583"
         d="m 100.10264,141.40416 c 1.62394,-1.28749 3.70446,-1.96726 5.77543,-1.96071 1.1145,-0.48441 2.44047,-0.49648 3.54564,0.0214 1.00545,0.29835 2.08127,0.33923 3.11214,0.15552 -0.71918,1.09327 -1.47946,2.22389 -2.61104,2.93504 -1.74657,0.16756 -3.4402,0.71563 -5.19652,0.7924 -1.46149,0.0166 -2.93332,-0.35426 -4.18836,-1.10544 -0.35541,-0.1671 -1.15855,-0.14187 -1.160632,-0.5712 0.199482,-0.18311 0.500183,-0.13135 0.723342,-0.26705 z"
         id="path21" /><path
         style="opacity:0.455878;fill:#4d4d4d;stroke:none;stroke-width:1.06583"
         d="m 97.541584,141.22571 c -0.427654,1.20822 0.107519,1.35118 0.55467,1.68057 0.259822,0.32525 0.251632,0.40475 0.200546,0.45276 -0.09515,0.0894 -0.687062,-0.21983 -0.809099,-0.25964 -1.674842,-0.54624 -1.005942,-3.71146 -0.06227,-3.22029 0.252586,0.13146 0.329673,0.51186 0.56706,0.68902 0.566989,0.42312 0.993441,1.06766 1.680908,1.09045 1.047221,0.0348 3.334001,-0.26094 4.328591,-0.56383 0.35718,-0.10878 0.87551,-0.26896 1.25037,-0.30781 1.66513,-0.17259 3.05815,0.17873 4.74789,-0.39416 0.61499,-0.20852 1.23462,-0.0837 1.80573,-0.38207 0.32338,-0.16893 0.63276,-0.34418 0.97553,-0.453 0.18506,-0.0588 0.39853,-0.84887 0.28959,-1.04482 -0.4702,-0.8457 -1.95015,-0.81052 -2.40265,-1.40084 -0.11112,-0.14498 -0.31341,-0.88321 -0.0139,-0.86334 0.23644,0.0157 0.89815,0.36691 1.13412,0.47984 1.28693,0.61586 1.49407,1.11693 1.93079,2.5268 0.13548,0.43737 0.78697,0.83654 0.78697,1.29764 0,0.22991 -0.14021,0.86069 -0.49099,0.64222 -0.23682,-0.14749 -0.46991,-0.41502 -0.57398,-0.67342 -0.039,-0.0967 -0.15313,-0.7196 -0.24204,-0.75094 -0.22397,-0.0789 -0.55026,0.005 -0.68169,0.14089 -0.52236,0.53955 -1.61436,0.7821 -2.2712,0.9041 -1.60074,0.29731 -2.87931,0.0278 -4.51635,0.10809 -0.69975,0.0343 -1.51212,0.49526 -2.19161,0.66992 -0.76199,0.19587 -1.81715,0.35052 -2.60382,0.4027 -0.73138,0.0485 -1.328528,0.13955 -1.981088,-0.20132 -0.135327,-0.0707 -0.457186,-0.48727 -1.038747,-0.59847"
         id="path23"
         sodipodi:nodetypes="ccscsscsssssssssssssssssscsc" /><path
         style="fill:#1a1a1a;stroke:none;stroke-width:1.06583"
         d="m 95.540776,132.67035 c -0.703548,-0.15479 -1.509324,-0.15075 -1.755486,-0.95236 -0.07583,-0.24694 -0.0597,-0.55921 0.05379,-0.79373 0.384943,-0.79553 1.462528,-0.0763 2.048883,-0.16706 0.387544,-0.06 0.13161,-0.8863 0.689482,-1.1113 0.149442,-0.0602 0.320071,-0.0917 0.479208,-0.049 0.878906,0.23574 0.254888,1.4738 0.79217,1.40648 0.597125,-0.0748 0.678367,-0.88379 1.222482,-1.08632 0.649258,-0.24166 1.222335,0.52343 1.193145,1.09475 -0.0211,0.41371 -1.188679,0.99286 -1.491433,1.46681 -0.182341,0.28546 0.512711,0.79369 0.0587,1.36593 -0.05604,0.0705 -0.134658,0.17326 -0.229822,0.1943 -0.556369,0.12303 -1.093585,-0.68367 -1.413197,-0.53651 -0.567979,0.26152 -0.355436,0.96845 -0.767719,1.31923 -0.489415,0.4164 -1.50814,-0.3581 -1.447415,-0.93614 0.03251,-0.30953 0.524284,-0.7317 0.533003,-0.80736 0.01563,-0.1355 0.02281,-0.27183 0.03423,-0.40774 z"
         id="path26" /><path
         style="fill:#1a1a1a;stroke:none;stroke-width:1.06583"
         d="m 109.7656,131.28528 c -0.29177,-0.45337 -0.70759,-0.84826 -0.87531,-1.36009 -0.19935,-0.60842 0.57498,-1.18858 1.10024,-1.1658 0.62398,0.0271 0.68777,1.22454 1.33984,1.1246 0.17173,-0.0263 0.41594,-0.99531 0.77262,-1.26148 0.41459,-0.3094 1.62459,-0.5044 1.73103,0.25463 0.11288,0.8049 -1.31476,1.0215 -1.09535,1.6037 0.0742,0.19677 1.35412,0.23588 1.66259,1.06458 0.0808,0.21707 0.0595,0.47966 -0.0831,0.67048 -0.11057,0.14793 -0.29322,0.25822 -0.45965,0.33118 -0.83631,0.36663 -1.20693,-1.29856 -1.92175,-0.64031 -0.56532,0.5206 0.0302,1.73 -0.84106,2.07436 -0.70238,0.27761 -1.96716,-0.39049 -2.04888,-1.16838 -0.0639,-0.60849 0.36793,-1.0935 0.71881,-1.52747 z"
         id="path27" /><path
         style="fill:#b3b3b3;stroke:none;stroke-width:0.889175"
         d="m 77.305137,167.32992 c 5.699983,3.85055 8.73611,7.14021 9.248979,13.93089 0.393329,4.68639 5.287235,13.16006 4.868789,8.61192 -1.082408,-6.26948 0.626833,-7.55591 6.040097,-3.45883 1.071829,2.25753 5.549918,3.53071 4.278928,-0.32105 -1.27735,-5.48706 -13.99924,-3.13722 -9.081533,-10.85445 4.730057,-5.31066 0.999091,-12.09002 -5.41207,-13.09986 -3.384919,-0.58309 -8.266033,1.78558 -9.94319,5.19137 z"
         id="path4"
         sodipodi:nodetypes="cccccccsc" /><path
         style="fill:#f2f2f2;stroke:none;stroke-width:1.06583"
         d="m 80.856552,166.45655 c 2.25626,-1.23059 4.769284,-3.16423 7.442484,-1.97024 0.32473,0.14505 0.682096,0.3927 0.909527,0.66237 0.254101,0.3013 0.634219,0.59292 0.919307,0.89722 0.805967,0.86027 0.863418,2.15749 1.144246,3.23528 0.500189,1.9197 0.514957,3.94853 -0.469434,5.75826 -0.356991,0.65629 -1.117529,2.36224 -2.102673,2.23881 -0.857781,-0.10748 -2.390282,-3.08603 -2.885062,-3.85354 -0.603446,-0.93607 -1.467642,-1.66606 -2.132012,-2.55086 -1.048485,-1.39636 -1.861039,-2.96582 -2.826383,-4.4173 z"
         id="path8" /><path
         style="fill:#1a1a1a;stroke:none;stroke-width:1.06583"
         d="m 82.244063,153.8207 c -0.703549,-0.15479 -1.509324,-0.15074 -1.755487,-0.95236 -0.07583,-0.24694 -0.0597,-0.55921 0.05379,-0.79373 0.384943,-0.79553 1.462528,-0.0763 2.048883,-0.16706 0.387546,-0.06 0.131609,-0.8863 0.689483,-1.1113 0.149442,-0.0602 0.32007,-0.0917 0.479207,-0.049 0.878906,0.23574 0.254888,1.4738 0.79217,1.40648 0.597127,-0.0748 0.678369,-0.88379 1.222484,-1.08632 0.649258,-0.24166 1.222337,0.52343 1.193144,1.09475 -0.02109,0.41371 -1.188677,0.99286 -1.491432,1.46681 -0.182341,0.28546 0.512711,0.79369 0.0587,1.36593 -0.05604,0.0705 -0.134657,0.17326 -0.229822,0.1943 -0.556368,0.12303 -1.093586,-0.68366 -1.413198,-0.53651 -0.56798,0.26152 -0.355437,0.96845 -0.767719,1.31923 -0.489416,0.4164 -1.508141,-0.3581 -1.447417,-0.93614 0.03251,-0.30953 0.524284,-0.7317 0.533004,-0.80736 0.01563,-0.1355 0.02281,-0.27183 0.03423,-0.40774 z"
         id="path20" /></g><path
       style="font-size:13.5787px;font-family:Laksaman;-inkscape-font-specification:'Laksaman, Normal';fill:#f9f9f9;stroke-width:1.39546;stroke-linecap:round;stroke-linejoin:round"
       d="m 92.770641,237.05337 q 0,1.28935 -0.811257,2.35688 -0.811258,1.05366 -1.888502,1.12297 l -0.625068,0.0416 -0.199489,-0.92888 q -0.797958,1.05366 -2.114589,1.05366 -0.78466,0 -1.35653,-0.47138 -0.558571,-0.48524 -0.558571,-1.23389 0,-2.38461 3.976493,-2.38461 0,-1.76072 -1.595917,-1.76072 -0.877754,0 -1.502822,0.4991 l -0.226088,-0.58229 q 0.784659,-0.61001 1.768808,-0.61001 2.274181,0 2.274181,2.64802 v 2.23209 q 0,0.47138 0.07979,0.85957 0.837856,-0.0416 1.449624,-0.90115 0.611769,-0.85957 0.611769,-1.87164 0,-1.77459 -1.050646,-2.88371 -1.050645,-1.12297 -2.766255,-1.12297 -1.954998,0 -3.218433,1.38639 -1.263434,1.37253 -1.263434,3.45212 0,1.74687 1.103843,2.93917 1.117142,1.20617 2.752956,1.20617 1.383129,0 2.340678,-0.62389 l 0.279286,0.61002 q -1.276734,0.70706 -2.673161,0.70706 -1.9151,0 -3.218433,-1.3864 -1.303331,-1.37253 -1.303331,-3.39667 0,-2.3846 1.502821,-3.97896 1.516121,-1.60822 3.790303,-1.60822 1.941699,0 3.191834,1.31708 1.250134,1.30322 1.250134,3.31349 z m -3.577513,1.37253 v -1.12297 q -3.25833,0.0416 -3.25833,1.55276 0,1.1507 1.223536,1.1507 1.436325,0 1.994896,-1.30321 0.0399,-0.0832 0.0399,-0.27728 z"
       id="path34" /><path
       id="path35"
       style="font-size:13.5787px;font-family:Laksaman;-inkscape-font-specification:'Laksaman, Normal';fill:#b3b3b3;stroke-width:1.39546;stroke-linecap:round;stroke-linejoin:round"
       d="m 98.064226,187.2628 c 0,0 13.908434,15.18124 9.266174,32.47867 -0.34538,1.28697 -0.46196,2.26403 -0.35915,3.02928 0.10282,0.76526 0.4684,1.33855 1.01545,1.63297 1.09408,0.58882 2.62409,0.21943 4.38112,-0.28732 1.75704,-0.50676 3.75007,-1.21917 5.63687,-1.60352 1.8868,-0.38434 3.62994,-0.42124 4.93112,0.29969 3.14245,2.90583 2.24534,8.23611 2.24534,12.17496 -0.58517,-0.9982 -1.44076,-1.49706 -2.56677,-1.49706 -0.93095,0 -1.67592,0.34182 -2.23449,1.02578 -0.54971,0.68395 -0.82476,1.54347 -0.82476,2.57865 0,1.11835 0.27962,2.03808 0.8382,2.759 0.56744,0.71169 1.34741,1.06764 2.34042,1.06764 1.05508,0 1.89749,-0.48053 2.52698,-1.44177 0,0.47138 0.0132,0.88701 0.0398,1.24747 h 0.73174 c -0.0355,-0.3235 -0.0532,-0.90088 -0.0532,-1.73272 -0.38728,-4.94269 1.67446,-13.35003 -2.66082,-16.87338 -1.5701,-0.86992 -3.51809,-0.77779 -5.48442,-0.37724 -1.96632,0.40055 -3.96549,1.11691 -5.68507,1.61286 -1.71959,0.49595 -3.13916,0.69791 -3.78685,0.34933 -0.32385,-0.17429 -0.52597,-0.44766 -0.60565,-1.04076 -0.0797,-0.59309 0.008,-1.48794 0.33796,-2.7187 4.76063,-17.73846 -6.16163,-34.38633 -7.05044,-35.28912 z m 61.056454,42.92812 v 4.7966 c -0.58518,-0.9982 -1.44077,-1.49706 -2.56677,-1.49706 -0.93095,0 -1.6754,0.34182 -2.23397,1.02578 -0.5497,0.68395 -0.82476,1.54347 -0.82476,2.57865 0,1.11835 0.27911,2.03808 0.83768,2.759 0.56744,0.71169 1.34793,1.06764 2.34094,1.06764 1.05508,0 1.89748,-0.48053 2.52698,-1.44177 0,0.47138 0.0132,0.88701 0.0398,1.24747 h 0.73122 c -0.0355,-0.3235 -0.0532,-0.90088 -0.0532,-1.73272 v -8.80359 z m -62.014305,0.44338 c -0.833423,0 -1.534244,0.23137 -2.101681,0.6935 -0.567436,0.45289 -0.85111,1.06744 -0.85111,1.84381 0,1.26625 0.887063,2.19958 2.660302,2.80035 0.691564,0.22183 1.210198,0.49455 1.555978,0.81804 0.345781,0.31425 0.518314,0.78537 0.518314,1.41387 0,0.64698 -0.217201,1.14636 -0.651639,1.49758 -0.434447,0.35122 -1.001793,0.52658 -1.702222,0.52658 -0.930951,0 -1.724635,-0.25859 -2.380733,-0.77618 l -0.318844,0.70693 c 0.70043,0.50835 1.573785,0.76275 2.619995,0.76275 0.922085,0 1.688864,-0.24969 2.300635,-0.74879 0.620628,-0.49911 0.930692,-1.17856 0.930692,-2.03812 0,-0.4344 -0.06191,-0.81338 -0.186035,-1.13688 -0.124125,-0.32349 -0.32356,-0.59621 -0.598413,-0.81804 -0.274852,-0.22183 -0.549903,-0.39719 -0.824756,-0.52658 -0.265984,-0.13864 -0.620191,-0.29097 -1.063501,-0.45734 -1.37426,-0.49911 -2.061889,-1.2063 -2.061889,-2.12132 0,-0.55455 0.199951,-0.98431 0.59893,-1.28932 0.407845,-0.305 0.921908,-0.45734 1.542541,-0.45734 0.664965,0 1.285597,0.16175 1.861902,0.48524 0.03546,-0.0739 0.09332,-0.18962 0.173116,-0.34675 0.08863,-0.1664 0.141403,-0.26796 0.159163,-0.30489 -0.567432,-0.35122 -1.294123,-0.5271 -2.180745,-0.5271 z m 35.681545,0.1664 -0.66456,9.92653 h 0.74466 l 0.59841,-8.76174 3.0856,8.76174 h 0.51831 l 3.07217,-8.76174 0.59841,8.76174 h 0.74518 l -0.66508,-9.92653 h -0.91777 l -3.09852,8.90075 -3.09904,-8.90075 z m -15.25385,0.0279 c -0.18619,0 -0.33691,0.0644 -0.45217,0.19379 -0.1064,0.12016 -0.15968,0.2772 -0.15968,0.47129 0,0.19409 0.0533,0.35165 0.15968,0.47181 0.11526,0.1109 0.26598,0.16588 0.45217,0.16588 0.18619,0 0.33691,-0.055 0.45217,-0.16588 0.12412,-0.12016 0.18603,-0.27772 0.18603,-0.47181 0,-0.19409 -0.0619,-0.35113 -0.18603,-0.47129 -0.11526,-0.12939 -0.26598,-0.19379 -0.45217,-0.19379 z m 26.14621,0 c -0.18619,0 -0.33691,0.0644 -0.45217,0.19379 -0.1064,0.12016 -0.15968,0.2772 -0.15968,0.47129 0,0.19409 0.0533,0.35165 0.15968,0.47181 0.11526,0.1109 0.26598,0.16588 0.45217,0.16588 0.18619,0 0.3369,-0.055 0.45217,-0.16588 0.12411,-0.12016 0.18603,-0.27772 0.18603,-0.47181 0,-0.19409 -0.0619,-0.35113 -0.18603,-0.47129 -0.11527,-0.12939 -0.26598,-0.19379 -0.45217,-0.19379 z m -39.19296,2.66186 c -0.99301,0 -1.77299,0.35595 -2.34043,1.06763 -0.55856,0.71168 -0.83819,1.62669 -0.83819,2.74506 0,1.04441 0.27505,1.90813 0.82476,2.59209 0.55856,0.68395 1.30301,1.02629 2.23397,1.02629 1.11713,0 1.97272,-0.50409 2.56677,-1.51154 v 4.79713 h 0.7984 v -8.8036 c 0,-0.86881 0.0172,-1.45561 0.0527,-1.76062 h -0.73122 c -0.0266,0.36046 -0.0398,0.79022 -0.0398,1.28933 -0.6295,-0.96124 -1.4719,-1.44177 -2.52698,-1.44177 z m 44.75231,0 c -1.01075,0 -1.77348,0.47111 -2.28772,1.41387 -0.0177,-0.55456 -0.071,-0.97491 -0.15968,-1.26143 h -0.74466 c 0.0887,0.74865 0.13281,1.33074 0.13281,1.74667 v 5.33766 h 0.79789 v -4.29793 c 0,-0.55456 0.21719,-1.06755 0.65164,-1.53893 0.43444,-0.47137 0.91807,-0.70693 1.45004,-0.70693 1.34766,0 2.02106,0.8412 2.02106,2.52336 v 4.02043 h 0.7984 v -4.02043 c 0,-2.14429 -0.88654,-3.21634 -2.65978,-3.21634 z m -39.85804,0.15244 v 3.97909 c 0,2.19974 0.81551,3.29954 2.44688,3.29954 1.10828,0 1.9593,-0.47635 2.55334,-1.42834 0.0532,0.4529 0.15976,0.91511 0.31936,1.38648 l 0.74465,-0.18035 c -0.23052,-0.63775 -0.34571,-1.20571 -0.34571,-1.70481 v -5.35161 h -0.79789 v 4.28398 c 0,0.63775 -0.22633,1.1832 -0.67851,1.63608 -0.45218,0.44365 -0.99262,0.66507 -1.62212,0.66507 -1.21467,0 -1.82211,-0.91972 -1.82211,-2.759 v -3.82613 z m 7.77989,0 v 7.08433 h 0.79789 v -7.08433 z m 26.14621,0 v 7.08433 h 0.7984 v -7.08433 z m -38.72735,0.54054 c 0.65609,0 1.21026,0.22194 1.66243,0.66559 0.46104,0.44364 0.69143,0.99799 0.69143,1.66347 v 1.19269 c 0,0.70244 -0.23901,1.29814 -0.71779,1.788 -0.4699,0.48986 -1.04182,0.73484 -1.71565,0.73484 -0.76249,0 -1.35218,-0.26801 -1.76889,-0.80408 -0.41671,-0.54532 -0.62528,-1.25671 -0.62528,-2.13476 0,-0.96124 0.204,-1.71921 0.61185,-2.27376 0.40784,-0.55456 1.02847,-0.83199 1.8619,-0.83199 z m 18.18028,0 c 0.6827,0 1.25462,0.24498 1.71566,0.73484 0.46991,0.48061 0.70487,1.07683 0.70487,1.78852 v 1.17822 c 0,0.66547 -0.22634,1.22454 -0.67851,1.67742 -0.45218,0.44365 -1.00634,0.66559 -1.66244,0.66559 -1.65797,0 -2.48667,-1.03488 -2.48667,-3.10524 0,-0.86881 0.20806,-1.576 0.62477,-2.12131 0.41672,-0.54532 1.01096,-0.81804 1.78232,-0.81804 z m 33.93953,0 c 0.6827,0 1.25462,0.24498 1.71566,0.73484 0.46991,0.48061 0.70487,1.07683 0.70487,1.78852 v 1.17822 c 0,0.66547 -0.22582,1.22454 -0.678,1.67742 -0.45217,0.44365 -1.00632,0.66559 -1.66243,0.66559 -1.65797,0 -2.48718,-1.03488 -2.48718,-3.10524 0,-0.86881 0.20857,-1.576 0.62528,-2.12131 0.41671,-0.54532 1.01045,-0.81804 1.7818,-0.81804 z m -29.28503,2.41225 v 0.6935 h 3.49798 v -0.6935 z"
       sodipodi:nodetypes="csssssscscscscccsssssscccsscscscccsccscsccsssccscsssccscscccscsccccccccccccssscscscsssscscscsscscscccscccsscscsccssssccsscsccccsccscssccccccccccccsccscscssssccscsssssccscssssccccccc" /><path
       id="path53"
       style="color:#000000;fill:#f9f9f9;stroke-linecap:round;stroke-linejoin:round;-inkscape-stroke:none"
       d="m 66.920462,179.61567 c -3.615718,3.98461 -5.55594,11.56348 -6.326587,20.54814 -0.770647,8.98466 -0.325391,19.4897 1.124996,29.46487 1.450386,9.97516 3.898218,19.41291 7.193359,26.28728 1.647572,3.43718 3.504933,6.2394 5.609477,8.14834 10.374668,8.48602 12.516489,-5.15216 12.692249,-13.26379 l 3.764111,10.31048 h 1.049548 l 3.764112,-10.31048 0.649572,10.31048 h 1.532207 l -0.849044,-13.30151 h -1.666048 l -3.947046,11.07219 -3.964099,-11.07219 h -1.648995 c 0.278529,6.48282 -0.402538,23.63903 -10.355441,15.12828 -1.882457,-1.7075 -3.664152,-4.35597 -5.25756,-7.68016 -3.186817,-6.64837 -5.625711,-15.97928 -7.060551,-25.84751 -1.434839,-9.86824 -1.872899,-20.28105 -1.115177,-29.11502 0.757721,-8.83396 4.160997,-14.95857 7.304106,-18.42237 0.679609,-0.7486 -1.837484,-2.97827 -2.493189,-2.25703 z m 68.212528,67.4135 v 14.08182 h 1.58234 v -5.5547 c 0,-0.69356 0.27782,-1.31282 0.83302,-1.85776 0.5552,-0.55733 1.16026,-0.83613 1.81539,-0.83613 0.69956,0 1.25469,0.2788 1.66554,0.83613 0.41085,0.54494 0.6165,1.23831 0.6165,2.08049 v 5.33197 h 1.58233 v -5.36918 c 0,-1.3252 -0.3218,-2.38391 -0.96583,-3.17655 -0.63294,-0.80503 -1.52176,-1.20768 -2.66548,-1.20768 -1.15481,0 -2.1153,0.42753 -2.88147,1.2821 v -5.61051 z m 21.0535,0 v 9.19582 c 0,3.25727 1.24373,4.96011 3.73104,5.10873 l 0.18293,-1.59732 c -0.89942,-0.0619 -1.51534,-0.39669 -1.84846,-1.00356 -0.32202,-0.61925 -0.48318,-1.58519 -0.48318,-2.89801 v -8.80566 z m -36.90989,0.63148 c -0.92164,0 -1.99878,0.12386 -3.23133,0.37156 v 13.07878 h 1.58233 v -5.77742 h 1.99885 c 1.62119,0 2.65927,1.92568 3.11454,5.77742 h 1.58233 c -0.24429,-1.83298 -0.51616,-3.22024 -0.81597,-4.1615 -0.29981,-0.94127 -0.8164,-1.68438 -1.54926,-2.22932 1.31027,-0.68118 1.96577,-1.78342 1.96577,-3.30678 0,-1.22612 -0.44442,-2.15475 -1.33274,-2.78639 -0.87721,-0.64402 -1.98204,-0.96635 -3.31452,-0.96635 z m 0,1.54203 c 2.07645,0 3.11505,0.77421 3.11505,2.32234 0,1.56052 -0.94418,2.34042 -2.83187,2.34042 h -1.93218 v -4.56975 c 0.47747,-0.0619 1.02717,-0.093 1.649,-0.093 z m -15.60628,2.1363 c -0.44417,0 -0.91083,0.15495 -1.3994,0.46457 -0.47748,0.30963 -0.79384,0.64388 -0.9493,1.00304 0,-0.54494 -0.0944,-0.9906 -0.28319,-1.33738 h -1.399393 c 0.199872,0.75549 0.30024,1.87638 0.30024,3.36258 v 6.2792 h 1.582333 v -5.05292 c 0,-2.13022 0.7939,-3.19567 2.38177,-3.19567 0.24429,0 0.43312,0.0186 0.56637,0.0558 v -1.50482 c -0.17766,-0.0496 -0.44411,-0.0744 -0.79943,-0.0744 z m 25.38346,0 c -1.02157,0 -2.09872,0.18604 -3.23133,0.55759 l 0.1664,1.57923 c 1.06598,-0.45825 2.0601,-0.68781 2.98173,-0.68781 1.21034,0 1.89895,0.7001 2.06551,2.09961 -3.79758,0.0619 -5.69681,1.26936 -5.69681,3.62252 0,0.86695 0.28869,1.56032 0.86609,2.08049 0.57742,0.52017 1.2937,0.78032 2.14871,0.78032 1.05488,0 2.01536,-0.41457 2.88148,-1.24437 l 0.25011,1.24437 1.46555,-0.35295 c -0.23319,-0.92889 -0.34985,-1.74611 -0.34985,-2.45205 v -3.15846 c 0,-2.71233 -1.18244,-4.06849 -3.54759,-4.06849 z m 16.67288,0.27905 v 5.18315 c 0,3.04672 1.177,4.56975 3.53105,4.56975 0.97716,0 1.97075,-0.55087 2.98122,-1.65313 0.13325,0.63163 0.28302,1.17006 0.44958,1.61592 l 1.53272,-0.33435 c -0.34422,-0.96603 -0.51676,-1.77703 -0.51676,-2.43344 v -6.9479 h -1.58181 v 5.61 c 0,0.6564 -0.28921,1.25131 -0.86662,1.78387 -0.57741,0.52017 -1.17703,0.78031 -1.79886,0.78031 -1.43241,0 -2.14818,-1.053 -2.14818,-3.15846 v -5.01572 z m -14.69057,4.79299 v 1.69034 c 0,0.47063 -0.29464,0.8795 -0.88315,1.22628 -0.57741,0.3344 -1.15478,0.50126 -1.7322,0.50126 -0.98825,0 -1.48208,-0.49541 -1.48208,-1.48621 0,-1.22609 1.36584,-1.86971 4.09743,-1.93167 z m -24.03471,2.26653 c -0.33312,0 -0.61638,0.13007 -0.84956,0.39016 -0.23319,0.26008 -0.34985,0.57567 -0.34985,0.94723 0,0.37154 0.11666,0.69335 0.34985,0.96583 0.23318,0.26008 0.51644,0.39016 0.84956,0.39016 0.33311,0 0.61637,-0.13008 0.84956,-0.39016 0.24429,-0.27248 0.36638,-0.59429 0.36638,-0.96583 0,-0.37156 -0.12209,-0.68715 -0.36638,-0.94723 -0.23319,-0.26009 -0.51645,-0.39016 -0.84956,-0.39016 z"
       sodipodi:nodetypes="csssscccccccccccsssscccccscscsccscsccccscccsccsccccsccscscssssccssscccsccssccssccscssscccsssccscccsccscsscccscsscssscssscss" /><rect
       style="opacity:0.1;fill:#f9f9f9;stroke:none;stroke-width:1.48562;stroke-linecap:round;stroke-linejoin:round;stroke-dasharray:none"
       id="rect36"
       width="42.106995"
       height="10.043832"
       x="80.344612"
       y="267.12097"
       ry="4.2529664" /><path
       id="text4"
       style="font-size:8.78347px;font-family:Laksaman;-inkscape-font-specification:'Laksaman, Normal';fill:#f9f9f9;stroke-width:0.90267;stroke-linecap:round;stroke-linejoin:round"
       d="m 110.23263,259.01694 c -1.19788,0.0107 -2.21979,0.15538 -2.21979,0.15538 -0.1439,0.0202 -0.2439,0.15332 -0.22296,0.29682 0.0203,0.14268 0.15233,0.24215 0.29539,0.22249 0,0 1.78838,-0.24733 3.32579,-0.10944 1.23508,0.0901 2.55255,0.49671 1.86129,1.87129 -3.55236,5.13544 0.53698,4.72044 5.26727,3.76167 6.4849,-1.07472 5.42484,5.16437 5.28693,9.69192 h 0.52714 c 0.33705,-5.3292 0.7795,-11.47552 -5.88076,-10.21078 -4.52768,0.85978 -7.67028,1.1761 -4.74323,-2.98891 1.35912,-1.93394 -1.07514,-2.53826 -2.27204,-2.64561 -0.40703,-0.0365 -0.8257,-0.048 -1.22499,-0.0444 z m -24.912715,9.49529 c -0.550431,0 -1.013188,0.14601 -1.387948,0.43879 -0.374761,0.28692 -0.561801,0.67633 -0.561801,1.1682 0,0.80222 0.585663,1.39362 1.756791,1.77424 0.456741,0.14054 0.799012,0.31333 1.027382,0.51828 0.22837,0.19909 0.342461,0.49797 0.342461,0.89615 0,0.40989 -0.143478,0.72629 -0.430404,0.94881 -0.286926,0.22251 -0.661523,0.33348 -1.124119,0.33348 -0.614842,0 -1.138794,-0.16404 -1.572111,-0.49196 l -0.211064,0.44808 c 0.462596,0.32206 1.039443,0.48318 1.730409,0.48318 0.608987,0 1.115824,-0.1582 1.519863,-0.47441 0.409895,-0.3162 0.614567,-0.74648 0.614567,-1.29106 0,-0.27521 -0.04114,-0.51517 -0.123121,-0.72012 -0.08198,-0.20495 -0.213701,-0.37774 -0.395226,-0.51828 -0.181525,-0.14054 -0.362687,-0.25201 -0.544212,-0.33399 -0.17567,-0.0878 -0.410245,-0.1842 -0.703027,-0.2896 -0.907624,-0.31621 -1.361048,-0.76453 -1.361048,-1.34423 0,-0.35134 0.131722,-0.62342 0.395226,-0.81666 0.269359,-0.19323 0.608692,-0.29011 1.018587,-0.29011 0.439173,0 0.849034,0.10272 1.229651,0.30766 0.02342,-0.0468 0.06163,-0.11985 0.114326,-0.21939 0.05855,-0.10542 0.09382,-0.17018 0.105532,-0.19358 -0.374761,-0.22251 -0.85515,-0.33348 -1.440714,-0.33348 z m 20.544525,0 -2.38015,6.39439 h 0.5706 l 0.71182,-2.02048 h 2.70502 l 0.7289,2.02048 h 0.57111 l -2.38015,-6.39439 z m -16.354815,0.10531 v 0.4393 h 2.310315 v 5.84978 h 0.526624 v -5.84978 h 2.310316 v -0.4393 z m 7.922634,0 v 6.28908 h 3.425641 v -0.4393 h -2.8985 v -2.66162 h 2.58242 v -0.43879 H 97.9594 v -2.31007 h 2.8985 v -0.4393 z m 14.431451,0 -0.4392,6.28908 h 0.49197 l 0.39522,-5.5514 2.0377,5.5514 h 0.34246 l 2.0289,-5.5514 0.39522,5.5514 h 0.49197 l -0.4392,-6.28908 h -0.60577 l -2.04701,5.63916 -2.04648,-5.63916 z m 39.27951,0.22817 -0.52715,0.23746 v 1.33494 h -0.89598 v 0.39542 h 0.89598 v 2.77518 c 0,0.41576 0.0994,0.76135 0.29849,1.03657 0.20495,0.26936 0.48897,0.4042 0.85202,0.4042 0.28692,0 0.5215,-0.0409 0.70302,-0.12286 l -0.0528,-0.39543 c -0.12883,0.0527 -0.33108,0.079 -0.60629,0.079 -0.44503,0 -0.66733,-0.33392 -0.66733,-1.00147 v -2.77518 h 1.4314 v -0.39542 h -1.4314 z m -45.01546,0.24624 1.18619,3.35489 h -2.38946 z m 21.63399,1.22963 c -0.66755,0 -1.17145,0.29835 -1.51107,0.89563 -0.0117,-0.35134 -0.0465,-0.61758 -0.10502,-0.7991 h -0.49196 c 0.0585,0.4743 0.0879,0.84326 0.0879,1.10677 v 3.38174 h 0.52663 v -2.72305 c 0,-0.35134 0.14347,-0.67649 0.4304,-0.97513 0.28693,-0.29864 0.6062,-0.44756 0.95754,-0.44756 0.89006,0 1.33519,0.53248 1.33519,1.5982 v 2.54754 h 0.52714 v -2.54754 c 0,-1.35851 -0.58567,-2.0375 -1.75679,-2.0375 z m 5.14673,0 c -0.66754,0 -1.17092,0.29835 -1.51055,0.89563 -0.0117,-0.35134 -0.047,-0.61758 -0.10553,-0.7991 h -0.49145 c 0.0585,0.4743 0.0874,0.84326 0.0874,1.10677 v 3.38174 h 0.52714 v -2.72305 c 0,-0.35134 0.14348,-0.67649 0.4304,-0.97513 0.28693,-0.29864 0.60621,-0.44756 0.95755,-0.44756 0.89006,0 1.33518,0.53248 1.33518,1.5982 v 2.54754 h 0.52663 v -2.54754 c 0,-1.35851 -0.58566,-2.0375 -1.7568,-2.0375 z m 5.06811,0 c -0.65583,0 -1.19742,0.22535 -1.62488,0.67624 -0.42746,0.45089 -0.64095,1.01017 -0.64095,1.67771 0,0.67339 0.21055,1.23559 0.63216,1.68648 0.4216,0.44502 0.96612,0.66747 1.63367,0.66747 0.66169,0 1.20327,-0.22536 1.62488,-0.67625 0.42746,-0.45088 0.64146,-1.01016 0.64146,-1.6777 0,-0.66754 -0.214,-1.22682 -0.64146,-1.67771 -0.42161,-0.45089 -0.96319,-0.67624 -1.62488,-0.67624 z m 9.2754,0 c -0.527,0 -1.03626,0.0788 -1.52814,0.23694 l 0.0616,0.50073 c 0.63242,-0.19909 1.10935,-0.29837 1.43141,-0.29837 0.39818,0 0.69983,0.1168 0.90478,0.35102 0.20494,0.23423 0.30728,0.56522 0.30728,0.99269 -1.99092,0 -2.98593,0.55928 -2.98593,1.67771 0,0.3689 0.13761,0.67018 0.41282,0.90441 0.28107,0.22836 0.62041,0.34277 1.01859,0.34277 0.66169,0 1.19445,-0.25164 1.59849,-0.75523 l 0.18468,0.7289 0.45679,-0.0965 c -0.1054,-0.36305 -0.1583,-0.72909 -0.1583,-1.098 v -1.6075 c 0,-1.2531 -0.56803,-1.87954 -1.70403,-1.87954 z m 8.15129,0 c -0.65583,0 -1.19742,0.22535 -1.62488,0.67624 -0.42746,0.45089 -0.64146,1.01017 -0.64146,1.67771 0,0.67339 0.21106,1.23559 0.63267,1.68648 0.42161,0.44502 0.96612,0.66747 1.63367,0.66747 0.66169,0 1.20327,-0.22536 1.62488,-0.67625 0.42746,-0.45088 0.64095,-1.01016 0.64095,-1.6777 0,-0.66754 -0.21349,-1.22682 -0.64095,-1.67771 -0.42161,-0.45089 -0.96319,-0.67624 -1.62488,-0.67624 z m 5.12035,0 c -0.62069,0 -1.07118,0.33048 -1.35225,0.99216 0,-0.40989 -0.047,-0.70825 -0.14071,-0.89563 h -0.44799 c 0.0878,0.3162 0.13191,0.80488 0.13191,1.46657 v 3.02194 h 0.52715 v -2.4159 c 0,-0.52701 0.13172,-0.9456 0.39522,-1.25596 0.26936,-0.3162 0.59695,-0.4744 0.98341,-0.4744 0.0703,0 0.12317,0.006 0.1583,0.0181 v -0.43053 c -0.0878,-0.0175 -0.17306,-0.0263 -0.25504,-0.0263 z m -19.87668,0.0965 1.94096,4.48851 h 0.45679 l 2.0201,-4.48851 h -0.52662 l -1.70403,3.93512 -1.66005,-3.93512 z m -2.67036,0.34277 c 0.51529,0 0.93397,0.18396 1.25603,0.55286 0.32206,0.36891 0.48317,0.82307 0.48317,1.36179 0,0.53871 -0.16404,0.99235 -0.49196,1.36126 -0.32206,0.36891 -0.7378,0.55339 -1.24724,0.55339 -0.50944,0 -0.92811,-0.18448 -1.25603,-0.55339 -0.32206,-0.36891 -0.48317,-0.82255 -0.48317,-1.36126 0,-0.53872 0.16111,-0.99288 0.48317,-1.36179 0.32792,-0.3689 0.74659,-0.55286 1.25603,-0.55286 z m 17.42669,0 c 0.51529,0 0.93397,0.18396 1.25603,0.55286 0.32207,0.36891 0.48317,0.82307 0.48317,1.36179 0,0.53871 -0.16404,0.99235 -0.49196,1.36126 -0.32206,0.36891 -0.7378,0.55339 -1.24724,0.55339 -0.50944,0 -0.92811,-0.18448 -1.25603,-0.55339 -0.32206,-0.36891 -0.48317,-0.82255 -0.48317,-1.36126 0,-0.53872 0.16111,-0.99288 0.48317,-1.36179 0.32792,-0.3689 0.74659,-0.55286 1.25603,-0.55286 z m -6.9744,1.78301 v 0.91319 c 0,0.3162 -0.16941,0.58588 -0.50904,0.80839 -0.33377,0.21666 -0.67656,0.32471 -1.02789,0.32471 -0.27522,0 -0.49752,-0.0788 -0.66734,-0.23695 -0.16981,-0.16395 -0.25503,-0.38347 -0.25503,-0.65869 0,-0.76709 0.81972,-1.15065 2.4593,-1.15065 z m -59.929048,1.528 c -0.122969,0 -0.228761,0.0467 -0.316595,0.14041 -0.08783,0.0937 -0.131397,0.20225 -0.131397,0.32522 0,0.12297 0.04356,0.22861 0.131397,0.31644 0.08783,0.0878 0.193626,0.13164 0.316595,0.13164 0.122968,0 0.231181,-0.0438 0.324872,-0.13164 0.09369,-0.0878 0.140191,-0.19347 0.140191,-0.31644 0,-0.12297 -0.0465,-0.23153 -0.140191,-0.32522 -0.09369,-0.0937 -0.201904,-0.14041 -0.324872,-0.14041 z m 7.140975,0 c -0.122968,0 -0.22876,0.0467 -0.316595,0.14041 -0.08783,0.0937 -0.131397,0.20225 -0.131397,0.32522 0,0.12297 0.04356,0.22861 0.131397,0.31644 0.08783,0.0878 0.193627,0.13164 0.316595,0.13164 0.122969,0 0.231182,-0.0438 0.324872,-0.13164 0.09369,-0.0878 0.140192,-0.19347 0.140192,-0.31644 0,-0.12297 -0.0465,-0.23153 -0.140192,-0.32522 -0.09369,-0.0937 -0.201903,-0.14041 -0.324872,-0.14041 z m 6.762823,0 c -0.12298,0 -0.22825,0.0467 -0.31608,0.14041 -0.0878,0.0937 -0.13191,0.20225 -0.13191,0.32522 0,0.12297 0.0441,0.22861 0.13191,0.31644 0.0878,0.0878 0.1931,0.13164 0.31608,0.13164 0.12296,0 0.2317,-0.0438 0.32539,-0.13164 0.0937,-0.0878 0.14019,-0.19347 0.14019,-0.31644 0,-0.12297 -0.0465,-0.23153 -0.14019,-0.32522 -0.0937,-0.0937 -0.20243,-0.14041 -0.32539,-0.14041 z m 7.4136,0 c -0.12298,0 -0.22877,0.0467 -0.3166,0.14041 -0.0878,0.0937 -0.1314,0.20225 -0.1314,0.32522 0,0.12297 0.0436,0.22861 0.1314,0.31644 0.0878,0.0878 0.19362,0.13164 0.3166,0.13164 0.12296,0 0.23118,-0.0438 0.32487,-0.13164 0.0937,-0.0878 0.14071,-0.19347 0.14071,-0.31644 0,-0.12297 -0.047,-0.23153 -0.14071,-0.32522 -0.0937,-0.0937 -0.20191,-0.14041 -0.32487,-0.14041 z m 9.37162,0 c -0.12297,0 -0.22824,0.0467 -0.31608,0.14041 -0.0878,0.0937 -0.13191,0.20225 -0.13191,0.32522 0,0.12297 0.0441,0.22861 0.13191,0.31644 0.0878,0.0878 0.19311,0.13164 0.31608,0.13164 0.12297,0 0.23119,-0.0438 0.32487,-0.13164 0.0937,-0.0878 0.14071,-0.19347 0.14071,-0.31644 0,-0.12297 -0.047,-0.23153 -0.14071,-0.32522 -0.0937,-0.0937 -0.2019,-0.14041 -0.32487,-0.14041 z"
       transform="scale(0.99894123,1.0010599)"
       sodipodi:nodetypes="scccscsccssssscsccsssccscsssccscscccscccccccccccccccccccccccccccccccccccccccccccccccccccscsccssccccccsccscccsccssssccssscscsccssssccssssscscscsscccscscscccsssssscccscssccccccscsccscccccsccssscssscsssscscscscscscscsssssssssssssssssssssssssssssssssssssssssssssscsss" /><path
       d="m 53.808123,275.35629 h -0.65333 l -0.524998,-8.21544 -2.694989,8.21544 h -0.454998 l -2.706655,-8.21544 -0.524998,8.21544 h -0.653331 l 0.583331,-9.30736 h 0.804997 l 2.718322,8.34542 2.718322,-8.34542 h 0.804997 z"
       id="text34"
       style="font-size:11.093px;font-family:Laksaman;-inkscape-font-specification:'Laksaman, Normal';fill:#f9f9f9;stroke-width:7.80148;stroke-linecap:round;stroke-linejoin:round"
       aria-label="M" /><path
       d="m 54.219936,285.98813 q -0.62006,0 -1.057749,-0.35562 -0.42857,-0.36474 -0.42857,-0.93921 0,-1.74163 3.100297,-1.74163 0,-0.66566 -0.319149,-1.0304 -0.319148,-0.36474 -0.939207,-0.36474 -0.501519,0 -1.486319,0.31003 l -0.06383,-0.51975 q 0.765956,-0.2462 1.586623,-0.2462 1.768993,0 1.768993,1.95136 v 1.66869 q 0,0.57447 0.164133,1.13981 l -0.474163,0.10031 -0.191489,-0.75684 q -0.629178,0.78419 -1.65957,0.78419 z m -0.939208,-1.38601 q 0,0.42857 0.264437,0.68389 0.264437,0.2462 0.693008,0.2462 0.547111,0 1.066866,-0.33739 0.528875,-0.3465 0.528875,-0.8389 v -0.94833 q -2.553186,0 -2.553186,1.19453 z"
       id="text33"
       style="font-size:9.11852px;font-family:Laksaman;-inkscape-font-specification:'Laksaman, Normal';fill:#f9f9f9;stroke-width:5.77661;stroke-linecap:round;stroke-linejoin:round"
       transform="scale(1.0381475,0.96325422)"
       aria-label="a" /><path
       d="m 61.587685,285.83312 -0.537993,0.15501 -2.2158,-2.55318 -0.483282,0.46504 v 1.96048 h -0.547111 v -6.93007 h 0.547111 v 4.36777 l 2.316104,-2.17021 0.547112,0.10942 -1.996956,1.89666 z"
       id="text32"
       style="font-size:9.11852px;font-family:Laksaman;-inkscape-font-specification:'Laksaman, Normal';fill:#f9f9f9;stroke-width:5.77661;stroke-linecap:round;stroke-linejoin:round"
       transform="scale(1.0381475,0.96325422)"
       aria-label="k" /><path
       d="m 62.344509,283.57173 q 0.02736,0.88449 0.528874,1.42248 0.510637,0.538 1.358659,0.538 0.793312,0 1.632215,-0.32827 l 0.04559,0.44681 q -0.811548,0.33738 -1.732519,0.33738 -1.04863,0 -1.714282,-0.64741 -0.665651,-0.65654 -0.665651,-1.68693 0,-1.10334 0.638296,-1.8237 0.647415,-0.72948 1.686926,-0.72948 1.960482,0 2.006074,2.47112 z m 3.237074,-0.45593 q -0.01824,-0.71125 -0.437689,-1.1307 -0.410333,-0.42857 -1.085104,-0.42857 -0.67477,0 -1.130696,0.44681 -0.455926,0.43769 -0.55623,1.11246 z"
       id="text31"
       style="font-size:9.11852px;font-family:Laksaman;-inkscape-font-specification:'Laksaman, Normal';fill:#f9f9f9;stroke-width:5.77661;stroke-linecap:round;stroke-linejoin:round"
       transform="scale(1.0381475,0.96325422)"
       aria-label="e" /><path
       d="m 69.402231,281.57477 q -0.05471,-0.0182 -0.164134,-0.0182 -0.601822,0 -1.021274,0.4924 -0.410333,0.48328 -0.410333,1.30395 v 2.50759 h -0.547112 v -3.13677 q 0,-1.03039 -0.136777,-1.52279 h 0.465044 q 0.145896,0.29179 0.145896,0.93009 0.437689,-1.03039 1.404252,-1.03039 0.12766,0 0.264438,0.0273 z"
       id="text30"
       style="font-size:9.11852px;font-family:Laksaman;-inkscape-font-specification:'Laksaman, Normal';fill:#f9f9f9;stroke-width:5.77661;stroke-linecap:round;stroke-linejoin:round"
       aria-label="r"
       transform="scale(1.0381475,0.96325422)" /><path
       style="font-size:10.5093px;font-family:Laksaman;-inkscape-font-specification:'Laksaman, Normal';fill:#f9f9f9;stroke-width:6.17006;stroke-linecap:round;stroke-linejoin:round"
       d="m 76.547395,267.83946 q 0.684713,0 1.120438,0.44713 0.446101,0.43648 0.446101,1.12846 0,1.28816 -1.908896,2.16112 1.02707,1.17105 2.344622,2.54438 0.539471,-0.74522 0.829955,-2.4805 h 0.570594 q -0.373479,2.03337 -1.047818,2.82117 0.632841,0.6494 1.317553,1.27751 h -0.778082 q -0.08299,-0.0852 -0.383854,-0.36196 -0.290485,-0.28744 -0.497973,-0.48972 -1.161936,1.00073 -2.510613,1.00073 -0.923325,0 -1.587288,-0.63876 -0.65359,-0.63876 -0.65359,-1.56495 0,-1.52237 1.576914,-2.32081 -0.674338,-0.91555 -0.674338,-1.62883 0,-0.80908 0.518722,-1.35203 0.518721,-0.54294 1.317553,-0.54294 z m -0.06225,0.48971 q -0.529096,0 -0.871452,0.3939 -0.331983,0.3939 -0.331983,0.94749 0,0.62811 0.663965,1.50107 1.618411,-0.79844 1.618411,-1.6927 0,-0.52165 -0.300858,-0.83039 -0.290485,-0.31937 -0.778083,-0.31937 z m -2.085261,5.28038 q 0,0.77715 0.508348,1.26686 0.518721,0.48971 1.286429,0.48971 1.172311,0 2.01264,-0.86231 -1.421297,-1.4585 -2.510613,-2.73601 -1.296804,0.70263 -1.296804,1.84175 z"
       id="text6"
       aria-label="&amp;" /></g></svg>
