<?xml version="1.0" encoding="UTF-8" standalone="no"?>
<!-- Created with Inkscape (http://www.inkscape.org/) -->

<svg
   width="115.06214mm"
   height="177.97682mm"
   viewBox="0 0 115.06214 177.97683"
   version="1.1"
   id="svg1"
   xml:space="preserve"
   inkscape:version="1.3.2 (1:1.3.2+202311252150+091e20ef0f)"
   sodipodi:docname="avatar.svg"
   inkscape:export-filename="pppic.png"
   inkscape:export-xdpi="5000"
   inkscape:export-ydpi="5000"
   xmlns:inkscape="http://www.inkscape.org/namespaces/inkscape"
   xmlns:sodipodi="http://sodipodi.sourceforge.net/DTD/sodipodi-0.dtd"
   xmlns="http://www.w3.org/2000/svg"
   xmlns:svg="http://www.w3.org/2000/svg"><sodipodi:namedview
     id="namedview1"
     pagecolor="#3f3f3f"
     bordercolor="#000000"
     borderopacity="0.25"
     inkscape:showpageshadow="2"
     inkscape:pageopacity="0.0"
     inkscape:pagecheckerboard="0"
     inkscape:deskcolor="#2f2f2f"
     inkscape:document-units="mm"
     inkscape:zoom="0.72693605"
     inkscape:cx="60.52802"
     inkscape:cy="283.38119"
     inkscape:window-width="1856"
     inkscape:window-height="1016"
     inkscape:window-x="0"
     inkscape:window-y="0"
     inkscape:window-maximized="1"
     inkscape:current-layer="layer1"
     showguides="true"
     inkscape:export-bgcolor="#ffffffff"
     showgrid="false"
     inkscape:lockguides="true" /><defs
     id="defs1"><inkscape:path-effect
       effect="simplify"
       id="path-effect465"
       is_visible="true"
       lpeversion="1"
       steps="1"
       threshold="0.00416667"
       smooth_angles="360"
       helper_size="0"
       simplify_individual_paths="false"
       simplify_just_coalesce="false" /></defs><g
     inkscape:label="Layer 1"
     inkscape:groupmode="layer"
     id="layer1"
     transform="translate(-45.87436,-98.535388)"
     style="display:inline"><g
       id="g4"><path
         style="fill:#a02c2c;stroke:none;stroke-width:0.0914874"
         d="m 113.16021,183.22344 c 0,0 -11.28532,5.62884 -19.428901,5.87682 -8.873717,0.27021 -19.780268,-0.96513 -23.13856,1.12549 -5.742464,3.57481 -6.321966,5.68256 -10.10225,14.20125 -3.104344,6.99549 -5.531894,-9.34035 4.208349,-18.48963 4.269665,-4.01064 8.915215,-7.05878 24.765297,-6.53781 7.86674,0.25856 20.442755,-6.20632 20.784175,-7.83277 0.34145,-1.62644 2.91189,11.65665 2.91189,11.65665 z"
         id="path10"
         sodipodi:nodetypes="cssssssc" /><path
         style="fill:#a02c2c;stroke:none;stroke-width:0.0914874"
         d="m 124.02456,157.35759 c 0,0 -0.12305,-12.56035 3.23127,-19.94822 3.65506,-8.05027 9.5625,-17.256 9.1507,-21.17631 -0.70415,-6.70347 -2.35239,-8.14757 -8.38201,-15.26948 -4.95148,-5.848474 10.86305,-0.84051 14.84324,11.88564 1.74473,5.57854 2.4554,11.07016 -4.97926,25.00842 -3.68998,6.91787 -3.37927,20.9992 -2.06094,22.01902 1.31833,1.01983 -11.803,-2.51907 -11.803,-2.51907 z"
         id="path6"
         sodipodi:nodetypes="cssssssc" /><path
         style="fill:#a02c2c;stroke:none;stroke-width:0.0914874"
         d="m 125.4312,159.40957 c 0,0 0.12305,-12.56034 -3.23127,-19.94822 -3.65506,-8.05026 -9.5625,-17.256 -9.1507,-21.1763 0.70415,-6.70348 2.35239,-8.14758 8.38201,-15.26949 4.95148,-5.848471 -10.86305,-0.84051 -14.84324,11.88564 -1.74473,5.57854 -2.4554,11.07016 4.97926,25.00843 3.68997,6.91786 3.37927,20.99919 2.06094,22.01902 -1.31833,1.01983 11.803,-2.51908 11.803,-2.51908 z"
         id="path24"
         sodipodi:nodetypes="cssssssc" /><path
         style="fill:#a02c2c;stroke:none;stroke-width:0.0914874"
         d="m 104.44463,165.4046 c 0,0 -12.263311,-2.9804 -20.257055,-1.41346 -8.710456,1.70743 -19.064726,5.3339 -22.807268,4.04189 -6.399508,-2.20924 -7.437211,-4.13511 -13.03308,-11.59929 -4.595292,-6.12955 -3.297053,10.33331 8.249869,17.08849 5.061632,2.96118 10.273755,4.90066 25.607082,0.87259 7.610261,-1.99922 21.319252,1.50946 22.016912,3.01906 0.69769,1.50957 0.22354,-12.00928 0.22354,-12.00928 z"
         id="path28"
         sodipodi:nodetypes="cssssssc" /><path
         style="fill:#a02c2c;stroke:none;stroke-width:0.0914874"
         d="m 102.76954,182.88618 c 0,0 11.75785,4.57208 19.88983,4.07365 8.86107,-0.54311 19.60717,-2.77142 23.1445,-0.99705 6.04859,3.03407 6.82048,5.07985 11.37224,13.21643 3.73788,6.68171 4.64498,-9.80706 -5.89976,-18.02608 -4.62233,-3.60283 -9.52998,-6.21287 -25.26469,-4.24342 -7.80949,0.97748 -20.92984,-4.30896 -21.42017,-5.89726 -0.49036,-1.58831 -1.82195,11.87373 -1.82195,11.87373 z"
         id="path25"
         sodipodi:nodetypes="cssssssc" /><path
         style="fill:#a02c2c;stroke:none;stroke-width:0.0914874"
         d="m 123.68636,175.23371 c 0,0 4.03833,-11.90089 9.64942,-17.77871 6.11418,-6.40482 14.73745,-13.16314 15.64529,-16.9999 1.55236,-6.56061 0.47359,-8.46401 -2.86442,-17.16372 -2.74116,-7.14415 10.53586,2.76373 10.08495,16.08431 -0.19766,5.83912 -1.34302,11.25752 -12.97378,21.98457 -5.77259,5.32408 -10.13681,18.72268 -9.22925,20.11741 0.90755,1.39474 -10.31221,-6.24396 -10.31221,-6.24396 z"
         id="path7"
         sodipodi:nodetypes="cssssssc" /><path
         style="fill:#a02c2c;stroke:none;stroke-width:0.0914874"
         d="m 95.662847,171.39164 c 0,0 9.588623,8.1722 12.999943,15.5683 3.71715,8.05922 6.84414,18.58074 10.07978,20.84928 5.5327,3.87908 7.6979,3.58391 17.01093,3.71429 7.64779,0.10708 -6.42875,8.76143 -18.65148,3.39464 -5.35786,-2.35253 -9.97739,-5.42924 -15.69381,-20.21893 -2.837183,-7.34044 -13.699303,-16.37173 -15.328733,-16.04665 -1.62947,0.32503 9.58337,-7.26094 9.58337,-7.26094 z"
         id="path9"
         sodipodi:nodetypes="cssssssc" /><path
         style="fill:#c83737;stroke:none;stroke-width:0.0914874"
         d="m 72.905389,157.33064 c 0,0 -2.351573,3.09932 -3.283046,5.4646 -2.236169,5.67828 -6.381996,-21.5232 -2.186442,-26.04776 3.904678,-4.21087 25.578193,-4.88053 25.669032,0.92412 0.09084,5.80465 -5.164796,5.41096 -5.164796,5.41096 0,0 16.995593,19.3877 11.784609,24.71816 -6.573346,6.72404 -26.819357,-10.47008 -26.819357,-10.47008 z"
         id="path2"
         sodipodi:nodetypes="csszcsc" /><path
         style="fill:#a02c2c;stroke:none;stroke-width:0.0925349"
         d="m 112.3812,165.93219 c 0,0 -10.46582,7.17692 -14.558323,14.19047 -4.45941,7.64238 -8.518489,17.78949 -12.009928,19.72528 -5.970099,3.31011 -8.157375,2.80377 -17.680484,2.01696 -7.820311,-0.64611 5.845946,9.33844 18.771603,5.20835 5.666018,-1.81044 10.637406,-4.4131 17.692312,-18.54656 3.5015,-7.01473 15.33871,-14.91998 16.97632,-14.43665 1.63759,0.48334 -9.1915,-8.15785 -9.1915,-8.15785 z"
         id="path19"
         sodipodi:nodetypes="cssssssc" /><path
         id="path1"
         style="fill:#ececec;stroke:none;stroke-width:0.0974542"
         d="m 84.842394,147.74813 c 3.221951,3.24208 6.07764,9.93611 4.32908,11.47121 -1.748559,1.53509 -9.530817,-1.97917 -12.752762,-5.22123 -3.221951,-3.24207 0.317085,-3.87555 2.065644,-5.41064 1.74856,-1.53509 3.136087,-4.08141 6.358038,-0.83934 z"
         sodipodi:nodetypes="sssss" /><path
         style="fill:#d38d5f;stroke:none;stroke-width:1.06583"
         d="m 94.898061,153.94245 c 0.870789,-2.40478 0.372256,-5.36515 -1.150416,-7.38771 -0.982071,-2.36504 -2.484693,-4.32932 -4.180412,-6.2063 -0.748424,-2.19628 -3.882733,-4.63947 -1.963073,-6.94314 -4.111965,-29.36881 35.52036,-23.35829 30.8747,-2.6926 0.71094,-0.24486 1.52553,-0.44062 1.21396,2.47208 0.30509,2.55317 -0.51907,4.3146 -1.13158,6.77901 -0.69431,2.16703 0.0339,4.72983 -1.59475,6.56222 -1.64797,1.76288 -0.82476,4.31382 -0.60787,6.70673 0.22977,2.24611 1.2138,3.7671 0.8203,6.24889 0.31537,2.26329 0.20411,5.71961 -2.63224,6.22936 -3.31563,0.66412 -6.7084,1.36235 -10.12062,1.02039 -3.50412,0.0137 -7.136732,-0.83837 -10.054536,-2.80385 -1.941852,-1.95456 -4.078901,-3.66205 -6.279773,-5.26916 -0.302993,-0.32723 -0.588553,-0.66982 -0.890745,-0.99776"
         id="path11"
         sodipodi:nodetypes="ccccccccccccccc" /><path
         style="fill:#000000;stroke:none;stroke-width:1.06583"
         d="m 90.138702,128.93164 c 2.338251,-0.87664 3.848067,-1.3979 6.606594,-1.96379 2.09129,-0.31428 5.280894,0.14274 7.342374,0.20131 2.33009,-0.21063 2.72745,-0.32641 4.53033,-1.19988 2.31798,-0.73689 5.73899,-0.005 8.08832,0.2405 0.56205,0.77176 0.09,3.52538 0.11087,5.23668 -0.34512,2.5541 -0.71322,3.50414 -4.69689,3.94527 -4.00488,0.3389 -4.57445,-1.36021 -6.01087,-3.49166 -0.78507,-1.68311 -0.9883,-4.15015 -2.37357,-3.97616 -1.1533,-0.007 -0.69925,1.85921 -1.09495,3.47385 -0.4629,3.49201 -1.66813,4.90739 -4.595926,5.23925 -1.695682,0.26865 -3.865585,0.88492 -5.024859,-0.72533 -1.54494,-2.07086 -2.001283,-4.61274 -2.881423,-6.98004 z"
         id="path13"
         sodipodi:nodetypes="ccccccccccccc" /><path
         style="fill:#502d16;stroke:none;stroke-width:1.06583"
         d="m 90.138702,136.60855 c -0.0311,0.28932 0.153627,0.5832 0.09291,0.8732 -0.0293,0.13997 -0.132367,0.27852 -0.185816,0.41325 -0.195596,0.49304 -0.294754,0.99524 -0.146698,1.51904 0.17343,0.61357 0.814091,0.81592 1.271382,1.15768 0.260589,0.19476 0.457861,0.44588 0.650363,0.70325 0.110554,0.14779 0.415031,1.26287 0.528113,1.23422 0.07237,-0.0183 0.150569,-0.0993 0.205378,-0.14758 0.175434,-0.15461 0.0234,-0.48961 -0.05868,-0.64875 -0.426242,-0.82649 -0.637036,-1.67304 -0.948647,-2.54535 -0.141685,-0.39662 -0.351314,-0.7624 -0.513442,-1.14957 -0.363292,-0.86756 -0.497088,-1.97893 -0.400975,-2.91188 0.07799,-0.75704 0.290553,-1.4965 0.337404,-2.25796 0.02581,-0.4194 -0.12223,-0.84198 -0.09291,-1.26992 0.08807,-1.28527 0.42681,-2.48412 0.74327,-3.72476 0.162984,-0.63896 0.283302,-1.47918 0.69437,-2.01727 0.516961,-0.67671 0.828851,-0.53193 1.457202,-0.88391 0.645604,-0.36164 1.292403,-0.79748 1.863064,-1.26733 0.09212,-0.0758 0.213359,-0.19537 0.327625,-0.23516 0.488199,-0.17003 1.668282,0.32082 2.161346,0.4405 0.510666,0.12394 1.028963,0.19546 1.535447,0.33929 0.647222,0.18379 1.262112,0.46029 1.907072,0.64874 0.52274,0.15274 1.06093,0.25004 1.58923,0.38049 0.57601,0.14223 -1.34225,-1.62188 -1.25671,-1.81194 0.0368,-0.0819 0.87832,0.37245 0.94864,0.41065 1.08301,0.58833 2.16932,1.22138 3.30071,1.71041 1.79377,0.77536 -0.5418,-0.95854 -0.58679,-1.31078 -9.2e-4,-0.007 0.26919,0.0517 0.4352,0.10121 0.4325,0.1291 0.7904,0.30977 1.19314,0.49791 0.2668,0.12462 1.62543,0.75299 1.93642,0.61047 0.0476,-0.0218 -0.42447,-0.56669 -0.22983,-0.56669 0.11476,0 0.23373,0.0499 0.34719,0.0659 0.0792,0.0111 0.13004,0.0161 0.20538,0.0302 0.24955,0.0464 0.51412,0.0792 0.75794,0.14759 0.74395,0.20862 1.4498,0.51268 2.20047,0.70356 0.13505,0.0343 0.34918,0.14778 0.48899,0.13949 0.16679,-0.01 -0.058,-0.49871 0.0147,-0.50895 0.0884,-0.0125 1.70135,0.60033 1.95107,0.67308 0.72225,0.21038 0.36366,-0.37792 0.44988,-0.40223 0.12467,-0.0351 0.39293,0.1561 0.50367,0.20793 0.24522,0.11477 0.82206,0.28982 0.9193,0.59943 0.01,0.031 -0.0464,0.10343 -0.0293,0.13689 0.0792,0.15516 0.12713,0.33484 0.12713,0.53099 0,0.72967 -0.0103,1.43972 0.12225,2.16486 0.042,0.2299 0.006,0.48167 0.0147,0.71427 0.0122,0.34768 0.0645,0.71258 0.11246,1.05648 0.12431,0.89059 0.36843,1.75539 0.52322,2.63845 0.10723,0.61172 0.16733,1.21825 0.23472,1.83367 0.0752,0.68711 0.15339,1.4291 -0.01,2.10453 -0.0268,0.11074 -0.11405,1.31372 0.0391,1.28905 0.0401,-0.006 0.0717,-0.14562 0.0978,-0.18327 0.45967,-0.66472 0.48437,-1.38609 0.65526,-2.15124 0.0154,-0.0691 0.12321,0.21768 0.17114,0.15052 0.1433,-0.20081 0.0497,-1.58019 0.0342,-1.88298 -0.0427,-0.8363 0.0617,-1.60515 -0.0734,-2.43863 -0.0888,-0.54747 -0.76029,-1.98288 -0.69437,-2.36987 0.0239,-0.14049 0.85374,-0.90783 1.00732,-1.42334 0.19981,-0.67063 0.13529,-1.35225 0.16627,-2.04451 0.0145,-0.32378 0.11146,-0.64291 0.13691,-0.96598 0.0337,-0.42784 -0.0634,-0.96526 0.12225,-1.36854 0.0815,-0.17716 0.14211,-0.38242 0.25428,-0.54461 0.0971,-0.14039 0.32273,-0.18105 0.32273,-0.39671 0,-0.77253 -0.39997,-1.75134 -0.60145,-2.4769 -0.13409,-0.48285 -0.17381,-0.97913 -0.35208,-1.45611 -0.17239,-0.46122 -0.55522,-0.81863 -0.78729,-1.24527 -0.14873,-0.27343 -0.19994,-0.59614 -0.35207,-0.86769 -0.3637,-0.6492 -0.68181,-1.38399 -1.15891,-1.96245 -0.18979,-0.23011 -0.35974,-0.48419 -0.5819,-0.6867 -0.3401,-0.30999 -0.727,-0.58027 -1.05134,-0.90596 -0.37996,-0.38155 -0.68359,-0.86396 -1.10024,-1.207 -0.27501,-0.22642 -0.60335,-0.36686 -0.90463,-0.55305 -1.11037,-0.68616 -2.19819,-1.41884 -3.42786,-1.89109 -1.26338,-0.48519 -3.47029,-0.86677 -4.84103,-0.96338 -0.578,-0.0407 -1.19411,0.0313 -1.76527,-0.0549 -0.99209,-0.14957 -1.94494,-0.47453 -2.94862,-0.58549 -0.416825,-0.0461 -0.855109,0.0251 -1.276279,0.008 -0.405651,-0.0163 -0.809229,-0.096 -1.212705,-0.13689 -0.638766,-0.0648 -1.284007,-0.0262 -1.921739,-0.0766 -0.960693,-0.0758 -1.650526,-0.35823 -2.645454,-0.24361 -1.436003,0.16544 -2.847508,0.6351 -3.408286,2.06106 -0.261081,0.66388 -0.234961,1.41021 -0.381414,2.0935 -0.0767,0.35785 -0.298903,0.68591 -0.366745,1.03994 -0.05778,0.30151 -0.104335,0.60256 -0.249388,0.87871 -0.322925,0.61479 -2.080223,1.25192 -2.713915,1.6968 -0.70024,0.4916 -1.027601,1.26119 -1.432751,1.97607 -0.586434,1.03476 -1.304116,2.14488 -1.261602,3.38288 0.0232,0.67527 0.344375,1.26379 0.430313,1.92126 0.03988,0.30508 0.118052,0.61532 0.102689,0.9251 -0.0206,0.41532 -0.097,0.84604 -0.0049,1.25889 0.04744,0.21263 0.193325,0.39371 0.293397,0.5829 0.274731,0.51939 0.582618,1.06632 0.806839,1.60921 0.172065,0.4166 0.199299,0.88934 0.327625,1.31921 0.03837,0.12856 0.168595,0.209 0.224937,0.3286 0.272848,0.57917 0.511371,1.16616 0.81173,1.73798 0.415635,0.79129 0.59893,1.67275 1.056226,2.44122 0.02198,0.037 0.0508,0.1879 0.07824,0.20793 0.231949,0.16925 0.572197,0.24769 0.831289,0.386 0.806773,0.43069 1.638674,1.06261 1.941305,1.94591 0.01665,0.0486 0.113591,0.2541 0.09291,0.30361 -0.05766,0.13801 -0.120619,0.27377 -0.180926,0.41066 z"
         id="path12" /><path
         style="fill:#37c871;stroke:none;stroke-width:1.06583"
         d="m 91.637956,129.64541 c 1.310489,-1.435 3.815679,-1.9749 7.215267,-2.01652 2.813397,0.1502 3.376597,0.6064 3.225507,2.27176 0.0463,1.63412 -0.35697,2.90665 -0.97002,4.4361 -0.74453,1.50631 -2.250479,1.80227 -3.697445,1.98689 -1.021562,-0.006 -2.496099,0.66001 -3.345827,-0.25786 -1.28498,-1.01939 -1.936743,-2.44598 -2.503982,-3.72835 -0.135358,-0.78128 -0.347313,-1.92724 0.0765,-2.69202 z"
         id="path14"
         sodipodi:nodetypes="cccccccc" /><path
         style="fill:#afdde9;stroke:none;stroke-width:1.06583"
         d="m 106.03783,128.37891 c -0.11676,-1.67066 5.22613,-1.79931 7.85548,-1.60501 1.43928,0.12551 2.5622,0.6185 2.41434,2.91295 -0.0521,2.71803 -0.0936,3.52047 -1.53167,4.57166 -1.01086,0.55531 -2.29861,0.58283 -3.3957,0.74731 -1.48858,0.0537 -2.77311,-0.26521 -3.74318,-1.67327 -0.81393,-1.22452 -1.06591,-2.2851 -1.4904,-3.39601 z"
         id="path15"
         sodipodi:nodetypes="sccccccs" /><path
         style="fill:#f2f2f2;stroke:none;stroke-width:1.06583"
         d="m 66.921113,179.6112 c 2.642832,-2.7295 2.087975,-7.12435 4.883824,-9.73019 2.76453,-3.54154 6.426754,-6.17921 10.241598,-8.48988 2.891214,-2.54861 6.054847,-4.73219 9.432108,-6.6437 0.906454,-0.9314 3.762849,-0.78341 1.403532,0.28474 -1.945243,0.88617 -6.679368,2.41124 -2.869675,4.71102 3.329079,1.55203 4.769487,5.4698 8.678918,5.85892 4.015192,0.24105 8.003732,1.13135 12.056082,0.72164 4.14816,0.2884 6.45989,-3.75837 5.78829,-7.31573 -0.0885,-3.54961 -0.90353,-5.87764 -0.36807,-7.71255 5.99922,1.79099 13.094,4.28398 18.90925,6.60224 3.40886,1.41246 3.74451,5.39482 5.39596,8.25586 1.39934,3.61415 1.66044,7.62895 3.27064,11.136 2.14764,3.73022 -3.57472,5.18618 -6.32182,5.42965 -8.79966,1.33031 -11.92525,14.67359 -20.60814,17.54121 -3.35978,1.03479 -11.32449,0.0656 -14.92572,-0.28172 -5.943179,-0.23974 -11.10766,-8.4614 -17.008389,-6.78728 -4.521477,0.96926 -11.728676,-6.67683 -15.973251,-9.47762 -1.279249,-0.867 -2.900671,-2.43025 -1.985468,-4.10257 z"
         id="path16"
         sodipodi:nodetypes="scccccccccccccccccss" /><path
         style="opacity:0.35345;fill:#4d4d4d;stroke:none;stroke-width:1.06583"
         d="m 94.59625,147.99258 c 1.866881,0.90778 4.767428,2.4157 6.8486,2.73788 2.5939,0.31198 5.17252,0.3525 7.72387,-0.1967 1.96432,-0.5836 3.99083,-1.06431 5.40384,-1.97776 -1.50614,2.02181 -5.42013,2.87376 -6.00681,3.68379 -0.52873,1.31788 0.85912,2.41588 0.95129,3.71893 0.26564,0.88212 -3.05587,1.24948 -2.77191,2.12596 0.28907,0.89228 3.80666,-0.31866 4.01661,0.59464 0.16784,0.52252 -0.75412,1.55058 -2.39682,3.01488 -0.46899,0.41806 3.24493,0.0158 2.7566,0.60636 -1.06583,0.97223 -3.84528,0.20104 -4.48129,-0.89247 -0.53501,-0.73848 3.58949,-1.1622 2.917,-1.80013 -0.72934,-0.69185 -3.89701,0.43003 -4.87277,-0.31509 -0.88515,-0.67013 -2.62996,-1.46221 -3.40934,-0.46583 -1.12979,1.52248 -1.671696,3.48784 -3.175106,4.73821 -1.09053,1.01863 -2.867031,1.03035 -4.003802,0.0784 -1.357525,-1.02894 -2.257879,-2.60908 -3.88345,-3.28964 -1.297987,-0.54784 -2.0717,-2.44422 -1.139401,-3.44041 0.845395,-0.88508 2.280077,-1.19404 3.289044,-1.85781 1.322319,-0.71961 2.697858,-0.54849 2.769838,-1.87423 0.06542,-1.19809 0.06562,-3.3951 -0.535993,-5.18898 z"
         id="path17"
         sodipodi:nodetypes="ccccccscsccsccccccccc" /><path
         style="opacity:0.455878;fill:#333333;stroke:none;stroke-width:1.06583"
         d="m 100.97998,134.99087 c 0.82517,0.3043 1.16571,0.68648 1.30701,1.47849 0.002,0.0128 0.0396,0.26331 0.0553,0.26331 0.14303,0 -0.0207,-1.40027 -0.0207,-1.53675 0,-1.13432 0.13057,-2.24211 0.34577,-3.35561 0.0708,-0.36635 0.135,-0.74122 0.2213,-1.10325 0.0532,-0.22329 0.0998,-0.46358 0.19362,-0.67342 0.11651,-0.26054 0.22489,-0.53405 0.32503,-0.80141 0.65496,-1.74872 1.8316,1.89322 2.55178,2.00925 0.29857,0.0481 0.3801,-1.87015 0.27662,-2.16017 -0.36335,-1.01837 -2.62831,-1.96652 -3.40237,-1.00233 -0.7423,0.92462 -0.70084,2.31753 -0.91976,3.41755 -0.23759,1.19388 -0.88646,2.23395 -0.93358,3.46434 z"
         id="path22" /><path
         style="opacity:0.464077;fill:#4d4d4d;stroke:none;stroke-width:1.06583"
         d="m 99.169066,136.48083 c 0.03458,0.67317 0.07759,1.38556 -0.252412,2.00098 -0.266288,0.49656 -0.601657,0.94162 -0.850593,1.44363 -0.02137,0.043 -0.109975,0.15424 -0.07613,0.21102 9.18e-4,0.002 0.169868,-0.11069 0.331948,-0.16836 0.20173,-0.0717 0.428856,-0.063 0.632759,-0.13739 0.257731,-0.094 0.467459,-0.28483 0.712286,-0.40459 0.743036,-0.36351 1.521206,-0.45008 2.337406,-0.35025 0.39873,0.0487 0.87667,0.25065 1.28281,0.17432 0.26863,-0.0505 0.40173,-0.33485 0.63967,-0.4491 0.49567,-0.23799 1.07312,-0.3361 1.6113,-0.42386 0.5605,-0.0914 1.01816,-0.33799 1.53521,-0.54176 0.28904,-0.11392 0.59983,-0.15597 0.89556,-0.24979 0.18574,-0.059 0.35525,-0.16005 0.5394,-0.22248 0.17929,-0.0608 0.7069,-0.26114 0.45641,-0.54176 -0.27632,-0.30957 -0.83954,0.20006 -1.13412,0.29405 -0.70398,0.22458 -0.80601,0.0468 -1.45915,0.54198 -0.18512,0.14035 -0.33517,0.2995 -0.54977,0.40254 -0.23958,0.11503 -0.49413,0.19507 -0.73303,0.31331 -0.39106,0.19355 -0.75279,0.52839 -1.22058,0.26722 -0.42629,-0.23801 -0.2972,-0.79567 -1.04768,-0.95027 -0.765,-0.15757 -2.21441,0.53235 -2.79383,0.20713 -0.386837,-0.21714 -0.445306,-0.53894 -0.54978,-0.93674 -0.01587,-0.0605 -0.01899,-0.15895 -0.06227,-0.20895 -0.0797,-0.0922 -0.163667,-0.18059 -0.245497,-0.27088 z"
         id="path18" /><path
         style="opacity:0.256008;fill:#aa4400;stroke:none;stroke-width:1.06583"
         d="m 100.10264,141.40416 c 1.62394,-1.28749 3.70446,-1.96726 5.77543,-1.96071 1.1145,-0.48441 2.44047,-0.49648 3.54564,0.0214 1.00545,0.29835 2.08127,0.33923 3.11214,0.15552 -0.71918,1.09327 -1.47946,2.22389 -2.61104,2.93504 -1.74657,0.16756 -3.4402,0.71563 -5.19652,0.7924 -1.46149,0.0166 -2.93332,-0.35426 -4.18836,-1.10544 -0.35541,-0.1671 -1.15855,-0.14187 -1.160632,-0.5712 0.199482,-0.18311 0.500183,-0.13135 0.723342,-0.26705 z"
         id="path21" /><path
         style="opacity:0.455878;fill:#4d4d4d;stroke:none;stroke-width:1.06583"
         d="m 97.541584,141.22571 c -0.427654,1.20822 0.107519,1.35118 0.55467,1.68057 0.259822,0.32525 0.251632,0.40475 0.200546,0.45276 -0.09515,0.0894 -0.687062,-0.21983 -0.809099,-0.25964 -1.674842,-0.54624 -1.005942,-3.71146 -0.06227,-3.22029 0.252586,0.13146 0.329673,0.51186 0.56706,0.68902 0.566989,0.42312 0.993441,1.06766 1.680908,1.09045 1.047221,0.0348 3.334001,-0.26094 4.328591,-0.56383 0.35718,-0.10878 0.87551,-0.26896 1.25037,-0.30781 1.66513,-0.17259 3.05815,0.17873 4.74789,-0.39416 0.61499,-0.20852 1.23462,-0.0837 1.80573,-0.38207 0.32338,-0.16893 0.63276,-0.34418 0.97553,-0.453 0.18506,-0.0588 0.39853,-0.84887 0.28959,-1.04482 -0.4702,-0.8457 -1.95015,-0.81052 -2.40265,-1.40084 -0.11112,-0.14498 -0.31341,-0.88321 -0.0139,-0.86334 0.23644,0.0157 0.89815,0.36691 1.13412,0.47984 1.28693,0.61586 1.49407,1.11693 1.93079,2.5268 0.13548,0.43737 0.78697,0.83654 0.78697,1.29764 0,0.22991 -0.14021,0.86069 -0.49099,0.64222 -0.23682,-0.14749 -0.46991,-0.41502 -0.57398,-0.67342 -0.039,-0.0967 -0.15313,-0.7196 -0.24204,-0.75094 -0.22397,-0.0789 -0.55026,0.005 -0.68169,0.14089 -0.52236,0.53955 -1.61436,0.7821 -2.2712,0.9041 -1.60074,0.29731 -2.87931,0.0278 -4.51635,0.10809 -0.69975,0.0343 -1.51212,0.49526 -2.19161,0.66992 -0.76199,0.19587 -1.81715,0.35052 -2.60382,0.4027 -0.73138,0.0485 -1.328528,0.13955 -1.981088,-0.20132 -0.135327,-0.0707 -0.457186,-0.48727 -1.038747,-0.59847"
         id="path23"
         sodipodi:nodetypes="ccscsscsssssssssssssssssscsc" /><path
         style="fill:#1a1a1a;stroke:none;stroke-width:1.06583"
         d="m 95.540776,132.67035 c -0.703548,-0.15479 -1.509324,-0.15075 -1.755486,-0.95236 -0.07583,-0.24694 -0.0597,-0.55921 0.05379,-0.79373 0.384943,-0.79553 1.462528,-0.0763 2.048883,-0.16706 0.387544,-0.06 0.13161,-0.8863 0.689482,-1.1113 0.149442,-0.0602 0.320071,-0.0917 0.479208,-0.049 0.878906,0.23574 0.254888,1.4738 0.79217,1.40648 0.597125,-0.0748 0.678367,-0.88379 1.222482,-1.08632 0.649258,-0.24166 1.222335,0.52343 1.193145,1.09475 -0.0211,0.41371 -1.188679,0.99286 -1.491433,1.46681 -0.182341,0.28546 0.512711,0.79369 0.0587,1.36593 -0.05604,0.0705 -0.134658,0.17326 -0.229822,0.1943 -0.556369,0.12303 -1.093585,-0.68367 -1.413197,-0.53651 -0.567979,0.26152 -0.355436,0.96845 -0.767719,1.31923 -0.489415,0.4164 -1.50814,-0.3581 -1.447415,-0.93614 0.03251,-0.30953 0.524284,-0.7317 0.533003,-0.80736 0.01563,-0.1355 0.02281,-0.27183 0.03423,-0.40774 z"
         id="path26" /><path
         style="fill:#1a1a1a;stroke:none;stroke-width:1.06583"
         d="m 109.7656,131.28528 c -0.29177,-0.45337 -0.70759,-0.84826 -0.87531,-1.36009 -0.19935,-0.60842 0.57498,-1.18858 1.10024,-1.1658 0.62398,0.0271 0.68777,1.22454 1.33984,1.1246 0.17173,-0.0263 0.41594,-0.99531 0.77262,-1.26148 0.41459,-0.3094 1.62459,-0.5044 1.73103,0.25463 0.11288,0.8049 -1.31476,1.0215 -1.09535,1.6037 0.0742,0.19677 1.35412,0.23588 1.66259,1.06458 0.0808,0.21707 0.0595,0.47966 -0.0831,0.67048 -0.11057,0.14793 -0.29322,0.25822 -0.45965,0.33118 -0.83631,0.36663 -1.20693,-1.29856 -1.92175,-0.64031 -0.56532,0.5206 0.0302,1.73 -0.84106,2.07436 -0.70238,0.27761 -1.96716,-0.39049 -2.04888,-1.16838 -0.0639,-0.60849 0.36793,-1.0935 0.71881,-1.52747 z"
         id="path27" /><path
         style="fill:#b3b3b3;stroke:none;stroke-width:0.889175"
         d="m 77.305137,167.32992 c 5.699983,3.85055 8.73611,7.14021 9.248979,13.93089 0.393329,4.68639 5.287235,13.16006 4.868789,8.61192 -1.082408,-6.26948 0.626833,-7.55591 6.040097,-3.45883 1.071829,2.25753 5.549918,3.53071 4.278928,-0.32105 -1.27735,-5.48706 -13.99924,-3.13722 -9.081533,-10.85445 4.730057,-5.31066 0.999091,-12.09002 -5.41207,-13.09986 -3.384919,-0.58309 -8.266033,1.78558 -9.94319,5.19137 z"
         id="path4"
         sodipodi:nodetypes="cccccccsc" /><path
         style="fill:#f2f2f2;stroke:none;stroke-width:1.06583"
         d="m 80.856552,166.45655 c 2.25626,-1.23059 4.769284,-3.16423 7.442484,-1.97024 0.32473,0.14505 0.682096,0.3927 0.909527,0.66237 0.254101,0.3013 0.634219,0.59292 0.919307,0.89722 0.805967,0.86027 0.863418,2.15749 1.144246,3.23528 0.500189,1.9197 0.514957,3.94853 -0.469434,5.75826 -0.356991,0.65629 -1.117529,2.36224 -2.102673,2.23881 -0.857781,-0.10748 -2.390282,-3.08603 -2.885062,-3.85354 -0.603446,-0.93607 -1.467642,-1.66606 -2.132012,-2.55086 -1.048485,-1.39636 -1.861039,-2.96582 -2.826383,-4.4173 z"
         id="path8" /><path
         style="fill:#1a1a1a;stroke:none;stroke-width:1.06583"
         d="m 82.244063,153.8207 c -0.703549,-0.15479 -1.509324,-0.15074 -1.755487,-0.95236 -0.07583,-0.24694 -0.0597,-0.55921 0.05379,-0.79373 0.384943,-0.79553 1.462528,-0.0763 2.048883,-0.16706 0.387546,-0.06 0.131609,-0.8863 0.689483,-1.1113 0.149442,-0.0602 0.32007,-0.0917 0.479207,-0.049 0.878906,0.23574 0.254888,1.4738 0.79217,1.40648 0.597127,-0.0748 0.678369,-0.88379 1.222484,-1.08632 0.649258,-0.24166 1.222337,0.52343 1.193144,1.09475 -0.02109,0.41371 -1.188677,0.99286 -1.491432,1.46681 -0.182341,0.28546 0.512711,0.79369 0.0587,1.36593 -0.05604,0.0705 -0.134657,0.17326 -0.229822,0.1943 -0.556368,0.12303 -1.093586,-0.68366 -1.413198,-0.53651 -0.56798,0.26152 -0.355437,0.96845 -0.767719,1.31923 -0.489416,0.4164 -1.508141,-0.3581 -1.447417,-0.93614 0.03251,-0.30953 0.524284,-0.7317 0.533004,-0.80736 0.01563,-0.1355 0.02281,-0.27183 0.03423,-0.40774 z"
         id="path20" /></g><path
       d="m 92.653841,238.57397 q 0,1.28663 -0.843923,2.35191 -0.843923,1.05145 -1.964542,1.12062 l -0.650235,0.0415 -0.207522,-0.92694 q -0.830088,1.05145 -2.199734,1.05145 -0.816253,0 -1.411149,-0.47038 -0.581062,-0.48422 -0.581062,-1.2313 0,-2.37959 4.136605,-2.37959 0,-1.75702 -1.660176,-1.75702 -0.913096,0 -1.563332,0.49806 l -0.235192,-0.58107 q 0.816254,-0.60873 1.840029,-0.60873 2.365751,0 2.365751,2.64245 v 2.2274 q 0,0.47039 0.08301,0.85776 0.871593,-0.0415 1.507994,-0.89926 0.6364,-0.85776 0.6364,-1.8677 0,-1.77085 -1.092949,-2.87764 -1.092949,-1.12062 -2.877638,-1.12062 -2.033716,0 -3.348022,1.38348 -1.314306,1.36965 -1.314306,3.44487 0,1.74318 1.148289,2.93298 1.162123,1.20362 2.863803,1.20362 1.438819,0 2.434925,-0.62256 l 0.290531,0.60873 q -1.328141,0.70557 -2.780795,0.70557 -1.992211,0 -3.348021,-1.38348 -1.355811,-1.36964 -1.355811,-3.38952 0,-2.37959 1.563332,-3.97059 1.577168,-1.60484 3.942918,-1.60484 2.019881,0 3.320352,1.31431 1.300472,1.30047 1.300472,3.30652 z m -3.721562,1.36964 v -1.12062 q -3.389526,0.0415 -3.389526,1.5495 0,1.14829 1.272802,1.14829 1.494158,0 2.07522,-1.30047 0.0415,-0.083 0.0415,-0.2767 z m 10.915654,-0.29053 q 0,1.28664 -0.968436,2.03372 -0.954601,0.74708 -2.39342,0.74708 -1.632506,0 -2.725456,-0.76092 l 0.332036,-0.70557 q 1.023775,0.77475 2.476429,0.77475 1.092949,0 1.770854,-0.52573 0.677905,-0.52572 0.677905,-1.49415 0,-0.94077 -0.539557,-1.41115 -0.539557,-0.48422 -1.618671,-0.81626 -2.76696,-0.89926 -2.76696,-2.79463 0,-1.16212 0.885427,-1.84003 0.885427,-0.69174 2.185898,-0.69174 1.38348,0 2.268907,0.52573 -0.02767,0.0553 -0.166017,0.30436 -0.124513,0.23519 -0.179853,0.34587 -0.899262,-0.48422 -1.936872,-0.48422 -0.968436,0 -1.604836,0.45655 -0.622566,0.45655 -0.622566,1.28664 0,1.36964 2.144394,2.11672 0.69174,0.24903 1.106784,0.45655 0.428878,0.19369 0.857757,0.52572 0.428879,0.33204 0.622566,0.81626 0.193687,0.48422 0.193687,1.13445 z m 1.687837,-0.83009 q 0,-1.67401 0.87159,-2.73929 0.88543,-1.06528 2.43493,-1.06528 1.64634,0 2.62861,1.43882 0,-0.74708 0.0415,-1.28663 h 0.76092 q -0.0553,0.45654 -0.0553,1.75702 v 8.78509 h -0.83009 v -4.78684 q -0.92693,1.508 -2.67012,1.508 -1.45265,0 -2.32424,-1.02378 -0.85776,-1.02377 -0.85776,-2.58711 z m 0.83009,-0.0138 q 0,1.3143 0.65023,2.13056 0.65024,0.80242 1.84003,0.80242 1.05145,0 1.78469,-0.73325 0.74708,-0.73324 0.74708,-1.78469 v -1.18979 q 0,-0.99611 -0.71941,-1.66018 -0.70558,-0.66407 -1.72935,-0.66407 -1.30047,0 -1.93687,0.83009 -0.6364,0.83009 -0.6364,2.26891 z m 13.87629,3.40336 -0.77475,0.17985 q -0.24903,-0.70557 -0.33204,-1.38348 -0.92693,1.42499 -2.65628,1.42499 -2.5456,0 -2.5456,-3.29269 v -3.97058 h 0.83008 v 3.8184 q 0,2.75313 1.89537,2.75313 0.98227,0 1.68785,-0.66407 0.70557,-0.67791 0.70557,-1.63251 v -4.27495 h 0.83009 v 5.34023 q 0,0.74708 0.35971,1.70168 z m 2.61475,0.0277 h -0.83009 v -7.06958 h 0.83009 z m -0.44271,-9.87805 q 0.29053,0 0.47038,0.19369 0.19369,0.17985 0.19369,0.47038 0,0.29053 -0.19369,0.47039 -0.17985,0.16601 -0.47038,0.16601 -0.29053,0 -0.47039,-0.16601 -0.16601,-0.17986 -0.16601,-0.47039 0,-0.29053 0.16601,-0.47038 0.17986,-0.19369 0.47039,-0.19369 z m 2.10286,6.25333 q 0,-1.5495 0.85776,-2.57327 0.87159,-1.02378 2.32424,-1.02378 1.75702,0 2.67012,1.49416 v -4.78684 h 0.83009 v 8.7851 q 0,1.24513 0.0553,1.72935 h -0.76092 q -0.0415,-0.53956 -0.0415,-1.24513 -0.98227,1.43882 -2.62861,1.43882 -1.5495,0 -2.43493,-1.06528 -0.87159,-1.07912 -0.87159,-2.75313 z m 3.4172,3.12667 q 1.02377,0 1.72935,-0.66407 0.70557,-0.67791 0.70557,-1.67402 v -1.17595 q 0,-1.06528 -0.73324,-1.78469 -0.71941,-0.73325 -1.78469,-0.73325 -1.20363,0 -1.85387,0.81626 -0.65023,0.81625 -0.65023,2.11672 0,3.099 2.58711,3.099 z m 14.9139,0.49805 h -0.77475 l -0.62257,-8.74359 -3.19584,8.74359 h -0.53956 l -3.20967,-8.74359 -0.62256,8.74359 h -0.77475 l 0.69174,-9.90572 h 0.9546 l 3.22351,8.88194 3.2235,-8.88194 h 0.95461 z m 2.72544,0 h -0.83008 v -7.06958 h 0.83008 z m -0.44271,-9.87805 q 0.29053,0 0.47038,0.19369 0.19369,0.17985 0.19369,0.47038 0,0.29053 -0.19369,0.47039 -0.17985,0.16601 -0.47038,0.16601 -0.29053,0 -0.47038,-0.16601 -0.16602,-0.17986 -0.16602,-0.47039 0,-0.29053 0.16602,-0.47038 0.17985,-0.19369 0.47038,-0.19369 z m 8.54988,9.87805 h -0.83009 v -4.01209 q 0,-2.51794 -2.10289,-2.51794 -0.83008,0 -1.50799,0.70558 -0.6779,0.70557 -0.6779,1.53566 v 4.28879 h -0.83009 v -5.3264 q 0,-0.62257 -0.13835,-1.74318 h 0.77475 q 0.13835,0.42887 0.16602,1.25896 0.80241,-1.41115 2.37958,-1.41115 2.76696,0 2.76696,3.20968 z m 1.66016,-3.62472 q 0,-1.5495 0.85776,-2.57327 0.87159,-1.02378 2.32424,-1.02378 1.75702,0 2.67012,1.49416 v -4.78684 h 0.83009 v 8.7851 q 0,1.24513 0.0553,1.72935 h -0.76092 q -0.0415,-0.53956 -0.0415,-1.24513 -0.98227,1.43882 -2.62861,1.43882 -1.5495,0 -2.43493,-1.06528 -0.87159,-1.07912 -0.87159,-2.75313 z m 3.41719,3.12667 q 1.02378,0 1.72935,-0.66407 0.70558,-0.67791 0.70558,-1.67402 v -1.17595 q 0,-1.06528 -0.73325,-1.78469 -0.7194,-0.73325 -1.78468,-0.73325 -1.20363,0 -1.85387,0.81626 -0.65023,0.81625 -0.65023,2.11672 0,3.099 2.5871,3.099 z"
       id="text1"
       style="font-size:13.8348px;font-family:Laksaman;-inkscape-font-specification:'Laksaman, Normal';fill:#b3b3b3;stroke-width:1.42179;stroke-linecap:round;stroke-linejoin:round"
       transform="scale(1.0061651,0.9938727)"
       aria-label="@SquidMind&#10;" /><path
       style="opacity:1;fill:none;stroke:#f2f2f2;stroke-width:1.51421;stroke-linecap:round;stroke-linejoin:round;stroke-dasharray:none"
       d="m 67.483289,180.13972 c -13.517679,14.89684 -0.788672,86.14719 11.090856,87.77977 6.812408,0.93622 7.243542,-6.92544 7.243542,-6.92544"
       id="path53"
       sodipodi:nodetypes="csc" /><path
       d="m 103.47093,247.23863 h -1.61834 l -0.68603,-9.76278 -3.975474,9.76278 h -1.108208 l -3.975475,-9.76278 -0.686034,9.76278 h -1.600744 l 0.89712,-12.59487 h 1.74147 l 4.186562,10.484 4.168973,-10.484 h 1.75906 z m 3.53569,-7.863 q 0.24627,-0.51012 1.00267,-0.94989 0.77398,-0.43976 1.47761,-0.43976 0.5629,0 0.84435,0.0704 v 1.42484 q -0.21109,-0.0528 -0.59809,-0.0528 -2.51545,0 -2.51545,3.02558 v 4.78464 h -1.67111 v -5.94562 q 0,-2.11087 -0.31663,-3.1839 h 1.47761 q 0.29904,0.49254 0.29904,1.26652 z m 5.99838,5.55863 q 0.52771,0 0.89712,0.36941 0.38699,0.3694 0.38699,0.89712 0,0.52771 -0.38699,0.91471 -0.36941,0.3694 -0.89712,0.3694 -0.52772,0 -0.89712,-0.3694 -0.36941,-0.387 -0.36941,-0.91471 0,-0.52772 0.36941,-0.89712 0.3694,-0.36941 0.89712,-0.36941 z m 12.96424,-10.43122 q 2.11087,0 3.50053,0.91471 1.40724,0.89712 1.40724,2.63859 0,2.16364 -2.07569,3.13113 1.16098,0.77398 1.63593,2.11087 0.47495,1.33688 0.86194,3.94029 h -1.67111 q -0.72121,-5.47067 -3.28944,-5.47067 h -2.11087 v 5.47067 h -1.67111 v -12.38378 q 1.95256,-0.35181 3.41258,-0.35181 z m 3.28944,3.65884 q 0,-2.19882 -3.28944,-2.19882 -0.98508,0 -1.74147,0.0879 v 4.32729 h 2.04051 q 2.9904,0 2.9904,-2.21642 z m 6.29743,9.32302 q -1.35447,0 -2.26919,-0.7388 -0.91471,-0.73881 -0.91471,-1.97015 0,-3.34222 6.01599,-3.43017 -0.26386,-1.98774 -2.18124,-1.98774 -1.46002,0 -3.14871,0.65086 l -0.17591,-1.4952 q 1.79424,-0.52772 3.41258,-0.52772 3.74679,0 3.74679,3.85234 v 2.9904 q 0,1.00266 0.36941,2.32196 l -1.54798,0.33422 -0.26385,-1.17857 q -1.37207,1.17857 -3.04318,1.17857 z m 2.83209,-3.09594 v -1.60075 q -4.32729,0.088 -4.32729,1.82942 0,1.40725 1.56556,1.40725 0.91472,0 1.82943,-0.47495 0.9323,-0.49253 0.9323,-1.16097 z m 9.04153,-6.38539 q 1.81183,0 2.8145,1.14339 1.02025,1.12579 1.02025,3.00799 v 5.08368 h -1.6711 v -5.0485 q 0,-1.19616 -0.65086,-1.97015 -0.65085,-0.79157 -1.75906,-0.79157 -1.03784,0 -1.91737,0.79157 -0.87953,0.77399 -0.87953,1.75906 v 5.25959 h -1.67111 v -13.33367 h 1.67111 v 5.31236 q 1.21375,-1.21375 3.04317,-1.21375 z m 15.44455,9.12952 -1.61834,0.31663 q -0.26386,-0.63326 -0.47495,-1.53038 -1.60074,1.56556 -3.14871,1.56556 -3.72921,0 -3.72921,-4.32729 v -4.90777 h 1.67111 v 4.74946 q 0,2.9904 2.26918,2.9904 0.98508,0 1.89979,-0.73881 0.91471,-0.75639 0.91471,-1.68869 v -5.31236 h 1.67111 v 6.57888 q 0,0.9323 0.54531,2.30437 z m 6.01595,0.31663 q -3.9403,-0.21109 -3.9403,-4.83742 v -8.70734 h 1.67111 v 8.33794 q 0,1.86461 0.51013,2.74414 0.52772,0.86193 1.95255,0.94989 z"
       id="text3"
       style="font-weight:bold;font-size:17.5906px;font-family:Laksaman;-inkscape-font-specification:'Laksaman, Bold';fill:#f9f9f9;stroke-width:1.80777;stroke-linecap:round;stroke-linejoin:round"
       transform="scale(0.94687182,1.0561092)"
       aria-label="Mr. Rahul" /><path
       d="m 83.871846,279.8732 h -0.547799 v -6.53707 h 0.547799 z m 5.368417,0 h -0.547799 v -2.64769 q 0,-1.66166 -1.387757,-1.66166 -0.547799,0 -0.995168,0.46563 -0.447369,0.46563 -0.447369,1.01343 v 2.83029 h -0.547799 v -3.51504 q 0,-0.41085 -0.0913,-1.15038 h 0.511279 q 0.0913,0.28303 0.10956,0.83083 0.529539,-0.93126 1.570357,-0.93126 1.825996,0 1.825996,2.11816 z m 1.095584,-2.39206 q 0,-1.02255 0.566059,-1.69817 0.575188,-0.67562 1.533836,-0.67562 1.159508,0 1.762087,0.98604 v -3.15898 h 0.547798 v 5.79754 q 0,0.8217 0.03652,1.14125 h -0.502149 q -0.02739,-0.35607 -0.02739,-0.8217 -0.648228,0.94952 -1.734696,0.94952 -1.022558,0 -1.606876,-0.70301 -0.575189,-0.71214 -0.575189,-1.81687 z m 2.255105,2.06338 q 0.675619,0 1.141248,-0.43824 0.465629,-0.44737 0.465629,-1.10473 v -0.77604 q 0,-0.70301 -0.483889,-1.17777 -0.474759,-0.48389 -1.177768,-0.48389 -0.794308,0 -1.223417,0.53867 -0.429109,0.53867 -0.429109,1.39688 0,2.04512 1.707306,2.04512 z m 7.742208,0.31042 -0.511275,0.11869 q -0.16434,-0.46563 -0.21912,-0.913 -0.611709,0.94039 -1.752956,0.94039 -1.679916,0 -1.679916,-2.17294 v -2.6203 h 0.547798 v 2.51987 q 0,1.81687 1.250808,1.81687 0.648228,0 1.113857,-0.43824 0.465629,-0.44737 0.465629,-1.07734 v -2.82116 h 0.547795 v 3.52417 q 0,0.49302 0.23738,1.12299 z m 2.49247,-4.29109 q -0.38345,0 -0.63909,0.21912 -0.25564,0.20999 -0.25564,0.55693 0,0.25564 0.26477,0.50215 0.2739,0.24651 0.76691,0.41998 1.25081,0.4291 1.25081,1.37862 0,0.6391 -0.48389,1.0043 -0.47476,0.35607 -1.20515,0.35607 -0.67562,0 -1.31472,-0.37433 l 0.20086,-0.43824 q 0.65736,0.35607 1.15951,0.35607 1.09559,0 1.09559,-0.86735 0,-0.31955 -0.26477,-0.57519 -0.25564,-0.26477 -0.76691,-0.41998 -1.25081,-0.38345 -1.25081,-1.26906 0,-0.59345 0.43824,-0.94952 0.44737,-0.35607 1.10472,-0.35607 0.72127,0 1.15038,0.31955 l -0.21912,0.46563 q -0.41085,-0.32868 -1.03169,-0.32868 z m 4.06284,4.43717 q -0.56606,0 -0.8856,-0.41998 -0.31042,-0.42911 -0.31042,-1.07734 v -2.88507 h -0.93126 v -0.41085 h 0.93126 v -1.38776 l 0.54779,-0.24651 v 1.63427 h 1.48819 v 0.41085 h -1.48819 v 2.88507 q 0,1.04082 0.69388,1.04082 0.42911,0 0.62997,-0.0822 l 0.0548,0.41085 q -0.28303,0.12782 -0.7304,0.12782 z m 3.90762,-4.41891 q -0.0548,-0.0183 -0.16434,-0.0183 -0.60258,0 -1.02256,0.49302 -0.41084,0.48389 -0.41084,1.30558 v 2.51075 h -0.5478 v -3.14071 q 0,-1.03169 -0.13695,-1.52471 h 0.46563 q 0.14608,0.29216 0.14608,0.93126 0.43823,-1.03169 1.40601,-1.03169 0.12782,0 0.26477,0.0274 z m 1.36948,4.29109 h -0.5478 v -4.66542 h 0.5478 z m -0.29216,-6.51881 q 0.19173,0 0.31042,0.12782 0.12782,0.11869 0.12782,0.31042 0,0.19173 -0.12782,0.31042 -0.11869,0.10956 -0.31042,0.10956 -0.19173,0 -0.31042,-0.10956 -0.10956,-0.11869 -0.10956,-0.31042 0,-0.19173 0.10956,-0.31042 0.11869,-0.12782 0.31042,-0.12782 z m 2.84854,6.64663 q -0.62084,0 -1.05908,-0.35607 -0.42911,-0.3652 -0.42911,-0.94039 0,-1.74382 3.1042,-1.74382 0,-0.66649 -0.31955,-1.03169 -0.31955,-0.3652 -0.94039,-0.3652 -0.50215,0 -1.48819,0.31042 l -0.0639,-0.52041 q 0.76692,-0.24651 1.58862,-0.24651 1.77122,0 1.77122,1.95382 v 1.67078 q 0,0.57519 0.16434,1.14125 l -0.47476,0.10043 -0.19173,-0.75779 q -0.62997,0.78518 -1.66166,0.78518 z m -0.94039,-1.38776 q 0,0.42911 0.26477,0.68475 0.26477,0.24651 0.69388,0.24651 0.5478,0 1.06821,-0.33781 0.52954,-0.34694 0.52954,-0.83996 v -0.94952 q -2.5564,0 -2.5564,1.19603 z m 6.31793,0.93126 -0.0548,0.4565 q -1.73469,-0.0822 -1.73469,-2.47423 v -4.59238 h 0.54779 v 4.40065 q 0,0.52041 0.0456,0.87648 0.0457,0.35607 0.16434,0.68475 0.12782,0.32868 0.38346,0.49302 0.25564,0.15521 0.64823,0.15521 z m 8.71912,-3.0768 q 0,1.74382 -0.78518,2.63856 -0.77604,0.89474 -2.31901,0.89474 -0.35607,0 -1.67992,-0.12782 v -6.47316 q 1.33298,-0.17347 1.95382,-0.17347 1.30559,0 2.06337,0.92213 0.76692,0.913 0.76692,2.31902 z m -2.93985,3.0768 q 1.16864,0 1.78035,-0.85822 0.6117,-0.86735 0.6117,-2.21858 0,-1.21429 -0.62083,-1.99947 -0.61171,-0.78518 -1.70731,-0.78518 -0.41998,0 -1.36037,0.10956 v 5.66972 q 0.68475,0.0822 1.29646,0.0822 z m 4.25456,-1.96295 q 0.0274,0.88561 0.52954,1.42428 0.51127,0.53867 1.36036,0.53867 0.79431,0 1.63427,-0.32868 l 0.0456,0.44737 q -0.81257,0.33781 -1.7347,0.33781 -1.04994,0 -1.71643,-0.64823 -0.66649,-0.65736 -0.66649,-1.68905 0,-1.10472 0.6391,-1.82599 0.64823,-0.7304 1.68904,-0.7304 1.96295,0 2.0086,2.47422 z m 3.24114,-0.45649 q -0.0183,-0.71214 -0.43824,-1.13212 -0.41085,-0.42911 -1.08647,-0.42911 -0.67562,0 -1.13211,0.44737 -0.4565,0.43824 -0.55693,1.11386 z m 2.98549,-1.56123 q -0.38346,0 -0.6391,0.21912 -0.25564,0.20999 -0.25564,0.55693 0,0.25564 0.26477,0.50215 0.2739,0.24651 0.76692,0.41998 1.25081,0.4291 1.25081,1.37862 0,0.6391 -0.48389,1.0043 -0.47476,0.35607 -1.20516,0.35607 -0.67562,0 -1.31472,-0.37433 l 0.20086,-0.43824 q 0.65736,0.35607 1.15951,0.35607 1.0956,0 1.0956,-0.86735 0,-0.31955 -0.26477,-0.57519 -0.25564,-0.26477 -0.76692,-0.41998 -1.25081,-0.38345 -1.25081,-1.26906 0,-0.59345 0.43824,-0.94952 0.44737,-0.35607 1.10473,-0.35607 0.72127,0 1.15038,0.31955 l -0.21912,0.46563 q -0.41085,-0.32868 -1.03169,-0.32868 z m 3.10419,4.30935 h -0.5478 v -4.66542 h 0.5478 z m -0.29216,-6.51881 q 0.19173,0 0.31042,0.12782 0.12782,0.11869 0.12782,0.31042 0,0.19173 -0.12782,0.31042 -0.11869,0.10956 -0.31042,0.10956 -0.19173,0 -0.31042,-0.10956 -0.10956,-0.11869 -0.10956,-0.31042 0,-0.19173 0.10956,-0.31042 0.11869,-0.12782 0.31042,-0.12782 z m 3.12244,8.23525 q 0.46563,0 0.77605,-0.22825 0.31042,-0.21912 0.31042,-0.62084 0,-0.32868 -0.24651,-0.56606 -0.23738,-0.22825 -0.77605,-0.40172 -0.31955,-0.10043 -0.51128,-0.17347 -0.1826,-0.073 -0.41085,-0.20086 -0.21912,-0.12782 -0.32868,-0.30129 -0.10956,-0.1826 -0.10956,-0.41085 0,-0.24651 0.14608,-0.70301 -0.47476,-0.55693 -0.47476,-1.12298 0,-0.70301 0.44737,-1.17777 0.4565,-0.47476 1.12299,-0.47476 h 1.826 v 0.48389 l -0.62997,-0.0639 q 0.52041,0.52954 0.52041,1.13212 0,0.73952 -0.46563,1.21428 -0.46563,0.46563 -1.1869,0.46563 -0.41085,0 -0.68475,-0.13695 -0.073,0.1826 -0.073,0.38346 0,0.3652 1.05908,0.66649 1.32385,0.37433 1.32385,1.35124 0,0.64823 -0.46563,0.99517 -0.4565,0.34693 -1.21429,0.34693 -0.73953,0 -1.33298,-0.36519 l 0.19173,-0.43824 q 0.59345,0.34694 1.1869,0.34694 z m 0,-3.60635 q 0.47476,0 0.79431,-0.31955 0.31955,-0.32868 0.31955,-0.83082 0,-0.47476 -0.33781,-0.8217 -0.32868,-0.34694 -0.77605,-0.34694 -0.46563,0 -0.77605,0.34694 -0.30129,0.34694 -0.30129,0.83083 0,0.47476 0.31955,0.81256 0.31955,0.32868 0.75779,0.32868 z m 6.78357,1.88991 h -0.5478 v -2.64769 q 0,-1.66166 -1.38776,-1.66166 -0.5478,0 -0.99517,0.46563 -0.44737,0.46563 -0.44737,1.01343 v 2.83029 h -0.54779 v -3.51504 q 0,-0.41085 -0.0913,-1.15038 h 0.51127 q 0.0913,0.28303 0.10956,0.83083 0.52954,-0.93126 1.57036,-0.93126 1.826,0 1.826,2.11816 z m 1.63425,-2.29163 q 0.0274,0.88561 0.52953,1.42428 0.51128,0.53867 1.36037,0.53867 0.79431,0 1.63427,-0.32868 l 0.0456,0.44737 q -0.81257,0.33781 -1.7347,0.33781 -1.04995,0 -1.71643,-0.64823 -0.66649,-0.65736 -0.66649,-1.68905 0,-1.10472 0.6391,-1.82599 0.64822,-0.7304 1.68904,-0.7304 1.96295,0 2.0086,2.47422 z m 3.24114,-0.45649 q -0.0183,-0.71214 -0.43824,-1.13212 -0.41085,-0.42911 -1.08647,-0.42911 -0.67562,0 -1.13212,0.44737 -0.45649,0.43824 -0.55692,1.11386 z m 3.82545,-1.54297 q -0.0548,-0.0183 -0.16434,-0.0183 -0.60258,0 -1.02256,0.49302 -0.41085,0.48389 -0.41085,1.30558 v 2.51075 h -0.5478 v -3.14071 q 0,-1.03169 -0.13695,-1.52471 h 0.46563 q 0.14608,0.29216 0.14608,0.93126 0.43824,-1.03169 1.40602,-1.03169 0.12782,0 0.26477,0.0274 z"
       id="text4"
       style="font-size:9.12998px;font-family:Laksaman;-inkscape-font-specification:'Laksaman, Normal';fill:#f9f9f9;stroke-width:0.938284;stroke-linecap:round;stroke-linejoin:round"
       transform="scale(1.0200133,0.98037936)"
       aria-label="Industrial Designer" /><path
       style="opacity:1;fill:none;stroke:#b3b3b3;stroke-width:0.844021;stroke-linecap:round;stroke-linejoin:round;stroke-dasharray:none"
       d="m 100.77219,184.95582 c 0,0 11.58021,17.43781 6.87876,34.95579 -2.70281,10.07091 11.13962,-0.15787 16.88218,3.02383 2.95422,1.63681 3.03523,7.52128 3.03523,7.52128"
       id="path54"
       sodipodi:nodetypes="cssc" /><path
       style="display:inline;opacity:1;fill:none;stroke:#f2f2f2;stroke-width:0.455877;stroke-linecap:round;stroke-linejoin:round;stroke-dasharray:none"
       d="m 107.91679,259.85639 c 0,0 7.20296,-1.01344 5.44579,2.15032 -1.12301,2.02196 -2.49793,2.47398 -1.04171,4.33699 0.86585,1.10773 1.86668,2.09239 1.86668,2.09239"
       id="path55"
       sodipodi:nodetypes="cssc" /></g></svg>
