<?xml version="1.0" encoding="UTF-8" standalone="no"?>
<!-- Created with Inkscape (http://www.inkscape.org/) -->

<svg
   width="48"
   height="48"
   viewBox="0 0 12.7 12.7"
   version="1.1"
   id="svg1"
   xml:space="preserve"
   inkscape:version="1.3.2 (1:1.3.2+202311252150+091e20ef0f)"
   sodipodi:docname="appicon.svg"
   xmlns:inkscape="http://www.inkscape.org/namespaces/inkscape"
   xmlns:sodipodi="http://sodipodi.sourceforge.net/DTD/sodipodi-0.dtd"
   xmlns="http://www.w3.org/2000/svg"
   xmlns:svg="http://www.w3.org/2000/svg"><sodipodi:namedview
     id="namedview1"
     pagecolor="#505050"
     bordercolor="#eeeeee"
     borderopacity="1"
     inkscape:showpageshadow="0"
     inkscape:pageopacity="0"
     inkscape:pagecheckerboard="0"
     inkscape:deskcolor="#505050"
     inkscape:document-units="mm"
     inkscape:zoom="8.2243423"
     inkscape:cx="13.37493"
     inkscape:cy="9.4840411"
     inkscape:window-width="1856"
     inkscape:window-height="1016"
     inkscape:window-x="0"
     inkscape:window-y="0"
     inkscape:window-maximized="1"
     inkscape:current-layer="layer1" /><defs
     id="defs1" /><g
     inkscape:label="Layer 1"
     inkscape:groupmode="layer"
     id="layer1"
     transform="translate(-49.193692,-98.211401)"><path
       style="fill:#333333;stroke-width:0.0815692"
       d="m 49.569952,108.91381 c -0.02374,-0.013 -0.0553,-0.0388 -0.07014,-0.0575 -0.02135,-0.0268 -0.02698,-0.8145 -0.02698,-3.77512 v -3.7413 l 0.05297,-0.053 0.05297,-0.053 H 50.646886 51.715 l 0.0066,-0.4767 0.0066,-0.47671 0.06056,-0.052 0.06055,-0.052 h 4.801827 4.801827 l 0.06106,0.0316 c 0.03358,0.0173 0.06709,0.0472 0.07447,0.0665 0.0074,0.0192 0.0134,1.71473 0.0134,3.76781 v 3.73287 l -0.05297,0.053 -0.05297,0.053 h -1.06818 -1.068113 l -0.0066,0.47671 -0.0066,0.4767 -0.06056,0.052 -0.06055,0.052 -4.806151,-5.7e-4 c -3.437343,-4.9e-4 -4.818443,-0.007 -4.849313,-0.0243 z m 9.377306,-0.70886 v -0.32372 H 55.388175 51.82909 l -0.05587,-0.0664 -0.05587,-0.0664 v -1.98387 -1.98388 h -0.928018 -0.92802 v 2.37401 2.374 h 4.542977 4.542977 z m 2.260763,-4.17069 0.0054,-3.4477 h -4.543045 -4.543043 v 0.86309 0.86308 l 3.616827,0.005 3.616828,0.005 0.05209,0.0606 c 0.07449,0.0866 0.07018,0.19444 -0.011,0.27562 l -0.06309,0.0631 h -3.605827 -3.605826 v 2.38485 2.38484 l 4.53758,-0.005 4.537581,-0.005 z m -6.753165,2.894 c -0.03844,-0.0138 -0.273035,-0.29147 -0.7122,-0.84323 -0.360176,-0.45251 -0.671797,-0.84775 -0.692491,-0.87833 -0.02069,-0.0306 -0.03757,-0.0896 -0.03749,-0.13111 l 1.22e-4,-0.0755 0.658313,-0.8309 c 0.362072,-0.457 0.687451,-0.85761 0.723066,-0.89024 0.0826,-0.0757 0.169409,-0.0769 0.256651,-0.003 0.05298,0.0446 0.06641,0.0727 0.06641,0.13899 0,0.0967 0.02083,0.0678 -0.738229,1.02192 l -0.513042,0.64487 0.103921,0.13208 c 0.05715,0.0727 0.338691,0.42763 0.625636,0.78888 l 0.521716,0.65681 v 0.0811 c 0,0.14212 -0.130047,0.23536 -0.262363,0.18812 z m 2.470805,-0.006 c -0.136749,-0.0605 -0.153217,-0.19623 -0.04154,-0.34253 0.0404,-0.053 0.315264,-0.40086 0.610807,-0.7732 0.295543,-0.37234 0.54473,-0.68915 0.553749,-0.70404 0.01051,-0.0173 -0.08296,-0.15211 -0.260101,-0.37504 -0.152077,-0.19138 -0.43432,-0.54688 -0.627207,-0.79001 l -0.350705,-0.44204 v -0.0748 c 0,-0.14764 0.166463,-0.24549 0.294737,-0.17326 0.0256,0.0144 0.142985,0.14762 0.260853,0.29599 0.960156,1.20867 1.150729,1.45465 1.162125,1.50006 0.0072,0.0286 -0.0011,0.0802 -0.01853,0.11501 -0.03163,0.0634 -1.32585,1.70157 -1.379487,1.74608 -0.0502,0.0417 -0.134211,0.0489 -0.204695,0.0178 z m -4.057389,-5.35141 c -0.04802,-0.0413 -0.06007,-0.0699 -0.06007,-0.14257 0,-0.0727 0.01205,-0.10127 0.06007,-0.14258 l 0.06006,-0.0516 0.414247,6.8e-4 c 0.433296,7.5e-4 0.457269,0.005 0.507839,0.10043 0.03987,0.0749 0.02951,0.14935 -0.03077,0.22098 l -0.05587,0.0664 H 53.346054 52.92833 Z m 1.553891,0 c -0.08036,-0.0691 -0.08421,-0.20077 -0.0082,-0.28164 l 0.05184,-0.0552 h 0.326993 0.326996 l 0.05183,0.0552 c 0.07598,0.0808 0.07213,0.21251 -0.0082,0.28164 l -0.06006,0.0516 h -0.31053 -0.31053 z m 1.487698,0.0187 c -0.05845,-0.0409 -0.09642,-0.16827 -0.07051,-0.23642 0.01044,-0.0274 0.04119,-0.0655 0.06831,-0.0845 l 0.04932,-0.0345 h 0.964463 0.964462 l 0.05587,0.0664 c 0.07568,0.0899 0.07322,0.17855 -0.0072,0.25898 l -0.06309,0.0631 h -0.957249 -0.95725 z m -4.192517,1.45861 v -0.32254 l -0.465954,-0.006 -0.465954,-0.006 -0.0415,-0.0513 c -0.05893,-0.0728 -0.07171,-0.14421 -0.03967,-0.22156 0.04612,-0.11135 0.116632,-0.12641 0.591534,-0.12641 h 0.421539 v -0.34555 -0.34553 l -0.922624,0.005 -0.922624,0.005 -0.0056,0.86867 -0.0056,0.86867 h 0.928264 0.928264 z"
       id="path2" /></g></svg>
