<?xml version="1.0" encoding="UTF-8" standalone="no"?>
<!-- Created with Inkscape (http://www.inkscape.org/) -->

<svg
   width="421.56073mm"
   height="132.0506mm"
   viewBox="0 0 421.56073 132.0506"
   version="1.1"
   id="svg1"
   inkscape:version="1.3.2 (1:1.3.2+202311252150+091e20ef0f)"
   sodipodi:docname="bannertext.svg"
   xml:space="preserve"
   xmlns:inkscape="http://www.inkscape.org/namespaces/inkscape"
   xmlns:sodipodi="http://sodipodi.sourceforge.net/DTD/sodipodi-0.dtd"
   xmlns="http://www.w3.org/2000/svg"
   xmlns:svg="http://www.w3.org/2000/svg"><sodipodi:namedview
     id="namedview1"
     pagecolor="#1a1a1a"
     bordercolor="#eeeeee"
     borderopacity="1"
     inkscape:showpageshadow="0"
     inkscape:pageopacity="0"
     inkscape:pagecheckerboard="0"
     inkscape:deskcolor="#505050"
     inkscape:document-units="mm"
     showguides="true"
     inkscape:zoom="0.5140214"
     inkscape:cx="750.94149"
     inkscape:cy="457.17941"
     inkscape:window-width="1856"
     inkscape:window-height="1016"
     inkscape:window-x="0"
     inkscape:window-y="0"
     inkscape:window-maximized="1"
     inkscape:current-layer="text2"><sodipodi:guide
       position="-9.284265,142.81202"
       orientation="1,0"
       id="guide2"
       inkscape:locked="false" /></sodipodi:namedview><defs
     id="defs1" /><g
     inkscape:label="Layer 1"
     inkscape:groupmode="layer"
     id="layer1"
     transform="translate(-157.42035,-67.422732)"><path
       id="rect2"
       style="opacity:0.17;fill:#f9f9f9;stroke-width:1.27424;stroke-linecap:round;stroke-linejoin:round"
       d="m 168.01211,149.45206 h 400.3772 c 5.86784,0 10.59177,4.72392 10.59177,10.59176 v 28.83774 c 0,5.86784 -4.72393,10.59176 -10.59177,10.59176 h -400.3772 c -5.86783,0 -10.59176,-4.72392 -10.59176,-10.59176 v -28.83774 c 0,-5.86784 4.72393,-10.59176 10.59176,-10.59176 z" /><path
       style="opacity:0.25;fill:#f9f9f9;stroke-width:0.575411"
       d="m 536.34101,147.07292 c -5.52683,0.43117 -10.88035,-0.83923 -15.49234,-3.67632 -2.36061,-1.45216 -3.3279,-2.31005 -8.24996,-7.31688 -3.11612,-3.16977 -6.53881,-6.93251 -13.20664,-14.51874 -4.95022,-5.63204 -9.13159,-10.50403 -9.29188,-10.82665 -0.39171,-0.7883 -0.40523,-1.93816 -0.0333,-2.82054 0.79514,-1.88584 3.45571,-2.70488 5.1522,-1.58606 0.27492,0.18132 2.81914,2.75127 5.65379,5.71101 3.10606,3.24312 5.33824,5.4573 5.61783,5.57253 1.43893,0.59302 2.98684,-0.61943 2.82465,-2.21246 -0.0548,-0.53864 -0.33153,-0.96083 -2.2427,-3.42188 -1.19909,-1.54411 -4.77761,-6.14811 -7.95227,-10.23116 -5.62691,-7.236955 -5.77791,-7.447727 -6.00263,-8.379212 -0.26595,-1.102487 -0.17691,-1.829571 0.34241,-2.795027 0.71152,-1.32267 2.30183,-2.152887 3.94456,-2.059242 1.50663,0.08588 1.71887,0.289139 10.92007,10.458014 4.68793,5.180947 8.72033,9.527847 8.96088,9.659757 1.38541,0.75966 3.05864,-0.20209 3.10648,-1.78558 0.0196,-0.64681 -0.69664,-1.83104 -12.53774,-20.731871 -3.57281,-5.702936 -4.01488,-6.472779 -4.24522,-7.392786 -0.31195,-1.245756 -0.15178,-2.041806 0.62944,-3.129469 1.44491,-2.011674 4.56791,-2.210782 6.15024,-0.392118 0.21866,0.251323 3.55463,4.816856 7.41326,10.145636 3.85865,5.328776 7.76804,10.726208 8.68757,11.994281 1.70904,2.356895 2.25263,2.904347 3.08702,3.108917 0.77504,0.19003 1.20373,-3e-4 1.71871,-0.763055 0.38228,-0.56617 0.4552,-0.82605 0.38483,-1.37131 -0.0531,-0.41201 -1.98857,-5.496522 -4.99347,-13.118393 -2.69865,-6.845106 -4.95254,-12.642301 -5.00861,-12.882675 -0.14775,-0.632243 0.12199,-1.795906 0.60106,-2.595095 0.95599,-1.594713 2.83603,-2.529792 4.50787,-2.242082 0.95728,0.164737 2.18564,0.922283 2.61301,1.611458 0.14645,0.236131 3.14276,6.461495 6.65853,13.834133 4.56542,9.5738 6.88318,14.601582 8.10991,17.592429 1.96134,4.78184 2.14589,5.15215 2.66983,5.35692 0.48429,0.18926 1.2161,0.0218 1.5573,-0.35638 0.14499,-0.16071 1.27397,-4.25123 2.50885,-9.090048 1.23489,-4.8388 2.37373,-9.072493 2.5308,-9.408214 0.67994,-1.453308 2.30467,-2.549215 3.89684,-2.628466 1.78733,-0.08896 2.90764,0.532856 3.87711,2.151992 0.63294,1.057051 0.88553,1.990649 0.82679,3.055594 -0.33971,6.15673 -0.79611,23.472072 -0.72963,27.680742 0.0939,5.94376 0.0337,7.04535 -0.52262,9.56382 -0.68101,3.08278 -1.75581,5.65382 -3.40517,8.14541 -3.77405,5.70119 -9.21387,9.27494 -17.15646,11.27105 -1.63524,0.41095 -3.38182,0.7791 -3.8813,0.81804 z m -33.42267,-1.85887 c -3.3086,-0.51768 -5.85684,-1.42904 -8.55305,-3.05894 -3.66891,-2.21787 -6.15291,-4.97621 -8.10382,-8.99877 -0.86423,-1.78196 -1.88101,-6.19113 -1.92954,-8.36777 -0.0421,-1.8893 0.002,-2.10847 0.50864,-2.53808 0.59321,-0.50277 1.21015,-0.57744 1.86918,-0.22624 0.69485,0.37027 0.81249,0.73411 0.9397,2.90625 0.22565,3.85291 1.88684,7.94223 4.4062,10.84675 2.91594,3.36172 7.5211,5.80722 11.98144,6.36259 0.93457,0.11651 1.49638,0.51593 1.65604,1.17783 0.16157,0.66961 0.0298,1.20011 -0.39899,1.60711 -0.50475,0.47906 -0.87484,0.52413 -2.3758,0.28927 z m 0.17381,-8.4109 c -1.74688,-0.44064 -2.8279,-0.89871 -4.21998,-1.78819 -2.73927,-1.75028 -4.58706,-4.17558 -5.55771,-7.29479 -0.42096,-1.35277 -0.68431,-3.32333 -0.54041,-4.04378 0.18588,-0.9306 1.57738,-1.47074 2.40064,-0.93184 0.5387,0.35265 0.71187,0.76311 0.89431,2.12009 0.60361,4.48897 3.5369,7.70501 8.1318,8.91565 1.33215,0.35099 1.71085,0.63927 1.9068,1.45149 0.0759,0.31438 -0.008,0.63405 -0.2786,1.06738 -0.52414,0.83808 -1.03758,0.93261 -2.73685,0.50399 z m 72.73923,-43.215061 c -0.70985,-0.430711 -0.80233,-0.864874 -0.61192,-2.872991 0.0842,-0.887143 0.13805,-2.168574 0.11982,-2.847641 -0.0415,-1.543393 -0.81773,-4.95125 -1.46103,-6.413724 -2.04324,-4.645019 -6.10056,-8.390253 -10.97398,-10.129874 -0.80657,-0.287918 -1.6483,-0.61982 -1.87049,-0.737562 -0.91526,-0.485005 -0.96665,-1.829607 -0.0963,-2.520357 0.6373,-0.505803 1.27324,-0.437195 3.57258,0.385473 2.40567,0.860701 5.62933,2.785444 7.41295,4.426023 5.18724,4.771195 7.55517,11.607327 6.48666,18.726641 -0.23542,1.568727 -0.48465,1.947982 -1.42462,2.167976 -0.47931,0.112213 -0.73195,0.07189 -1.15364,-0.183964 z m -7.81903,-1.815346 c -0.47504,-0.130913 -0.9342,-0.588323 -1.05324,-1.049239 -0.0463,-0.180401 -0.0609,-0.875822 -0.0321,-1.545537 0.0672,-1.55407 -0.46213,-3.881718 -1.18242,-5.199408 -0.90199,-1.650071 -1.97277,-2.749581 -3.69715,-3.796353 -0.8649,-0.525032 -1.91713,-1.117397 -2.33834,-1.316365 -0.98571,-0.465666 -1.27924,-1.073084 -0.94278,-1.951024 0.332,-0.866222 1.05163,-1.205516 2.02693,-0.955649 2.82338,0.723322 6.10394,3.334935 7.70949,6.137445 1.50996,2.635675 2.23092,7.723083 1.29046,9.106285 -0.33945,0.499272 -1.12496,0.750614 -1.78093,0.569801 z"
       id="path16"
       sodipodi:nodetypes="sssssssssssssssssssssssssssscssssssssssssssssssssssssssssssssssssssssssssssssssssscsssssssss" /><path
       style="font-weight:bold;font-size:25.5667px;font-family:Laksaman;-inkscape-font-specification:'Laksaman, Bold';opacity:0.98;fill:#f9f9f9;stroke-width:0.855281;stroke-linecap:round;stroke-linejoin:round"
       d="m 179.00061,166.50867 h -2.42884 v -18.30576 h 2.42884 z m 16.20923,0.35793 q -1.96864,0 -3.29811,-1.0738 -1.32947,-1.0738 -1.32947,-2.86347 0,-4.85767 8.74381,-4.98551 -0.3835,-2.88903 -3.17027,-2.88903 -2.12203,0 -4.57644,0.94596 l -0.25566,-2.17317 q 2.6078,-0.767 4.95994,-0.767 5.4457,0 5.4457,5.59911 v 4.34634 q 0,1.4573 0.5369,3.3748 l -2.24987,0.48577 -0.3835,-1.71297 q -1.9942,1.71297 -4.42303,1.71297 z m 4.11623,-4.49974 v -2.32657 q -6.2894,0.12784 -6.2894,2.65894 0,2.04533 2.27543,2.04533 1.32947,0 2.65894,-0.6903 1.35503,-0.71586 1.35503,-1.6874 z m 21.70609,-9.30628 q 2.3777,0 3.78387,1.78967 1.40617,1.7641 1.40617,4.39747 v 7.26095 h -2.40327 v -7.23538 q 0,-1.7641 -0.86927,-2.96574 -0.86927,-1.2272 -2.3777,-1.2272 -1.25277,0 -2.35214,0.9971 -1.09937,0.97154 -1.09937,2.17317 v 8.25805 h -2.42884 v -7.87455 q 0,-3.55377 -2.96573,-3.55377 -1.27834,0 -2.47997,1.17607 -1.20164,1.17607 -1.20164,2.4544 v 7.79785 h -2.42883 v -9.61308 q 0,-2.40327 -0.3068,-3.50264 h 2.27543 q 0.25567,0.6136 0.25567,1.50844 0.51133,-0.71587 1.7641,-1.27834 1.25277,-0.56247 2.42884,-0.56247 2.50553,0 4.09067,2.14761 2.04534,-2.14761 4.90881,-2.14761 z m 36.7393,13.44809 h -2.35214 l -0.9971,-14.18952 -5.77808,14.18952 h -1.6107 l -5.77807,-14.18952 -0.9971,14.18952 h -2.32657 l 1.3039,-18.30576 h 2.5311 l 6.08488,15.23775 6.0593,-15.23775 h 2.55667 z m 6.72401,0.35793 q -1.96864,0 -3.2981,-1.0738 -1.32947,-1.0738 -1.32947,-2.86347 0,-4.85767 8.74381,-4.98551 -0.3835,-2.88903 -3.17027,-2.88903 -2.12204,0 -4.57644,0.94596 l -0.25567,-2.17317 q 2.60781,-0.767 4.95994,-0.767 5.44571,0 5.44571,5.59911 v 4.34634 q 0,1.4573 0.5369,3.3748 l -2.24987,0.48577 -0.3835,-1.71297 q -1.9942,1.71297 -4.42304,1.71297 z m 4.11624,-4.49974 v -2.32657 q -6.28941,0.12784 -6.28941,2.65894 0,2.04533 2.27544,2.04533 1.32947,0 2.65893,-0.6903 1.35504,-0.71586 1.35504,-1.6874 z m 18.15231,3.91171 -2.50554,0.6136 -6.00817,-6.69848 -0.9204,0.767 v 5.54798 h -2.42884 v -19.37956 h 2.42884 v 11.04481 l 5.85477,-5.01107 2.63337,0.4602 -5.88034,5.19004 z m 2.65893,-5.93148 q 0.1534,2.01977 1.4573,3.19584 1.32947,1.1505 3.47707,1.1505 2.1476,0 4.90881,-0.9971 l 0.28123,2.12204 q -2.8379,1.04823 -5.34344,1.04823 -3.06801,0 -5.11334,-1.86637 -2.04534,-1.86637 -2.04534,-4.8321 0,-3.19584 1.91751,-5.21561 1.94306,-2.01977 5.08777,-2.01977 5.90591,0 6.03374,7.41434 z m 8.28361,-2.01977 q -0.20454,-1.50843 -1.25277,-2.4544 -1.02267,-0.94597 -2.63337,-0.94597 -1.58514,0 -2.78677,0.9971 -1.17607,0.97154 -1.4573,2.40327 z m 7.41432,-3.24697 q 0.35794,-0.74143 1.45731,-1.3806 1.12493,-0.63917 2.1476,-0.63917 0.81813,0 1.2272,0.10227 v 2.0709 q -0.3068,-0.0767 -0.86927,-0.0767 -3.65604,0 -3.65604,4.39747 v 6.95415 h -2.42883 v -8.64155 q 0,-3.068 -0.4602,-4.62757 h 2.1476 q 0.43463,0.71587 0.43463,1.8408 z m 22.65205,-7.49104 q 1.8408,0 3.068,1.12493 1.25277,1.12494 1.25277,2.91461 0,3.04243 -4.39747,5.0622 1.73853,1.91751 4.88324,4.95994 1.9175,-2.47997 2.17317,-5.369 h 2.01977 q -0.5369,4.16737 -2.55667,6.80074 2.04533,1.89193 3.2214,2.88904 l -2.0709,1.0738 -2.63337,-2.37771 q -3.04244,2.19874 -6.13601,2.19874 -2.47997,0 -4.26964,-1.58513 -1.7641,-1.58514 -1.7641,-3.93728 0,-3.42593 3.65604,-5.42014 -1.43174,-1.86637 -1.43174,-3.57933 0,-2.04534 1.43174,-3.40038 1.4573,-1.35503 3.55377,-1.35503 z m -0.10227,1.96863 q -1.12493,0 -1.8408,0.76701 -0.6903,0.74143 -0.6903,1.86637 0,1.1505 1.40617,2.86347 3.32367,-1.63627 3.32367,-3.32368 0,-2.17317 -2.19874,-2.17317 z m -4.70427,11.63285 q 0,1.58514 1.12493,2.58224 1.15051,0.9971 2.81234,0.9971 2.5311,0 4.29521,-1.534 l -5.57354,-5.67581 q -2.65894,1.50844 -2.65894,3.63047 z m 25.0553,-8.36031 q 0,-2.24987 1.78967,-3.6049 1.81524,-1.3806 4.37191,-1.3806 2.7612,0 4.72984,1.25276 l -1.04824,1.91751 q -1.94307,-0.97154 -3.73273,-0.97154 -1.48287,0 -2.58224,0.6903 -1.09937,0.6903 -1.09937,1.89194 0,2.12204 3.68161,3.2981 2.65893,0.8437 4.0651,2.09647 1.40617,1.2272 1.40617,3.47707 0,2.42884 -1.96864,3.91171 -1.94307,1.4573 -4.6787,1.4573 -3.01687,0 -5.65024,-1.66183 l 1.02266,-2.19874 q 2.19874,1.66183 4.78098,1.66183 1.7641,0 2.88903,-0.767 1.15051,-0.79256 1.15051,-2.27543 0,-2.32657 -3.70718,-3.50264 -5.42014,-1.73854 -5.42014,-5.29231 z m 15.87692,10.32895 q 0.767,0 1.30391,0.5369 0.56246,0.5369 0.56246,1.3039 0,0.767 -0.56246,1.32947 -0.53691,0.5369 -1.30391,0.5369 -0.767,0 -1.3039,-0.5369 -0.5369,-0.56247 -0.5369,-1.32947 0,-0.767 0.5369,-1.3039 0.5369,-0.5369 1.3039,-0.5369 z m 12.6555,3.34924 h -2.42883 v -16.23486 h -6.77518 v -2.0709 h 15.87692 v 2.0709 h -6.67291 z m 10.1244,-3.34924 q 0.767,0 1.3039,0.5369 0.56247,0.5369 0.56247,1.3039 0,0.767 -0.56247,1.32947 -0.5369,0.5369 -1.3039,0.5369 -0.76701,0 -1.30391,-0.5369 -0.5369,-0.56247 -0.5369,-1.32947 0,-0.767 0.5369,-1.3039 0.5369,-0.5369 1.30391,-0.5369 z m 16.107,3.34924 H 391.8941 v -18.30576 h 10.89141 v 2.0709 h -8.46258 v 5.54798 h 7.54218 v 2.0709 h -7.54218 v 6.54507 h 8.46258 z m 4.24404,-3.34924 q 0.767,0 1.3039,0.5369 0.56247,0.5369 0.56247,1.3039 0,0.767 -0.56247,1.32947 -0.5369,0.5369 -1.3039,0.5369 -0.767,0 -1.3039,-0.5369 -0.5369,-0.56247 -0.5369,-1.32947 0,-0.767 0.5369,-1.3039 0.5369,-0.5369 1.3039,-0.5369 z m 20.68344,3.34924 h -2.65893 l -2.42884,-6.11044 h -7.33764 l -2.37771,6.11044 h -2.63337 l 7.69558,-18.58699 h 2.09647 z m -6.00817,-8.18135 -2.68451,-7.61887 -2.8379,7.61887 z m 9.25512,4.83211 q 0.767,0 1.3039,0.5369 0.56247,0.5369 0.56247,1.3039 0,0.767 -0.56247,1.32947 -0.5369,0.5369 -1.3039,0.5369 -0.767,0 -1.3039,-0.5369 -0.5369,-0.56247 -0.5369,-1.32947 0,-0.767 0.5369,-1.3039 0.5369,-0.5369 1.3039,-0.5369 z m 24.26278,3.34924 h -2.35214 l -0.9971,-14.18952 -5.77807,14.18952 h -1.6107 l -5.77808,-14.18952 -0.9971,14.18952 h -2.32657 l 1.3039,-18.30576 h 2.53111 l 6.08487,15.23775 6.05931,-15.23775 h 2.55667 z m 4.39747,-3.34924 q 0.767,0 1.3039,0.5369 0.56247,0.5369 0.56247,1.3039 0,0.767 -0.56247,1.32947 -0.5369,0.5369 -1.3039,0.5369 -0.767,0 -1.3039,-0.5369 -0.53691,-0.56247 -0.53691,-1.32947 0,-0.767 0.53691,-1.3039 0.5369,-0.5369 1.3039,-0.5369 z m 16.31151,3.34924 h -2.42884 v -18.30576 h 2.42884 z m 10.53343,-13.44809 q 2.65894,0 4.19294,1.63627 1.534,1.63627 1.534,4.39747 v 7.41435 h -2.42884 v -7.41435 q 0,-4.01397 -3.65603,-4.01397 -1.30391,0 -2.60781,1.20164 -1.3039,1.20163 -1.3039,2.42883 v 7.79785 h -2.42884 v -9.61308 q 0,-2.40327 -0.3068,-3.50264 h 2.27544 q 0.25567,0.6136 0.25567,1.58514 1.8408,-1.91751 4.47417,-1.91751 z m 16.26041,0 q 2.65893,0 4.19293,1.63627 1.53401,1.63627 1.53401,4.39747 v 7.41435 h -2.42884 v -7.41435 q 0,-4.01397 -3.65604,-4.01397 -1.3039,0 -2.6078,1.20164 -1.3039,1.20163 -1.3039,2.42883 v 7.79785 h -2.42884 v -9.61308 q 0,-2.40327 -0.3068,-3.50264 h 2.27544 q 0.25566,0.6136 0.25566,1.58514 1.84081,-1.91751 4.47418,-1.91751 z m 22.49871,6.82631 q 0,2.94017 -1.9942,4.93437 -1.99421,1.99421 -4.93438,1.99421 -2.94017,0 -4.93437,-1.99421 -1.9942,-1.9942 -1.9942,-4.93437 0,-2.9146 1.9942,-4.93437 1.9942,-2.01977 4.93437,-2.01977 2.94017,0 4.93438,2.01977 1.9942,2.01977 1.9942,4.93437 z m -6.92858,4.88324 q 1.9942,0 3.24697,-1.40617 1.27834,-1.40617 1.27834,-3.47707 0,-2.0709 -1.27834,-3.47707 -1.25277,-1.40617 -3.24697,-1.40617 -1.9942,0 -3.27254,1.40617 -1.27833,1.40617 -1.27833,3.47707 0,2.0709 1.27833,3.47707 1.27834,1.40617 3.27254,1.40617 z m 15.74908,1.73854 h -1.91751 l -6.08487,-13.06459 h 2.5311 l 4.49974,10.07328 4.49974,-10.07328 h 2.55667 z m 11.53052,0.35793 q -1.96864,0 -3.29811,-1.0738 -1.32947,-1.0738 -1.32947,-2.86347 0,-4.85767 8.74381,-4.98551 -0.3835,-2.88903 -3.17027,-2.88903 -2.12203,0 -4.57644,0.94596 l -0.25566,-2.17317 q 2.6078,-0.767 4.95994,-0.767 5.4457,0 5.4457,5.59911 v 4.34634 q 0,1.4573 0.53691,3.3748 l -2.24987,0.48577 -0.3835,-1.71297 q -1.99421,1.71297 -4.42304,1.71297 z m 4.11623,-4.49974 v -2.32657 q -6.2894,0.12784 -6.2894,2.65894 0,2.04533 2.27543,2.04533 1.32947,0 2.65894,-0.6903 1.35503,-0.71586 1.35503,-1.6874 z m 11.14703,4.49974 q -1.81524,0 -2.81234,-1.2272 -0.9971,-1.25277 -0.9971,-3.24697 v -6.95414 h -2.6078 v -1.99421 h 2.6078 v -3.57933 l 2.42884,-1.04824 v 4.62757 h 4.19294 v 1.99421 h -4.19294 v 6.92857 q 0,2.32657 1.48287,2.32657 0.9971,0 2.1476,-0.40907 l 0.28123,2.01977 q -1.32947,0.56247 -2.5311,0.56247 z m 17.99894,-6.97971 q 0,2.94017 -1.9942,4.93437 -1.99421,1.99421 -4.93438,1.99421 -2.94017,0 -4.93437,-1.99421 -1.9942,-1.9942 -1.9942,-4.93437 0,-2.9146 1.9942,-4.93437 1.9942,-2.01977 4.93437,-2.01977 2.94017,0 4.93438,2.01977 1.9942,2.01977 1.9942,4.93437 z m -6.92858,4.88324 q 1.9942,0 3.24697,-1.40617 1.27834,-1.40617 1.27834,-3.47707 0,-2.0709 -1.27834,-3.47707 -1.25277,-1.40617 -3.24697,-1.40617 -1.9942,0 -3.27254,1.40617 -1.27833,1.40617 -1.27833,3.47707 0,2.0709 1.27833,3.47707 1.27834,1.40617 3.27254,1.40617 z m 11.93964,-9.68978 q 0.35793,-0.74143 1.4573,-1.3806 1.12494,-0.63917 2.1476,-0.63917 0.81814,0 1.22721,0.10227 v 2.0709 q -0.30681,-0.0767 -0.86927,-0.0767 -3.65604,0 -3.65604,4.39747 v 6.95415 h -2.42884 v -8.64155 q 0,-3.068 -0.4602,-4.62757 h 2.14761 q 0.43463,0.71587 0.43463,1.8408 z"
       id="text1"
       transform="scale(0.96377368,1.037588)"
       aria-label="I am Maker &amp; S.T.E.A.M. Innovator" /><g
       id="text2"
       style="font-size:10.6414px;font-family:Laksaman;-inkscape-font-specification:'Laksaman, Normal';opacity:0.98;fill:#f9f9f9;stroke-width:0.443124;stroke-linecap:round;stroke-linejoin:round"
       transform="scale(0.96951464,1.0314439)"
       aria-label="&amp; this is My Journey and Experiments with Design, Technology, and Education"><path
         style="font-family:Sans;-inkscape-font-specification:'Sans, Normal';text-align:center;text-anchor:middle"
         d="m 176.97837,181.17896 q -0.47283,0.42088 -0.69626,0.84176 -0.21823,0.41567 -0.21823,0.87292 0,0.75862 0.55077,1.26263 0.55078,0.50401 1.38214,0.50401 0.49362,0 0.92489,-0.16107 0.43126,-0.16628 0.81057,-0.49882 z m 0.73264,-0.58195 2.63957,2.70192 q 0.30656,-0.46244 0.47803,-0.98724 0.17147,-0.52999 0.20264,-1.12233 h 0.96646 q -0.0624,0.68587 -0.33255,1.35615 -0.27019,0.67028 -0.75342,1.32498 l 1.44969,1.48086 h -1.30939 l -0.74303,-0.76381 q -0.54039,0.46244 -1.13273,0.69106 -0.59234,0.22343 -1.27302,0.22343 -1.25223,0 -2.04722,-0.71185 -0.79499,-0.71705 -0.79499,-1.83419 0,-0.66508 0.34813,-1.24703 0.34814,-0.58715 1.0444,-1.10156 -0.24941,-0.32734 -0.37931,-0.6495 -0.1299,-0.32734 -0.1299,-0.6391 0,-0.84175 0.57676,-1.35096 0.57675,-0.51441 1.53282,-0.51441 0.43126,0 0.85734,0.0935 0.43126,0.0935 0.87292,0.28059 v 0.94567 q -0.45205,-0.24421 -0.86253,-0.36892 -0.41049,-0.1299 -0.76381,-0.1299 -0.54558,0 -0.88852,0.29098 -0.33774,0.28578 -0.33774,0.74303 0,0.26499 0.15068,0.53518 0.15588,0.265 0.62872,0.75342 z m 10.30886,-2.7175 v 1.65232 h 1.96928 v 0.74303 h -1.96928 v 3.15917 q 0,0.71185 0.19225,0.91449 0.19745,0.20265 0.79499,0.20265 h 0.98204 v 0.80018 h -0.98204 q -1.10675,0 -1.52763,-0.41048 -0.42087,-0.41568 -0.42087,-1.50684 v -3.15917 h -0.70146 v -0.74303 h 0.70146 v -1.65232 z m 8.06418,3.95935 v 3.51249 h -0.95606 v -3.48132 q 0,-0.82616 -0.32215,-1.23665 -0.32215,-0.41048 -0.96646,-0.41048 -0.7742,0 -1.22106,0.49362 -0.44685,0.49362 -0.44685,1.34576 v 3.28907 h -0.96126 v -8.08497 h 0.96126 v 3.16956 q 0.34293,-0.5248 0.80538,-0.7846 0.46764,-0.2598 1.07557,-0.2598 1.00283,0 1.51723,0.62352 0.5144,0.61832 0.5144,1.8238 z m 1.90693,-2.30703 h 0.95607 v 5.81952 h -0.95607 z m 0,-2.26545 h 0.95607 v 1.21067 h -0.95607 z m 6.66647,2.43692 v 0.9041 q -0.40529,-0.20784 -0.84176,-0.31176 -0.43646,-0.10392 -0.9041,-0.10392 -0.71185,0 -1.07037,0.21824 -0.35333,0.21823 -0.35333,0.65469 0,0.33255 0.2546,0.5248 0.25461,0.18705 1.02361,0.35852 l 0.32735,0.0728 q 1.01842,0.21823 1.44449,0.61832 0.43127,0.39489 0.43127,1.10675 0,0.81057 -0.64431,1.28341 -0.63911,0.47283 -1.76144,0.47283 -0.46764,0 -0.97685,-0.0935 -0.50401,-0.0883 -1.06518,-0.27019 v -0.98724 q 0.52999,0.27539 1.0444,0.41568 0.5144,0.1351 1.01841,0.1351 0.67548,0 1.0392,-0.22862 0.36372,-0.23382 0.36372,-0.6547 0,-0.3897 -0.26499,-0.59754 -0.2598,-0.20784 -1.14832,-0.40009 l -0.33254,-0.0779 q -0.88852,-0.18706 -1.28341,-0.57156 -0.3949,-0.3897 -0.3949,-1.06518 0,-0.82097 0.58195,-1.26782 0.58195,-0.44686 1.65233,-0.44686 0.52999,0 0.99763,0.0779 0.46764,0.0779 0.86254,0.23382 z m 5.21678,-0.17147 h 0.95606 v 5.81952 h -0.95606 z m 0,-2.26545 h 0.95606 v 1.21067 h -0.95606 z m 6.66646,2.43692 v 0.9041 q -0.40529,-0.20784 -0.84175,-0.31176 -0.43647,-0.10392 -0.9041,-0.10392 -0.71186,0 -1.07038,0.21824 -0.35333,0.21823 -0.35333,0.65469 0,0.33255 0.25461,0.5248 0.2546,0.18705 1.02361,0.35852 l 0.32734,0.0728 q 1.01842,0.21823 1.44449,0.61832 0.43127,0.39489 0.43127,1.10675 0,0.81057 -0.6443,1.28341 -0.63911,0.47283 -1.76145,0.47283 -0.46764,0 -0.97684,-0.0935 -0.50402,-0.0883 -1.06518,-0.27019 v -0.98724 q 0.52999,0.27539 1.04439,0.41568 0.51441,0.1351 1.01842,0.1351 0.67548,0 1.0392,-0.22862 0.36372,-0.23382 0.36372,-0.6547 0,-0.3897 -0.265,-0.59754 -0.2598,-0.20784 -1.14831,-0.40009 l -0.33255,-0.0779 q -0.88851,-0.18706 -1.28341,-0.57156 -0.3949,-0.3897 -0.3949,-1.06518 0,-0.82097 0.58196,-1.26782 0.58195,-0.44686 1.65232,-0.44686 0.52999,0 0.99763,0.0779 0.46764,0.0779 0.86254,0.23382 z m 5.25835,-2.10957 h 1.56399 l 1.97968,5.27913 1.99007,-5.27913 h 1.56399 v 7.75762 h -1.02361 v -6.81195 l -2.00046,5.3207 h -1.05479 l -2.00045,-5.3207 v 6.81195 h -1.01842 z m 11.56109,8.298 q -0.40529,1.0392 -0.78979,1.35616 -0.3845,0.31695 -1.02881,0.31695 h -0.76381 v -0.80018 h 0.56117 q 0.39489,0 0.61313,-0.18706 0.21823,-0.18705 0.48322,-0.88332 l 0.17147,-0.43646 -2.35379,-5.72599 h 1.01322 l 1.8186,4.5517 1.8186,-4.5517 h 1.01322 z m 7.30038,-8.298 h 1.04959 v 7.21724 q 0,1.40291 -0.53519,2.03683 -0.52999,0.63391 -1.70948,0.63391 h -0.4001 v -0.88332 h 0.32735 q 0.69627,0 0.98205,-0.3897 0.28578,-0.3897 0.28578,-1.39772 z m 5.35187,2.60839 q -0.76901,0 -1.21586,0.60273 -0.44686,0.59754 -0.44686,1.64194 0,1.04439 0.44166,1.64713 0.44686,0.59754 1.22106,0.59754 0.76381,0 1.21067,-0.60274 0.44685,-0.60273 0.44685,-1.64193 0,-1.03401 -0.44685,-1.63674 -0.44686,-0.60793 -1.21067,-0.60793 z m 0,-0.81058 q 1.24704,0 1.95889,0.81058 0.71185,0.81057 0.71185,2.24467 0,1.4289 -0.71185,2.24467 -0.71185,0.81057 -1.95889,0.81057 -1.25223,0 -1.96408,-0.81057 -0.70666,-0.81577 -0.70666,-2.24467 0,-1.4341 0.70666,-2.24467 0.71185,-0.81058 1.96408,-0.81058 z m 4.1568,3.66318 v -3.52289 h 0.95606 v 3.48652 q 0,0.82616 0.32215,1.24184 0.32215,0.41048 0.96646,0.41048 0.7742,0 1.22106,-0.49362 0.45205,-0.49362 0.45205,-1.34576 v -3.29946 h 0.95606 v 5.81952 h -0.95606 v -0.89371 q -0.34813,0.52999 -0.81058,0.78979 -0.45724,0.2546 -1.06518,0.2546 -1.00282,0 -1.52242,-0.62352 -0.5196,-0.62352 -0.5196,-1.82379 z m 2.40574,-3.66318 z m 7.80959,1.034 q -0.16108,-0.0935 -0.35333,-0.13509 -0.18705,-0.0468 -0.41568,-0.0468 -0.81057,0 -1.24704,0.53 -0.43126,0.52479 -0.43126,1.51203 v 3.06564 h -0.96126 v -5.81952 h 0.96126 v 0.90411 q 0.30136,-0.53 0.78459,-0.7846 0.48323,-0.2598 1.1743,-0.2598 0.0987,0 0.21823,0.0156 0.11951,0.0104 0.26499,0.0364 z m 5.65324,1.41332 v 3.51249 h -0.95606 v -3.48132 q 0,-0.82616 -0.32215,-1.23665 -0.32215,-0.41048 -0.96646,-0.41048 -0.7742,0 -1.22106,0.49362 -0.44685,0.49362 -0.44685,1.34576 v 3.28907 h -0.96126 v -5.81952 h 0.96126 v 0.90411 q 0.34294,-0.5248 0.80538,-0.7846 0.46764,-0.2598 1.07557,-0.2598 1.00283,0 1.51723,0.62352 0.5144,0.61832 0.5144,1.8238 z m 6.8847,0.36372 v 0.46763 h -4.39582 q 0.0624,0.98724 0.59235,1.50684 0.53518,0.51441 1.48605,0.51441 0.55078,0 1.06518,-0.1351 0.5196,-0.13509 1.02881,-0.40529 v 0.90411 q -0.51441,0.21823 -1.05479,0.33254 -0.54038,0.11431 -1.09635,0.11431 -1.39253,0 -2.2083,-0.81057 -0.81058,-0.81058 -0.81058,-2.19271 0,-1.4289 0.76901,-2.26546 0.7742,-0.84175 2.08359,-0.84175 1.1743,0 1.85497,0.75862 0.68588,0.75342 0.68588,2.05242 z m -0.95607,-0.28059 q -0.0104,-0.78459 -0.44166,-1.25223 -0.42607,-0.46764 -1.13272,-0.46764 -0.80019,0 -1.28341,0.45205 -0.47804,0.45205 -0.55078,1.27302 z m 4.94659,3.96974 q -0.40529,1.0392 -0.78979,1.35616 -0.38451,0.31695 -1.02881,0.31695 h -0.76381 v -0.80018 h 0.56116 q 0.3949,0 0.61313,-0.18706 0.21823,-0.18705 0.48323,-0.88332 l 0.17147,-0.43646 -2.35379,-5.72599 h 1.01322 l 1.8186,4.5517 1.8186,-4.5517 h 1.01322 z m 9.90357,-3.46573 q -1.15871,0 -1.60556,0.265 -0.44686,0.26499 -0.44686,0.9041 0,0.50921 0.33255,0.81058 0.33774,0.29617 0.91449,0.29617 0.79499,0 1.27302,-0.56117 0.48323,-0.56636 0.48323,-1.50164 V 182.426 Z m 1.90693,-0.39489 v 3.32024 h -0.95606 v -0.88332 q -0.32735,0.52999 -0.81577,0.78459 -0.48843,0.24941 -1.19508,0.24941 -0.89371,0 -1.42371,-0.49881 -0.52479,-0.50401 -0.52479,-1.34577 0,-0.98204 0.65469,-1.48085 0.6599,-0.49882 1.96409,-0.49882 h 1.34057 v -0.0935 q 0,-0.65989 -0.43647,-1.01841 -0.43126,-0.36372 -1.21586,-0.36372 -0.49881,0 -0.97165,0.1195 -0.47284,0.11951 -0.9093,0.35853 v -0.88332 q 0.5248,-0.20264 1.01842,-0.30137 0.49362,-0.10392 0.96126,-0.10392 1.26262,0 1.88614,0.6547 0.62352,0.65469 0.62352,1.98487 z m 6.80675,-0.19225 v 3.51249 h -0.95606 v -3.48132 q 0,-0.82616 -0.32215,-1.23665 -0.32215,-0.41048 -0.96646,-0.41048 -0.7742,0 -1.22106,0.49362 -0.44685,0.49362 -0.44685,1.34576 v 3.28907 h -0.96126 v -5.81952 h 0.96126 v 0.90411 q 0.34293,-0.5248 0.80538,-0.7846 0.46764,-0.2598 1.07557,-0.2598 1.00283,0 1.51723,0.62352 0.5144,0.61832 0.5144,1.8238 z m 5.73639,-1.42371 v -3.14877 h 0.95606 v 8.08497 h -0.95606 v -0.87293 q -0.30137,0.5196 -0.76381,0.7742 -0.45725,0.24941 -1.10155,0.24941 -1.05479,0 -1.71988,-0.84175 -0.65989,-0.84175 -0.65989,-2.21349 0,-1.37175 0.65989,-2.2135 0.66509,-0.84175 1.71988,-0.84175 0.6443,0 1.10155,0.2546 0.46244,0.24941 0.76381,0.76901 z m -3.25789,2.03164 q 0,1.05478 0.43127,1.65752 0.43646,0.59754 1.19508,0.59754 0.75861,0 1.19507,-0.59754 0.43647,-0.60274 0.43647,-1.65752 0,-1.05479 -0.43647,-1.65233 -0.43646,-0.60274 -1.19507,-0.60274 -0.75862,0 -1.19508,0.60274 -0.43127,0.59754 -0.43127,1.65233 z m 9.6074,-4.85306 h 4.90502 v 0.88332 h -3.85543 v 2.29663 h 3.69435 v 0.88332 h -3.69435 v 2.81103 h 3.94896 v 0.88332 h -4.99855 z m 11.51952,1.9381 -2.10438,2.83182 2.2135,2.9877 h -1.12754 l -1.69389,-2.28624 -1.6939,2.28624 h -1.12753 l 2.26026,-3.04485 -2.068,-2.77467 h 1.12753 l 1.54321,2.07321 1.54321,-2.07321 z m 2.38496,4.94659 v 3.08642 h -0.96126 v -8.03301 h 0.96126 v 0.88332 q 0.30137,-0.5196 0.75862,-0.76901 0.46244,-0.2546 1.10155,-0.2546 1.05998,0 1.71987,0.84175 0.66509,0.84175 0.66509,2.2135 0,1.37174 -0.66509,2.21349 -0.65989,0.84175 -1.71987,0.84175 -0.63911,0 -1.10155,-0.24941 -0.45725,-0.2546 -0.75862,-0.7742 z m 3.25269,-2.03163 q 0,-1.05479 -0.43646,-1.65233 -0.43127,-0.60274 -1.18988,-0.60274 -0.75862,0 -1.19508,0.60274 -0.43127,0.59754 -0.43127,1.65233 0,1.05478 0.43127,1.65752 0.43646,0.59754 1.19508,0.59754 0.75861,0 1.18988,-0.59754 0.43646,-0.60274 0.43646,-1.65752 z m 7.55498,-0.24421 v 0.46763 h -4.39581 q 0.0623,0.98724 0.59234,1.50684 0.53519,0.51441 1.48605,0.51441 0.55078,0 1.06518,-0.1351 0.5196,-0.13509 1.02881,-0.40529 v 0.90411 q -0.5144,0.21823 -1.05479,0.33254 -0.54038,0.11431 -1.09635,0.11431 -1.39253,0 -2.2083,-0.81057 -0.81057,-0.81058 -0.81057,-2.19271 0,-1.4289 0.769,-2.26546 0.77421,-0.84175 2.0836,-0.84175 1.17429,0 1.85497,0.75862 0.68587,0.75342 0.68587,2.05242 z m -0.95606,-0.28059 q -0.0104,-0.78459 -0.44166,-1.25223 -0.42608,-0.46764 -1.13273,-0.46764 -0.80018,0 -1.28341,0.45205 -0.47803,0.45205 -0.55078,1.27302 z m 5.89745,-1.49645 q -0.16108,-0.0935 -0.35333,-0.13509 -0.18706,-0.0468 -0.41568,-0.0468 -0.81058,0 -1.24704,0.53 -0.43127,0.52479 -0.43127,1.51203 v 3.06564 h -0.96126 v -5.81952 h 0.96126 v 0.90411 q 0.30137,-0.53 0.7846,-0.7846 0.48323,-0.2598 1.17429,-0.2598 0.0987,0 0.21824,0.0156 0.1195,0.0104 0.26499,0.0364 z m 1.00283,-0.89371 h 0.95606 v 5.81952 h -0.95606 z m 0,-2.26545 h 0.95606 v 1.21067 h -0.95606 z m 7.48743,3.38259 q 0.35853,-0.6443 0.85734,-0.95087 0.49882,-0.30656 1.1743,-0.30656 0.9093,0 1.40292,0.63911 0.49362,0.63391 0.49362,1.80821 v 3.51249 h -0.96126 v -3.48132 q 0,-0.83655 -0.29617,-1.24184 -0.29618,-0.40529 -0.90411,-0.40529 -0.74303,0 -1.17429,0.49362 -0.43127,0.49362 -0.43127,1.34576 v 3.28907 h -0.96126 v -3.48132 q 0,-0.84175 -0.29617,-1.24184 -0.29617,-0.40529 -0.9145,-0.40529 -0.73263,0 -1.1639,0.49882 -0.43127,0.49362 -0.43127,1.34056 v 3.28907 h -0.96126 v -5.81952 h 0.96126 v 0.90411 q 0.32735,-0.53519 0.7846,-0.7898 0.45724,-0.2546 1.08596,-0.2546 0.63391,0 1.07557,0.32215 0.44686,0.32215 0.65989,0.93528 z m 10.81287,1.55361 v 0.46763 h -4.39581 q 0.0623,0.98724 0.59234,1.50684 0.53519,0.51441 1.48606,0.51441 0.55077,0 1.06518,-0.1351 0.5196,-0.13509 1.0288,-0.40529 v 0.90411 q -0.5144,0.21823 -1.05478,0.33254 -0.54039,0.11431 -1.09636,0.11431 -1.39253,0 -2.2083,-0.81057 -0.81057,-0.81058 -0.81057,-2.19271 0,-1.4289 0.769,-2.26546 0.77421,-0.84175 2.0836,-0.84175 1.17429,0 1.85497,0.75862 0.68587,0.75342 0.68587,2.05242 z m -0.95606,-0.28059 q -0.0104,-0.78459 -0.44166,-1.25223 -0.42607,-0.46764 -1.13273,-0.46764 -0.80018,0 -1.28341,0.45205 -0.47803,0.45205 -0.55078,1.27302 z m 7.36272,-0.0831 v 3.51249 h -0.95606 v -3.48132 q 0,-0.82616 -0.32215,-1.23665 -0.32216,-0.41048 -0.96646,-0.41048 -0.7742,0 -1.22106,0.49362 -0.44685,0.49362 -0.44685,1.34576 v 3.28907 h -0.96126 v -5.81952 h 0.96126 v 0.90411 q 0.34293,-0.5248 0.80537,-0.7846 0.46764,-0.2598 1.07558,-0.2598 1.00282,0 1.51723,0.62352 0.5144,0.61832 0.5144,1.8238 z m 2.8526,-3.95935 v 1.65232 h 1.96928 v 0.74303 h -1.96928 v 3.15917 q 0,0.71185 0.19225,0.91449 0.19745,0.20265 0.79499,0.20265 h 0.98204 v 0.80018 h -0.98204 q -1.10675,0 -1.52762,-0.41048 -0.42088,-0.41568 -0.42088,-1.50684 v -3.15917 h -0.70146 v -0.74303 h 0.70146 v -1.65232 z m 6.93666,1.82379 v 0.9041 q -0.40528,-0.20784 -0.84175,-0.31176 -0.43646,-0.10392 -0.9041,-0.10392 -0.71185,0 -1.07038,0.21824 -0.35332,0.21823 -0.35332,0.65469 0,0.33255 0.2546,0.5248 0.2546,0.18705 1.02361,0.35852 l 0.32735,0.0728 q 1.01841,0.21823 1.44449,0.61832 0.43126,0.39489 0.43126,1.10675 0,0.81057 -0.6443,1.28341 -0.63911,0.47283 -1.76144,0.47283 -0.46764,0 -0.97685,-0.0935 -0.50401,-0.0883 -1.06518,-0.27019 v -0.98724 q 0.52999,0.27539 1.0444,0.41568 0.5144,0.1351 1.01841,0.1351 0.67548,0 1.0392,-0.22862 0.36372,-0.23382 0.36372,-0.6547 0,-0.3897 -0.265,-0.59754 -0.2598,-0.20784 -1.14831,-0.40009 l -0.33254,-0.0779 q -0.88852,-0.18706 -1.28342,-0.57156 -0.39489,-0.3897 -0.39489,-1.06518 0,-0.82097 0.58195,-1.26782 0.58195,-0.44686 1.65233,-0.44686 0.52999,0 0.99763,0.0779 0.46764,0.0779 0.86253,0.23382 z m 4.6608,-0.17147 h 0.95607 l 1.19507,4.5413 1.18989,-4.5413 h 1.12753 l 1.19508,4.5413 1.18988,-4.5413 h 0.95606 l -1.52242,5.81952 h -1.12753 l -1.25224,-4.76993 -1.25743,4.76993 h -1.12753 z m 9.25927,0 h 0.95606 v 5.81952 h -0.95606 z m 0,-2.26545 h 0.95606 v 1.21067 h -0.95606 z m 3.9022,0.61313 v 1.65232 h 1.96928 v 0.74303 h -1.96928 v 3.15917 q 0,0.71185 0.19225,0.91449 0.19745,0.20265 0.79499,0.20265 h 0.98204 v 0.80018 h -0.98204 q -1.10675,0 -1.52763,-0.41048 -0.42087,-0.41568 -0.42087,-1.50684 v -3.15917 h -0.70146 v -0.74303 h 0.70146 v -1.65232 z m 8.06419,3.95935 v 3.51249 h -0.95606 v -3.48132 q 0,-0.82616 -0.32215,-1.23665 -0.32216,-0.41048 -0.96646,-0.41048 -0.7742,0 -1.22106,0.49362 -0.44685,0.49362 -0.44685,1.34576 v 3.28907 h -0.96126 v -8.08497 h 0.96126 v 3.16956 q 0.34293,-0.5248 0.80538,-0.7846 0.46763,-0.2598 1.07557,-0.2598 1.00282,0 1.51723,0.62352 0.5144,0.61832 0.5144,1.8238 z"
         id="path19" /><path
         style="font-family:Sans;-inkscape-font-specification:'Sans, Normal';text-align:center;text-anchor:middle;fill:#ffd5d5"
         d="m 405.03584,178.45626 v 6.03255 h 1.26782 q 1.60557,0 2.34859,-0.72744 0.74823,-0.72744 0.74823,-2.29663 0,-1.5588 -0.74823,-2.28104 -0.74302,-0.72744 -2.34859,-0.72744 z m -1.04959,-0.86253 h 2.15634 q 2.25506,0 3.30985,0.94047 1.05479,0.93528 1.05479,2.93054 0,2.00566 -1.05999,2.94613 -1.05998,0.94048 -3.30465,0.94048 h -2.15634 z m 13.13029,4.60885 v 0.46763 h -4.39581 q 0.0623,0.98724 0.59234,1.50684 0.53519,0.51441 1.48605,0.51441 0.55078,0 1.06518,-0.1351 0.5196,-0.13509 1.02881,-0.40529 v 0.90411 q -0.5144,0.21823 -1.05479,0.33254 -0.54038,0.11431 -1.09635,0.11431 -1.39253,0 -2.2083,-0.81057 -0.81058,-0.81058 -0.81058,-2.19271 0,-1.4289 0.76901,-2.26546 0.7742,-0.84175 2.0836,-0.84175 1.17429,0 1.85497,0.75862 0.68587,0.75342 0.68587,2.05242 z m -0.95607,-0.28059 q -0.0104,-0.78459 -0.44165,-1.25223 -0.42608,-0.46764 -1.13273,-0.46764 -0.80019,0 -1.28341,0.45205 -0.47803,0.45205 -0.55078,1.27302 z m 6.2352,-2.21869 v 0.9041 q -0.40529,-0.20784 -0.84175,-0.31176 -0.43647,-0.10392 -0.90411,-0.10392 -0.71185,0 -1.07037,0.21824 -0.35333,0.21823 -0.35333,0.65469 0,0.33255 0.2546,0.5248 0.25461,0.18705 1.02361,0.35852 l 0.32735,0.0728 q 1.01842,0.21823 1.44449,0.61832 0.43127,0.39489 0.43127,1.10675 0,0.81057 -0.64431,1.28341 -0.6391,0.47283 -1.76144,0.47283 -0.46764,0 -0.97685,-0.0935 -0.50401,-0.0883 -1.06518,-0.27019 v -0.98724 q 0.53,0.27539 1.0444,0.41568 0.5144,0.1351 1.01841,0.1351 0.67548,0 1.0392,-0.22862 0.36372,-0.23382 0.36372,-0.6547 0,-0.3897 -0.26499,-0.59754 -0.2598,-0.20784 -1.14832,-0.40009 l -0.33254,-0.0779 q -0.88852,-0.18706 -1.28341,-0.57156 -0.3949,-0.3897 -0.3949,-1.06518 0,-0.82097 0.58195,-1.26782 0.58195,-0.44686 1.65233,-0.44686 0.52999,0 0.99763,0.0779 0.46764,0.0779 0.86254,0.23382 z m 1.83418,-0.17147 h 0.95607 v 5.81952 h -0.95607 z m 0,-2.26545 h 0.95607 v 1.21067 h -0.95607 z m 6.78598,5.10766 q 0,-1.0392 -0.43127,-1.61076 -0.42607,-0.57156 -1.20027,-0.57156 -0.76901,0 -1.20028,0.57156 -0.42607,0.57156 -0.42607,1.61076 0,1.03401 0.42607,1.60557 0.43127,0.57156 1.20028,0.57156 0.7742,0 1.20027,-0.57156 0.43127,-0.57156 0.43127,-1.60557 z m 0.95606,2.25507 q 0,1.48605 -0.65989,2.20829 -0.65989,0.72744 -2.02124,0.72744 -0.50401,0 -0.95087,-0.0779 -0.44685,-0.0727 -0.86773,-0.22862 v -0.93008 q 0.42088,0.22862 0.83136,0.33774 0.41048,0.10911 0.83656,0.10911 0.94047,0 1.40811,-0.49362 0.46764,-0.48842 0.46764,-1.48086 v -0.47283 q -0.29617,0.5144 -0.75862,0.76901 -0.46244,0.2546 -1.10674,0.2546 -1.07038,0 -1.72507,-0.81577 -0.6547,-0.81577 -0.6547,-2.16154 0,-1.35096 0.6547,-2.16673 0.65469,-0.81577 1.72507,-0.81577 0.6443,0 1.10674,0.2546 0.46245,0.25461 0.75862,0.76901 v -0.88332 h 0.95606 z m 6.80675,-2.79025 v 3.51249 h -0.95606 v -3.48132 q 0,-0.82616 -0.32215,-1.23665 -0.32215,-0.41048 -0.96646,-0.41048 -0.7742,0 -1.22105,0.49362 -0.44686,0.49362 -0.44686,1.34576 v 3.28907 h -0.96126 v -5.81952 h 0.96126 v 0.90411 q 0.34294,-0.5248 0.80538,-0.7846 0.46764,-0.2598 1.07557,-0.2598 1.00283,0 1.51723,0.62352 0.5144,0.61832 0.5144,1.8238 z"
         id="path20" /><path
         style="font-family:Sans;-inkscape-font-specification:'Sans, Normal';text-align:center;text-anchor:middle"
         d="m 440.9298,184.03157 h 1.09635 v 0.89371 l -0.85214,1.66272 h -0.67028 l 0.42607,-1.66272 z"
         id="path21" /><path
         style="font-family:Sans;-inkscape-font-specification:'Sans, Normal';text-align:center;text-anchor:middle;fill:#ffaaaa"
         d="m 446.41675,177.59373 h 6.56255 v 0.88332 h -2.75388 v 6.8743 h -1.05479 v -6.8743 h -2.75388 z m 10.70376,4.60885 v 0.46763 h -4.39582 q 0.0623,0.98724 0.59235,1.50684 0.53518,0.51441 1.48605,0.51441 0.55078,0 1.06518,-0.1351 0.5196,-0.13509 1.02881,-0.40529 v 0.90411 q -0.51441,0.21823 -1.05479,0.33254 -0.54038,0.11431 -1.09635,0.11431 -1.39253,0 -2.2083,-0.81057 -0.81058,-0.81058 -0.81058,-2.19271 0,-1.4289 0.76901,-2.26546 0.7742,-0.84175 2.08359,-0.84175 1.1743,0 1.85497,0.75862 0.68588,0.75342 0.68588,2.05242 z m -0.95607,-0.28059 q -0.0104,-0.78459 -0.44166,-1.25223 -0.42607,-0.46764 -1.13272,-0.46764 -0.80019,0 -1.28342,0.45205 -0.47803,0.45205 -0.55077,1.27302 z m 6.71324,-2.16673 v 0.89371 q -0.40529,-0.22343 -0.81577,-0.33254 -0.40529,-0.11431 -0.82097,-0.11431 -0.93008,0 -1.44449,0.59234 -0.5144,0.58715 -0.5144,1.65233 0,1.06518 0.5144,1.65752 0.51441,0.58715 1.44449,0.58715 0.41568,0 0.82097,-0.10912 0.41048,-0.11431 0.81577,-0.33774 v 0.88332 q -0.40009,0.18706 -0.83136,0.28058 -0.42607,0.0935 -0.9093,0.0935 -1.31459,0 -2.08879,-0.82616 -0.7742,-0.82616 -0.7742,-2.22908 0,-1.42371 0.7794,-2.23948 0.78459,-0.81577 2.14594,-0.81577 0.44166,0 0.86254,0.0935 0.42087,0.0883 0.81577,0.27019 z m 6.50018,2.0836 v 3.51249 h -0.95607 v -3.48132 q 0,-0.82616 -0.32215,-1.23665 -0.32215,-0.41048 -0.96645,-0.41048 -0.77421,0 -1.22106,0.49362 -0.44686,0.49362 -0.44686,1.34576 v 3.28907 h -0.96126 v -8.08497 h 0.96126 v 3.16956 q 0.34294,-0.5248 0.80538,-0.7846 0.46764,-0.2598 1.07557,-0.2598 1.00283,0 1.51723,0.62352 0.51441,0.61832 0.51441,1.8238 z m 6.74441,0 v 3.51249 h -0.95606 v -3.48132 q 0,-0.82616 -0.32215,-1.23665 -0.32215,-0.41048 -0.96646,-0.41048 -0.7742,0 -1.22106,0.49362 -0.44685,0.49362 -0.44685,1.34576 v 3.28907 h -0.96126 v -5.81952 h 0.96126 v 0.90411 q 0.34293,-0.5248 0.80538,-0.7846 0.46764,-0.2598 1.07557,-0.2598 1.00283,0 1.51723,0.62352 0.5144,0.61832 0.5144,1.8238 z m 4.16201,-1.63674 q -0.76901,0 -1.21587,0.60273 -0.44685,0.59754 -0.44685,1.64194 0,1.04439 0.44166,1.64713 0.44685,0.59754 1.22106,0.59754 0.76381,0 1.21067,-0.60274 0.44685,-0.60273 0.44685,-1.64193 0,-1.03401 -0.44685,-1.63674 -0.44686,-0.60793 -1.21067,-0.60793 z m 0,-0.81058 q 1.24704,0 1.95889,0.81058 0.71185,0.81057 0.71185,2.24467 0,1.4289 -0.71185,2.24467 -0.71185,0.81057 -1.95889,0.81057 -1.25224,0 -1.96409,-0.81057 -0.70665,-0.81577 -0.70665,-2.24467 0,-1.4341 0.70665,-2.24467 0.71185,-0.81058 1.96409,-0.81058 z m 4.25549,-2.12516 h 0.95607 v 8.08497 h -0.95607 z m 5.21161,2.93574 q -0.76901,0 -1.21586,0.60273 -0.44686,0.59754 -0.44686,1.64194 0,1.04439 0.44166,1.64713 0.44686,0.59754 1.22106,0.59754 0.76381,0 1.21067,-0.60274 0.44685,-0.60273 0.44685,-1.64193 0,-1.03401 -0.44685,-1.63674 -0.44686,-0.60793 -1.21067,-0.60793 z m 0,-0.81058 q 1.24704,0 1.95889,0.81058 0.71185,0.81057 0.71185,2.24467 0,1.4289 -0.71185,2.24467 -0.71185,0.81057 -1.95889,0.81057 -1.25223,0 -1.96409,-0.81057 -0.70665,-0.81577 -0.70665,-2.24467 0,-1.4341 0.70665,-2.24467 0.71186,-0.81058 1.96409,-0.81058 z m 8.08498,2.9825 q 0,-1.0392 -0.43127,-1.61076 -0.42607,-0.57156 -1.20028,-0.57156 -0.769,0 -1.20027,0.57156 -0.42607,0.57156 -0.42607,1.61076 0,1.03401 0.42607,1.60557 0.43127,0.57156 1.20027,0.57156 0.77421,0 1.20028,-0.57156 0.43127,-0.57156 0.43127,-1.60557 z m 0.95606,2.25507 q 0,1.48605 -0.65989,2.20829 -0.65989,0.72744 -2.02124,0.72744 -0.50402,0 -0.95087,-0.0779 -0.44686,-0.0727 -0.86773,-0.22862 v -0.93008 q 0.42087,0.22862 0.83136,0.33774 0.41048,0.10911 0.83655,0.10911 0.94048,0 1.40812,-0.49362 0.46764,-0.48842 0.46764,-1.48086 v -0.47283 q -0.29618,0.5144 -0.75862,0.76901 -0.46244,0.2546 -1.10675,0.2546 -1.07037,0 -1.72507,-0.81577 -0.65469,-0.81577 -0.65469,-2.16154 0,-1.35096 0.65469,-2.16673 0.6547,-0.81577 1.72507,-0.81577 0.64431,0 1.10675,0.2546 0.46244,0.25461 0.75862,0.76901 v -0.88332 h 0.95606 z m 4.39061,1.26262 q -0.40528,1.0392 -0.78979,1.35616 -0.3845,0.31695 -1.02881,0.31695 h -0.76381 v -0.80018 h 0.56117 q 0.3949,0 0.61313,-0.18706 0.21823,-0.18705 0.48323,-0.88332 l 0.17146,-0.43646 -2.35378,-5.72599 h 1.01322 l 1.8186,4.5517 1.81859,-4.5517 h 1.01322 z"
         id="path22" /><path
         style="font-family:Sans;-inkscape-font-specification:'Sans, Normal';text-align:center;text-anchor:middle"
         d="m 507.30346,184.03157 h 1.09635 v 0.89371 l -0.85214,1.66272 h -0.67028 l 0.42607,-1.66272 z m 9.16571,-1.60557 q -1.1587,0 -1.60556,0.265 -0.44685,0.26499 -0.44685,0.9041 0,0.50921 0.33254,0.81058 0.33774,0.29617 0.91449,0.29617 0.79499,0 1.27302,-0.56117 0.48323,-0.56636 0.48323,-1.50164 V 182.426 Z m 1.90693,-0.39489 v 3.32024 h -0.95606 v -0.88332 q -0.32735,0.52999 -0.81577,0.78459 -0.48842,0.24941 -1.19508,0.24941 -0.89371,0 -1.4237,-0.49881 -0.5248,-0.50401 -0.5248,-1.34577 0,-0.98204 0.6547,-1.48085 0.65989,-0.49882 1.96408,-0.49882 h 1.34057 v -0.0935 q 0,-0.65989 -0.43646,-1.01841 -0.43127,-0.36372 -1.21587,-0.36372 -0.49881,0 -0.97165,0.1195 -0.47283,0.11951 -0.9093,0.35853 v -0.88332 q 0.5248,-0.20264 1.01842,-0.30137 0.49362,-0.10392 0.96126,-0.10392 1.26263,0 1.88615,0.6547 0.62351,0.65469 0.62351,1.98487 z m 6.80678,-0.19225 v 3.51249 h -0.95606 v -3.48132 q 0,-0.82616 -0.32215,-1.23665 -0.32216,-0.41048 -0.96646,-0.41048 -0.7742,0 -1.22106,0.49362 -0.44685,0.49362 -0.44685,1.34576 v 3.28907 h -0.96126 v -5.81952 h 0.96126 v 0.90411 q 0.34293,-0.5248 0.80538,-0.7846 0.46763,-0.2598 1.07557,-0.2598 1.00282,0 1.51723,0.62352 0.5144,0.61832 0.5144,1.8238 z m 5.73636,-1.42371 v -3.14877 h 0.95607 v 8.08497 h -0.95607 v -0.87293 q -0.30137,0.5196 -0.76381,0.7742 -0.45725,0.24941 -1.10155,0.24941 -1.05479,0 -1.71988,-0.84175 -0.65989,-0.84175 -0.65989,-2.21349 0,-1.37175 0.65989,-2.2135 0.66509,-0.84175 1.71988,-0.84175 0.6443,0 1.10155,0.2546 0.46244,0.24941 0.76381,0.76901 z m -3.25789,2.03164 q 0,1.05478 0.43127,1.65752 0.43646,0.59754 1.19508,0.59754 0.75861,0 1.19508,-0.59754 0.43646,-0.60274 0.43646,-1.65752 0,-1.05479 -0.43646,-1.65233 -0.43647,-0.60274 -1.19508,-0.60274 -0.75862,0 -1.19508,0.60274 -0.43127,0.59754 -0.43127,1.65233 z"
         id="path23" /><path
         style="font-family:Sans;-inkscape-font-specification:'Sans, Normal';text-align:center;text-anchor:middle;fill:#ff5555"
         d="m 537.26875,177.59373 h 4.90502 v 0.88332 h -3.85543 v 2.29663 h 3.69436 v 0.88332 h -3.69436 v 2.81103 h 3.94896 v 0.88332 h -4.99855 z m 10.51152,2.82142 v -3.14877 h 0.95606 v 8.08497 h -0.95606 v -0.87293 q -0.30137,0.5196 -0.76382,0.7742 -0.45724,0.24941 -1.10155,0.24941 -1.05478,0 -1.71987,-0.84175 -0.65989,-0.84175 -0.65989,-2.21349 0,-1.37175 0.65989,-2.2135 0.66509,-0.84175 1.71987,-0.84175 0.64431,0 1.10155,0.2546 0.46245,0.24941 0.76382,0.76901 z m -3.25789,2.03164 q 0,1.05478 0.43126,1.65752 0.43647,0.59754 1.19508,0.59754 0.75862,0 1.19508,-0.59754 0.43647,-0.60274 0.43647,-1.65752 0,-1.05479 -0.43647,-1.65233 -0.43646,-0.60274 -1.19508,-0.60274 -0.75861,0 -1.19508,0.60274 -0.43126,0.59754 -0.43126,1.65233 z m 6.0845,0.60793 v -3.52289 h 0.95607 v 3.48652 q 0,0.82616 0.32215,1.24184 0.32215,0.41048 0.96645,0.41048 0.77421,0 1.22106,-0.49362 0.45205,-0.49362 0.45205,-1.34576 v -3.29946 h 0.95607 v 5.81952 h -0.95607 v -0.89371 q -0.34813,0.52999 -0.81057,0.78979 -0.45725,0.2546 -1.06518,0.2546 -1.00283,0 -1.52243,-0.62352 -0.5196,-0.62352 -0.5196,-1.82379 z m 2.40575,-3.66318 z m 8.62534,0.36372 v 0.89371 q -0.40529,-0.22343 -0.81578,-0.33254 -0.40528,-0.11431 -0.82096,-0.11431 -0.93009,0 -1.44449,0.59234 -0.5144,0.58715 -0.5144,1.65233 0,1.06518 0.5144,1.65752 0.5144,0.58715 1.44449,0.58715 0.41568,0 0.82096,-0.10912 0.41049,-0.11431 0.81578,-0.33774 v 0.88332 q -0.4001,0.18706 -0.83136,0.28058 -0.42608,0.0935 -0.9093,0.0935 -1.31459,0 -2.08879,-0.82616 -0.77421,-0.82616 -0.77421,-2.22908 0,-1.42371 0.7794,-2.23948 0.7846,-0.81577 2.14595,-0.81577 0.44166,0 0.86253,0.0935 0.42088,0.0883 0.81578,0.27019 z m 4.30749,2.67074 q -1.15871,0 -1.60556,0.265 -0.44686,0.26499 -0.44686,0.9041 0,0.50921 0.33255,0.81058 0.33774,0.29617 0.91449,0.29617 0.79499,0 1.27302,-0.56117 0.48323,-0.56636 0.48323,-1.50164 V 182.426 Z m 1.90693,-0.39489 v 3.32024 h -0.95606 v -0.88332 q -0.32735,0.52999 -0.81577,0.78459 -0.48843,0.24941 -1.19508,0.24941 -0.89371,0 -1.4237,-0.49881 -0.5248,-0.50401 -0.5248,-1.34577 0,-0.98204 0.6547,-1.48085 0.65989,-0.49882 1.96408,-0.49882 h 1.34057 v -0.0935 q 0,-0.65989 -0.43646,-1.01841 -0.43127,-0.36372 -1.21587,-0.36372 -0.49881,0 -0.97165,0.1195 -0.47283,0.11951 -0.9093,0.35853 v -0.88332 q 0.5248,-0.20264 1.01842,-0.30137 0.49362,-0.10392 0.96126,-0.10392 1.26262,0 1.88614,0.6547 0.62352,0.65469 0.62352,1.98487 z m 2.91495,-4.1516 v 1.65232 h 1.96928 v 0.74303 h -1.96928 v 3.15917 q 0,0.71185 0.19225,0.91449 0.19745,0.20265 0.79499,0.20265 h 0.98204 v 0.80018 h -0.98204 q -1.10675,0 -1.52763,-0.41048 -0.42087,-0.41568 -0.42087,-1.50684 v -3.15917 h -0.70146 v -0.74303 h 0.70146 v -1.65232 z m 3.22672,1.65232 h 0.95606 v 5.81952 h -0.95606 z m 0,-2.26545 h 0.95606 v 1.21067 h -0.95606 z m 5.21157,2.93574 q -0.769,0 -1.21586,0.60273 -0.44685,0.59754 -0.44685,1.64194 0,1.04439 0.44166,1.64713 0.44685,0.59754 1.22105,0.59754 0.76382,0 1.21067,-0.60274 0.44686,-0.60273 0.44686,-1.64193 0,-1.03401 -0.44686,-1.63674 -0.44685,-0.60793 -1.21067,-0.60793 z m 0,-0.81058 q 1.24704,0 1.95889,0.81058 0.71186,0.81057 0.71186,2.24467 0,1.4289 -0.71186,2.24467 -0.71185,0.81057 -1.95889,0.81057 -1.25223,0 -1.96408,-0.81057 -0.70666,-0.81577 -0.70666,-2.24467 0,-1.4341 0.70666,-2.24467 0.71185,-0.81058 1.96408,-0.81058 z m 9.093,2.44732 v 3.51249 h -0.95606 v -3.48132 q 0,-0.82616 -0.32215,-1.23665 -0.32215,-0.41048 -0.96646,-0.41048 -0.7742,0 -1.22106,0.49362 -0.44685,0.49362 -0.44685,1.34576 v 3.28907 h -0.96126 v -5.81952 h 0.96126 v 0.90411 q 0.34293,-0.5248 0.80538,-0.7846 0.46764,-0.2598 1.07557,-0.2598 1.00283,0 1.51723,0.62352 0.5144,0.61832 0.5144,1.8238 z"
         id="path24" /></g><g
       id="text5"
       style="font-size:34.5452px;-inkscape-font-specification:'sans-serif, ';opacity:0.98;fill:#f9f9f9;stroke-width:1.15564;stroke-linecap:round;stroke-linejoin:round"
       transform="scale(0.93139755,1.0736554)"
       aria-label="Hi !"><path
         style="font-weight:bold;font-family:Laksaman;-inkscape-font-specification:'Laksaman, Bold'"
         d="m 580.8759,129.01981 h -3.28179 v -11.74537 h -12.78173 v 11.74537 h -3.28179 v -24.73437 h 3.28179 v 10.19084 h 12.78173 v -10.19084 h 3.28179 z m 8.42902,0 h -3.2818 v -17.6526 h 3.2818 z m -1.72726,-25.35618 q 1.03635,0 1.7618,0.72545 0.76,0.72545 0.76,1.7618 0,1.03636 -0.76,1.76181 -0.72545,0.72545 -1.7618,0.72545 -1.03636,0 -1.76181,-0.72545 -0.72545,-0.72545 -0.72545,-1.76181 0,-1.03635 0.72545,-1.7618 0.72545,-0.72545 1.76181,-0.72545 z"
         id="path17" /><path
         style="font-weight:bold;font-family:Laksaman;-inkscape-font-specification:'Laksaman, Bold';fill:#ff5555"
         d="m 609.3756,121.79986 h -2.9018 l -0.37999,-17.51442 h 3.76542 z m -1.41635,2.69452 q 1.03635,0 1.7618,0.72545 0.76,0.72545 0.76,1.76181 0,1.03636 -0.76,1.79635 -0.72545,0.72545 -1.7618,0.72545 -1.03636,0 -1.76181,-0.72545 -0.72545,-0.75999 -0.72545,-1.79635 0,-1.03636 0.72545,-1.76181 0.72545,-0.72545 1.76181,-0.72545 z"
         id="path18" /></g></g></svg>
