<?xml version="1.0" encoding="UTF-8" standalone="no"?>
<!-- Created with Inkscape (http://www.inkscape.org/) -->

<svg
   width="48"
   height="48"
   viewBox="0 0 12.699999 12.7"
   version="1.1"
   id="svg1"
   xml:space="preserve"
   inkscape:version="1.3.2 (1:1.3.2+202311252150+091e20ef0f)"
   sodipodi:docname="electronicicon.svg"
   xmlns:inkscape="http://www.inkscape.org/namespaces/inkscape"
   xmlns:sodipodi="http://sodipodi.sourceforge.net/DTD/sodipodi-0.dtd"
   xmlns="http://www.w3.org/2000/svg"
   xmlns:svg="http://www.w3.org/2000/svg"><sodipodi:namedview
     id="namedview1"
     pagecolor="#505050"
     bordercolor="#eeeeee"
     borderopacity="1"
     inkscape:showpageshadow="0"
     inkscape:pageopacity="0"
     inkscape:pagecheckerboard="0"
     inkscape:deskcolor="#505050"
     inkscape:document-units="mm"
     inkscape:zoom="8.2243423"
     inkscape:cx="30.640748"
     inkscape:cy="29.789616"
     inkscape:window-width="1856"
     inkscape:window-height="1016"
     inkscape:window-x="0"
     inkscape:window-y="0"
     inkscape:window-maximized="1"
     inkscape:current-layer="layer1" /><defs
     id="defs1" /><g
     inkscape:label="Layer 1"
     inkscape:groupmode="layer"
     id="layer1"
     transform="translate(-35.893066,-75.822948)"><path
       style="fill:#333333;stroke-width:0.0970668"
       d="m 38.56894,88.267032 c -0.221534,-0.06944 -0.391805,-0.229623 -0.486752,-0.457916 -0.06142,-0.147682 -0.05159,-0.417369 0.02085,-0.572255 0.07064,-0.151033 0.255293,-0.329644 0.4011,-0.387984 l 0.103344,-0.04135 v -0.188564 c 0,-0.379846 0.100384,-0.598672 0.335069,-0.73042 l 0.114371,-0.06421 0.905272,-0.0076 0.905273,-0.0076 0.03763,-0.07276 c 0.09108,-0.176137 0.289349,-0.270908 0.53029,-0.25348 0.288667,0.02088 0.485108,0.239333 0.485108,0.539463 0,0.32184 -0.235302,0.559695 -0.553685,0.559695 -0.228701,0 -0.395561,-0.104868 -0.503495,-0.316434 l -0.05041,-0.09881 -0.813787,0.0095 c -0.614309,0.0072 -0.830672,0.01797 -0.882675,0.04402 -0.106789,0.05349 -0.139648,0.173743 -0.128342,0.469664 0.0044,0.115883 0.009,0.122758 0.113764,0.169293 0.165548,0.07357 0.265052,0.170983 0.351641,0.344264 0.102983,0.206088 0.10982,0.453101 0.01799,0.650287 -0.156218,0.335469 -0.560379,0.520531 -0.902564,0.413276 z m 0.410938,-0.398031 c 0.04355,-0.02391 0.102586,-0.09357 0.135787,-0.160197 0.05009,-0.100526 0.05512,-0.133974 0.0342,-0.227118 -0.04493,-0.199959 -0.242336,-0.331799 -0.438168,-0.292633 -0.11629,0.02326 -0.247474,0.156202 -0.282504,0.286295 -0.02501,0.09286 -0.02222,0.124779 0.01896,0.217671 0.05668,0.127837 0.09887,0.166922 0.22972,0.212784 0.106048,0.03717 0.184777,0.02758 0.30201,-0.0368 z m 5.675776,0.411146 c -0.214645,-0.05686 -0.395214,-0.205158 -0.504185,-0.414071 -0.08891,-0.170457 -0.08465,-0.475035 0.0092,-0.656527 0.07921,-0.1532 0.220047,-0.286954 0.375307,-0.356444 l 0.111461,-0.04989 -0.0087,-0.238367 c -0.01357,-0.370492 -0.05206,-0.389849 -0.779199,-0.391903 l -0.410915,-0.0012 -0.07029,0.127455 c -0.04169,0.07559 -0.11408,0.156433 -0.1779,0.198668 -0.09432,0.06242 -0.132142,0.07121 -0.306309,0.07121 -0.179052,0 -0.209713,-0.0076 -0.310063,-0.07721 -0.136665,-0.09475 -0.252614,-0.306859 -0.252614,-0.462121 0,-0.153983 0.116001,-0.367415 0.250269,-0.460473 0.126623,-0.08776 0.351515,-0.117446 0.505288,-0.0667 0.114339,0.03774 0.235354,0.136642 0.285257,0.233145 l 0.03736,0.07225 0.584511,0.0082 c 0.568437,0.0079 0.587656,0.0099 0.698882,0.07236 0.2343,0.131532 0.335068,0.350659 0.335068,0.72863 v 0.186775 l 0.125713,0.05682 c 0.06914,0.03125 0.178257,0.112988 0.242476,0.181645 0.420884,0.449959 0.115453,1.205791 -0.504087,1.247433 -0.0877,0.0059 -0.194119,0.0015 -0.236495,-0.0097 z m 0.384326,-0.411624 c 0.241651,-0.135804 0.227819,-0.53576 -0.02264,-0.65461 -0.22344,-0.106029 -0.461243,0.01157 -0.527394,0.260807 -0.02474,0.09322 -0.02189,0.125585 0.01921,0.218299 0.05668,0.127837 0.09887,0.166922 0.22972,0.212784 0.106422,0.0373 0.185899,0.02746 0.301102,-0.03728 z m -8.50254,-0.192374 c -0.162714,-0.07577 -0.292463,-0.20319 -0.372551,-0.365881 -0.08713,-0.176992 -0.08677,-0.458496 7.76e-4,-0.636436 0.08169,-0.165977 0.219963,-0.301271 0.383396,-0.375133 l 0.132229,-0.05976 4.85e-4,-0.759469 c 4.85e-4,-0.823561 0.01971,-0.995625 0.137177,-1.227428 0.07531,-0.148624 0.210214,-0.275044 0.374718,-0.351159 0.107371,-0.04968 0.174681,-0.05512 0.827839,-0.06692 l 0.710963,-0.01284 0.0595,-0.0875 c 0.03273,-0.04813 0.103494,-0.122907 0.157259,-0.166178 0.08299,-0.06678 0.124069,-0.08016 0.271892,-0.08851 0.137702,-0.0078 0.19516,9.71e-4 0.274635,0.04184 0.205308,0.10556 0.318802,0.28563 0.318802,0.505817 0,0.220186 -0.113494,0.400256 -0.318802,0.505816 -0.147985,0.07609 -0.405595,0.05798 -0.551815,-0.03878 -0.08838,-0.05849 -0.181167,-0.167805 -0.214357,-0.252549 -0.01257,-0.0321 -1.053392,-0.05287 -1.226134,-0.02447 -0.204154,0.03356 -0.276852,0.08365 -0.359846,0.247913 -0.06397,0.126616 -0.06424,0.130097 -0.07245,0.96235 l -0.0082,0.835275 0.09694,0.03505 c 0.152769,0.05524 0.356997,0.276769 0.405391,0.439729 0.08449,0.284524 0.03147,0.534467 -0.158124,0.745341 -0.163191,0.181507 -0.324102,0.254901 -0.558856,0.254901 -0.135362,0 -0.212149,-0.01507 -0.310811,-0.06101 z m 0.510984,-0.366582 c 0.226918,-0.115975 0.226334,-0.488259 -9.8e-4,-0.628749 -0.244807,-0.151299 -0.571581,0.0247 -0.571581,0.307851 0,0.10816 0.0333,0.184821 0.116287,0.267687 0.121559,0.121386 0.285485,0.140504 0.456279,0.05321 z m 10.018737,0.366582 c -0.284729,-0.13258 -0.432912,-0.366457 -0.432912,-0.68327 0,-0.313512 0.152683,-0.557767 0.430199,-0.688215 l 0.120908,-0.05683 -1.94e-4,-0.648346 c -2.92e-4,-1.007005 -0.04315,-1.222422 -0.26599,-1.337239 -0.106606,-0.05493 -0.229284,-0.0608 -1.017975,-0.04874 l -0.372441,0.0057 -0.08984,0.120373 c -0.131693,0.176449 -0.277182,0.24546 -0.493229,0.233955 -0.14034,-0.0075 -0.192673,-0.02333 -0.282504,-0.0856 -0.135535,-0.09395 -0.251509,-0.306683 -0.251509,-0.461344 0,-0.155263 0.115948,-0.367374 0.252615,-0.462122 0.100621,-0.06976 0.130749,-0.07721 0.312394,-0.07721 0.182338,0 0.21139,0.0073 0.312395,0.07799 0.06125,0.04289 0.134218,0.12025 0.162154,0.171905 l 0.05079,0.09392 0.706834,0.0079 c 0.674594,0.0075 0.712694,0.01057 0.835247,0.06697 0.163063,0.07505 0.282652,0.189583 0.363825,0.348449 0.116819,0.228627 0.136049,0.401924 0.136533,1.230329 l 4.85e-4,0.764682 0.07063,0.02558 c 0.289731,0.104924 0.481078,0.347615 0.512257,0.64971 0.03054,0.295908 -0.160503,0.6218 -0.44111,0.752471 -0.180047,0.08384 -0.438237,0.08344 -0.619519,-9.71e-4 z m 0.404562,-0.324362 c 0.269737,-0.07492 0.367533,-0.42016 0.173875,-0.613817 -0.269648,-0.269647 -0.700017,-0.03444 -0.629059,0.343798 0.02586,0.137871 0.176348,0.264738 0.348592,0.293885 0.0071,0.0012 0.05503,-0.0095 0.106592,-0.02387 z m -6.591359,-2.34619 c -0.234018,-0.07513 -0.405497,-0.218693 -0.5068,-0.424284 l -0.05821,-0.118135 -0.0069,-1.840415 c -0.0068,-1.804953 -0.0059,-1.843143 0.04606,-1.982007 0.06372,-0.17032 0.205876,-0.323597 0.390149,-0.420689 l 0.135715,-0.07151 h 1.25843 1.25843 l 0.133784,0.07053 c 0.18022,0.09501 0.330701,0.257618 0.393345,0.425048 0.05031,0.13447 0.05152,0.18803 0.0448,1.978626 l -0.0069,1.840415 -0.05821,0.118135 c -0.07925,0.160828 -0.221955,0.299357 -0.39123,0.379772 l -0.141252,0.0671 -1.194225,0.0052 c -0.913792,0.004 -1.218347,-0.0026 -1.296953,-0.02779 z m 6.518988,-1.705505 c -0.222276,-0.07954 -0.371716,-0.218798 -0.45901,-0.427722 l -0.03818,-0.09138 h -0.692417 -0.692416 l -0.03689,0.07063 c -0.09183,0.1758 -0.283938,0.288925 -0.490662,0.288925 -0.31167,0 -0.552421,-0.248327 -0.552421,-0.569804 0,-0.137589 0.123576,-0.355025 0.252614,-0.444486 0.100622,-0.06976 0.13075,-0.07721 0.312395,-0.07721 0.182338,0 0.21139,0.0073 0.312396,0.07799 0.06125,0.04289 0.134475,0.12087 0.162726,0.173285 l 0.05136,0.0953 0.686287,6.9e-5 0.686286,7e-5 0.05515,-0.128197 c 0.06395,-0.148648 0.210586,-0.291027 0.379734,-0.368705 0.166737,-0.07657 0.461053,-0.07455 0.612383,0.0042 0.162542,0.08458 0.285111,0.203281 0.360523,0.349145 0.0559,0.108125 0.06782,0.166239 0.06898,0.336181 0.0012,0.18088 -0.0077,0.221799 -0.07428,0.342058 -0.18609,0.335932 -0.565517,0.49099 -0.904557,0.369659 z m 0.417353,-0.380582 c 0.186055,-0.08829 0.255958,-0.347542 0.142993,-0.530322 -0.157834,-0.25538 -0.550904,-0.215249 -0.658796,0.06726 -0.03447,0.09025 -0.03721,0.13043 -0.01442,0.211554 0.0351,0.124995 0.06884,0.16917 0.181836,0.238052 0.106736,0.06507 0.229624,0.06981 0.348391,0.01345 z m -10.329022,0.31361 c -0.163196,-0.07599 -0.308428,-0.218868 -0.378926,-0.372786 -0.07906,-0.172622 -0.07614,-0.460244 0.0064,-0.627871 0.236727,-0.480881 0.870109,-0.581221 1.222869,-0.193728 0.0566,0.06217 0.124807,0.162159 0.151573,0.222191 0.04584,0.102807 0.05478,0.109138 0.153914,0.108951 0.09555,-1.94e-4 0.110575,-0.0095 0.163061,-0.101441 0.09824,-0.172042 0.292389,-0.283594 0.493584,-0.283594 0.142619,0 0.359199,0.121566 0.450053,0.252614 0.06976,0.100621 0.07721,0.130751 0.07721,0.312396 0,0.181644 -0.0074,0.211773 -0.07721,0.312395 -0.09475,0.136666 -0.306859,0.252614 -0.462121,0.252614 -0.164314,0 -0.369098,-0.115996 -0.462281,-0.261848 -0.07092,-0.111002 -0.08545,-0.120708 -0.182706,-0.121991 -0.101769,-0.0013 -0.107266,0.0028 -0.149226,0.112678 -0.141256,0.369875 -0.6365,0.561551 -1.006169,0.38942 z m 0.506051,-0.382014 c 0.172637,-0.11533 0.226856,-0.347671 0.118856,-0.509335 -0.157042,-0.235078 -0.486505,-0.230521 -0.636788,0.0088 -0.06511,0.103691 -0.05581,0.297915 0.01917,0.400223 0.11465,0.156445 0.345295,0.20283 0.498767,0.100304 z m -1.402826,-1.080899 c -0.07335,-0.03416 -0.179541,-0.11633 -0.246338,-0.190624 -0.438697,-0.487937 -0.102431,-1.237903 0.555046,-1.237903 0.303036,0 0.56502,0.172624 0.691079,0.455358 l 0.04867,0.109149 0.554689,-1.94e-4 0.554688,-1.94e-4 0.05781,-0.101244 c 0.09824,-0.172042 0.292389,-0.283594 0.493584,-0.283594 0.142619,0 0.359199,0.121566 0.450053,0.252614 0.06976,0.100621 0.07721,0.130751 0.07721,0.312396 0,0.181644 -0.0074,0.211773 -0.07721,0.312394 -0.09475,0.136666 -0.306859,0.252615 -0.462121,0.252615 -0.164314,0 -0.369098,-0.115996 -0.462281,-0.261849 l -0.07705,-0.120596 -0.5551,-0.0014 -0.555099,-0.0014 -0.04266,0.111704 c -0.06034,0.157985 -0.19906,0.309296 -0.354655,0.386833 -0.182758,0.09107 -0.462011,0.09362 -0.650315,0.0059 z m 0.517852,-0.378618 c 0.301692,-0.185398 0.149192,-0.673738 -0.210395,-0.673738 -0.276999,0 -0.4504,0.283214 -0.329452,0.538092 0.09687,0.204135 0.332182,0.263263 0.539847,0.135646 z m 7.759134,0.233812 c -0.243277,-0.07325 -0.385475,-0.267623 -0.38399,-0.524879 10e-4,-0.177104 0.04294,-0.287308 0.155421,-0.408565 0.268895,-0.289885 0.74945,-0.204717 0.91488,0.162141 l 0.04665,0.103454 h 0.509225 c 0.577343,0 0.677241,-0.02156 0.766106,-0.165348 0.08922,-0.144365 0.102675,-0.389288 0.103201,-1.87891 l 4.85e-4,-1.440726 -0.102961,-0.04643 c -0.223816,-0.100927 -0.410684,-0.393025 -0.410684,-0.641951 0,-0.365797 0.340465,-0.706262 0.706261,-0.706262 0.365797,0 0.706263,0.340465 0.706263,0.706262 0,0.250876 -0.197525,0.552674 -0.422669,0.645795 l -0.114187,0.04723 -0.0077,1.605339 c -0.0076,1.598224 -0.0079,1.605974 -0.06565,1.748629 -0.07903,0.195334 -0.210185,0.3404 -0.385671,0.426575 -0.146381,0.07188 -0.149568,0.07223 -0.742507,0.08066 l -0.595495,0.0085 -0.123607,0.12346 c -0.163243,0.163047 -0.351608,0.215821 -0.553425,0.155053 z m 2.381797,-4.520185 c 0.06307,0 0.190654,-0.130517 0.215484,-0.220443 0.0862,-0.312192 -0.291409,-0.537205 -0.528202,-0.31475 -0.175139,0.164535 -0.09866,0.46405 0.136473,0.534449 0.04036,0.01208 0.08878,0.01719 0.107589,0.01136 0.01881,-0.0058 0.04971,-0.01061 0.06866,-0.01061 z m -6.120496,2.566147 c -0.0609,-0.03092 -0.145793,-0.09985 -0.188658,-0.153191 l -0.07794,-0.09698 -0.508907,-0.0087 -0.508907,-0.0087 -0.231346,-0.117847 c -0.12724,-0.06482 -0.608141,-0.382634 -1.06867,-0.706262 -0.460528,-0.323628 -0.932888,-0.655184 -1.049688,-0.73679 l -0.212365,-0.148376 -0.08882,0.04511 c -0.05403,0.02744 -0.166138,0.04887 -0.286197,0.05471 -0.167432,0.0081 -0.218105,9.7e-5 -0.334025,-0.05296 -0.278947,-0.127706 -0.431183,-0.365909 -0.431183,-0.674671 0,-0.234945 0.07337,-0.395642 0.255332,-0.559242 0.480951,-0.432417 1.232551,-0.09506 1.233486,0.553647 9.7e-5,0.09847 -0.01675,0.214871 -0.03886,0.26779 -0.02151,0.05148 -0.03018,0.101388 -0.01926,0.110895 0.03738,0.03255 1.765971,1.248354 1.958861,1.377767 0.343187,0.230248 0.318402,0.223282 0.83496,0.23469 l 0.462567,0.01022 0.03409,-0.09428 c 0.08477,-0.234428 0.296874,-0.362406 0.568113,-0.342787 0.118035,0.0085 0.181172,0.02928 0.264129,0.08678 0.134268,0.09306 0.250269,0.306491 0.250269,0.460473 0,0.154662 -0.115973,0.367393 -0.251508,0.461345 -0.150841,0.104561 -0.400619,0.121073 -0.565474,0.03738 z m -4.060022,-2.316257 c 0.100623,-0.06722 0.177073,-0.20283 0.177073,-0.314096 0,-0.111266 -0.07645,-0.246875 -0.177073,-0.314095 -0.23239,-0.155247 -0.567632,0.03026 -0.567632,0.314095 0,0.283839 0.335242,0.469343 0.567632,0.314096 z m 5.568768,2.299073 c -0.196053,-0.09942 -0.288017,-0.23808 -0.301836,-0.455109 -0.014,-0.219805 0.05551,-0.368361 0.231512,-0.494805 l 0.126388,-0.0908 -0.0079,-0.483605 c -0.0069,-0.423286 -0.01366,-0.489318 -0.05377,-0.529405 -0.04161,-0.04159 -0.117719,-0.04649 -0.827464,-0.05328 l -0.781638,-0.0075 -0.03895,0.09322 c -0.06724,0.160926 -0.187695,0.287098 -0.352909,0.369657 -0.384205,0.191989 -0.854456,0.02983 -1.031558,-0.355723 -0.08093,-0.176196 -0.07419,-0.459951 0.01501,-0.631511 0.174966,-0.336517 0.550653,-0.495886 0.905707,-0.384208 0.190075,0.05979 0.39595,0.243647 0.472768,0.422215 l 0.05546,0.128927 0.801856,5.63e-4 c 0.897621,6.31e-4 0.948389,0.0092 1.077375,0.182837 0.108712,0.146304 0.122557,0.231694 0.122557,0.75591 v 0.495047 l 0.108009,0.05971 c 0.05941,0.03284 0.143193,0.109823 0.186196,0.171072 0.07099,0.101104 0.07819,0.129881 0.07819,0.312396 0,0.181643 -0.0074,0.211773 -0.07721,0.312394 -0.09475,0.136666 -0.306859,0.252615 -0.462121,0.252615 -0.06514,0 -0.160333,-0.02737 -0.245639,-0.07063 z M 40.504485,77.62628 c 0.10469,-0.0767 0.162262,-0.207256 0.148963,-0.337802 -0.03743,-0.36746 -0.523495,-0.458931 -0.691185,-0.130072 -0.133322,0.261462 0.07034,0.558643 0.362445,0.528885 0.06165,-0.0063 0.142546,-0.03373 0.179777,-0.06101 z"
       id="path1" /></g></svg>
