<?xml version="1.0" encoding="UTF-8" standalone="no"?>
<!-- Uploaded to: SVG Repo, www.svgrepo.com, Generator: SVG Repo Mixer Tools -->

<svg
   fill="#000000"
   width="48"
   height="48"
   viewBox="0 0 0.96 0.96"
   id="hardware-16px"
   version="1.1"
   sodipodi:docname="hardwareicon.svg"
   inkscape:version="1.3.2 (1:1.3.2+202311252150+091e20ef0f)"
   xmlns:inkscape="http://www.inkscape.org/namespaces/inkscape"
   xmlns:sodipodi="http://sodipodi.sourceforge.net/DTD/sodipodi-0.dtd"
   xmlns="http://www.w3.org/2000/svg"
   xmlns:svg="http://www.w3.org/2000/svg">
  <defs
     id="defs1" />
  <sodipodi:namedview
     id="namedview1"
     pagecolor="#505050"
     bordercolor="#eeeeee"
     borderopacity="1"
     inkscape:showpageshadow="0"
     inkscape:pageopacity="0"
     inkscape:pagecheckerboard="0"
     inkscape:deskcolor="#505050"
     inkscape:zoom="8.16"
     inkscape:cx="38.909314"
     inkscape:cy="20.343137"
     inkscape:window-width="1856"
     inkscape:window-height="1016"
     inkscape:window-x="0"
     inkscape:window-y="0"
     inkscape:window-maximized="1"
     inkscape:current-layer="hardware-16px" />
  <path
     id="Path_94"
     data-name="Path 94"
     d="M 0.8530651,0.02084291 H 0.10693485 A 0.08609195,0.08609195 0 0 0 0.02084291,0.10693485 V 0.8530651 a 0.08609195,0.08609195 0 0 0 0.08609194,0.086092 H 0.8530651 a 0.08609195,0.08609195 0 0 0 0.086092,-0.086092 V 0.10693485 A 0.08609195,0.08609195 0 0 0 0.8530651,0.02084291 Z m 0,0.8609195 H 0.30781608 v -0.0286971 a 0.02869732,0.02869732 0 0 0 -0.0573946,0 v 0.0286971 H 0.19302682 V 0.73827584 a 0.02869732,0.02869732 0 0 0 -0.0573946,0 V 0.88176241 H 0.10693485 A 0.02869732,0.02869732 0 0 1 0.07823754,0.8530651 V 0.10693485 A 0.02869732,0.02869732 0 0 1 0.10693485,0.07823754 h 0.25827588 v 0.4878544 a 0.02869732,0.02869732 0 0 0 0.0286973,0.0286973 h 0.0913723 a 0.08609195,0.08609195 0 1 0 0,-0.0573946 h -0.062675 v -0.4591571 h 0.43045975 a 0.02869732,0.02869732 0 0 1 0.0286971,0.02869731 v 0.0286973 h -0.1434864 a 0.02869732,0.02869732 0 0 0 0,0.0573946 H 0.8817624 v 0.0573946 h -0.086092 a 0.02869732,0.02869732 0 0 0 0,0.0573946 h 0.086092 v 0.0573946 H 0.59478926 v -0.062675 a 0.08609195,0.08609195 0 1 0 -0.0573946,0 v 0.0913723 a 0.02869732,0.02869732 0 0 0 0.0286973,0.0286973 h 0.31567047 v 0.4304599 A 0.02869732,0.02869732 0 0 1 0.8530651,0.88176241 Z M 0.53739463,0.56609194 a 0.02869732,0.02869732 0 1 1 0.0286973,0.0286973 0.02869732,0.02869732 0 0 1 -0.0286973,-0.0286973 z m 0,-0.3443678 a 0.02869732,0.02869732 0 1 1 0.0286973,0.0286973 0.02869732,0.02869732 0 0 1 -0.0286973,-0.0286973 z M 0.73827584,0.6521839 A 0.08609195,0.08609195 0 0 0 0.6574642,0.70957854 H 0.34839408 L 0.25042143,0.61160589 V 0.30253578 a 0.08609195,0.08609195 0 1 0 -0.0573946,0 v 0.3209508 a 0.02869732,0.02869732 0 0 0 0.00838,0.0203177 L 0.3161957,0.75859355 a 0.02869732,0.02869732 0 0 0 0.0203177,0.00838 H 0.65746419 A 0.08609195,0.08609195 0 1 0 0.73827584,0.6521839 Z M 0.22172414,0.19302682 a 0.02869732,0.02869732 0 1 1 -0.0286973,0.0286973 0.02869732,0.02869732 0 0 1 0.0286973,-0.0286973 z m 0.5165517,0.57394635 a 0.02869732,0.02869732 0 1 1 0.0286973,-0.0286973 0.02869732,0.02869732 0 0 1 -0.0286973,0.0286973 z"
     style="fill:#333333;stroke-width:0.0573945" />
</svg>
