<?xml version="1.0" encoding="UTF-8" standalone="no"?>
<!-- Created with Inkscape (http://www.inkscape.org/) -->

<svg
   width="48"
   height="48"
   viewBox="0 0 12.699999 12.7"
   version="1.1"
   id="svg1"
   xml:space="preserve"
   inkscape:version="1.3.2 (1:1.3.2+202311252150+091e20ef0f)"
   sodipodi:docname="mechanicalicon.svg"
   xmlns:inkscape="http://www.inkscape.org/namespaces/inkscape"
   xmlns:sodipodi="http://sodipodi.sourceforge.net/DTD/sodipodi-0.dtd"
   xmlns="http://www.w3.org/2000/svg"
   xmlns:svg="http://www.w3.org/2000/svg"><sodipodi:namedview
     id="namedview1"
     pagecolor="#505050"
     bordercolor="#eeeeee"
     borderopacity="1"
     inkscape:showpageshadow="0"
     inkscape:pageopacity="0"
     inkscape:pagecheckerboard="0"
     inkscape:deskcolor="#505050"
     inkscape:document-units="mm"
     inkscape:zoom="8.2243423"
     inkscape:cx="21.764658"
     inkscape:cy="36.963442"
     inkscape:window-width="1856"
     inkscape:window-height="1016"
     inkscape:window-x="0"
     inkscape:window-y="0"
     inkscape:window-maximized="1"
     inkscape:current-layer="layer1" /><defs
     id="defs1" /><g
     inkscape:label="Layer 1"
     inkscape:groupmode="layer"
     id="layer1"
     transform="translate(-12.350772,-40.381226)"><path
       style="fill:#333333;stroke-width:0.0642626"
       d="M 17.986029,52.945269 C 17.181143,52.736662 16.449434,52.406134 15.76993,51.94421 15.645,51.85928 15.539211,51.78049 15.534846,51.769115 c -0.0044,-0.01137 0.129685,-0.20385 0.297886,-0.427724 l 0.305822,-0.407044 -0.180007,-0.142661 c -0.570063,-0.451792 -1.092365,-1.070816 -1.46173,-1.732423 -0.06004,-0.107541 -0.115214,-0.201798 -0.12261,-0.209458 -0.0074,-0.0077 -0.220113,0.08946 -0.472706,0.215825 l -0.45926,0.229752 -0.08933,-0.190321 c -0.253774,-0.540747 -0.446866,-1.158087 -0.551452,-1.763079 -0.04972,-0.2876 -0.09443,-0.696911 -0.09443,-0.864445 v -0.117289 l 0.51078,-0.01497 0.510781,-0.01497 0.0074,-0.293743 c 0.01985,-0.790772 0.159661,-1.476277 0.441776,-2.166175 0.05083,-0.124281 0.08692,-0.231413 0.08023,-0.238071 -0.0066,-0.0066 -0.214939,-0.105124 -0.462755,-0.218807 -0.247816,-0.113686 -0.452949,-0.208931 -0.455852,-0.211654 -0.01088,-0.01023 0.224438,-0.461796 0.352952,-0.677346 0.257701,-0.432231 0.550864,-0.819364 0.927465,-1.224758 0.12275,-0.132136 0.234191,-0.241832 0.247648,-0.243768 0.01401,-0.002 0.324312,0.367366 0.726323,0.86462 l 0.701856,0.86814 -0.125321,0.138512 c -0.764938,0.84546 -1.179735,1.806064 -1.271232,2.943974 -0.07481,0.930356 0.19251,1.997654 0.709867,2.834223 0.272428,0.440516 0.773971,0.99023 1.178786,1.292 1.133356,0.844864 2.510529,1.154657 3.867473,0.869984 0.518024,-0.108677 1.048178,-0.316584 1.488406,-0.583701 0.09002,-0.05462 0.152231,-0.08244 0.16496,-0.07375 0.01453,0.0099 1.178839,1.438679 1.38486,1.699399 0.01034,0.01305 -0.04338,0.05717 -0.167985,0.138037 -0.550065,0.357015 -1.190181,0.647729 -1.840155,0.835718 -0.09777,0.02827 -0.180396,0.0488 -0.1836,0.04558 -0.0033,-0.0033 -0.0631,-0.226324 -0.133093,-0.495819 -0.06999,-0.269496 -0.129747,-0.492474 -0.132779,-0.495505 -0.0031,-0.0031 -0.06984,0.0095 -0.14847,0.02782 -0.45463,0.106006 -0.82533,0.145521 -1.366634,0.145675 -0.465602,1.29e-4 -0.656801,-0.01428 -1.027086,-0.07743 -0.10667,-0.01819 -0.196604,-0.03042 -0.199852,-0.02717 -0.0059,0.0059 -0.209305,0.961257 -0.209626,0.984843 -3.21e-4,0.02343 -0.07495,0.01194 -0.298098,-0.04589 z m 1.072947,-3.198397 c -0.352797,-0.286374 -0.63828,-0.529545 -0.634407,-0.540383 0.0038,-0.01084 0.06363,-0.376228 0.132811,-0.811979 l 0.125769,-0.792273 0.769682,-0.294182 c 0.701228,-0.268017 0.772317,-0.291877 0.799317,-0.268274 0.0163,0.01425 0.301255,0.246283 0.633235,0.515635 0.44887,0.36419 0.603383,0.498761 0.602756,0.524961 -4.5e-4,0.01938 -0.05723,0.387189 -0.126154,0.817361 l -0.12531,0.782129 -0.755966,0.289048 c -0.41578,0.158975 -0.761438,0.291203 -0.768124,0.293841 -0.0067,0.0027 -0.300814,-0.22951 -0.653609,-0.515884 z m 1.130456,-0.238946 c 0.163014,-0.04839 0.291117,-0.124785 0.406904,-0.242647 0.40438,-0.411631 0.328715,-1.064038 -0.1603,-1.382155 -0.14474,-0.09415 -0.291389,-0.136137 -0.477305,-0.136635 -0.392376,-0.0011 -0.721512,0.239375 -0.849454,0.620505 -0.05178,0.154266 -0.05839,0.362327 -0.01608,0.506404 0.08975,0.305549 0.340363,0.555055 0.637894,0.63507 0.124594,0.03351 0.344509,0.03324 0.45833,-5.15e-4 z m 3.271873,-0.472504 c -0.179564,-0.05693 -0.317374,-0.172833 -0.396087,-0.333102 -0.04067,-0.08281 -0.04599,-0.113281 -0.04599,-0.263659 0,-0.14818 0.0057,-0.182306 0.0448,-0.265583 0.02464,-0.05255 0.07233,-0.126016 0.105956,-0.163242 0.0756,-0.08368 0.236544,-0.171413 0.340623,-0.185679 l 0.07821,-0.01072 v 0.622913 c 0,0.698755 0.01181,0.643253 -0.127521,0.599072 z m 0.212536,-0.597179 v -0.624804 l 0.0782,0.01072 c 0.10408,0.01427 0.265024,0.102002 0.340624,0.185679 0.03363,0.03723 0.08131,0.110687 0.105955,0.163242 0.03904,0.08328 0.0448,0.1174 0.0448,0.265583 -3e-6,0.150483 -0.0052,0.180804 -0.04609,0.263757 -0.08516,0.173227 -0.272764,0.315725 -0.459747,0.349211 l -0.06376,0.01142 z m -7.081664,-0.652106 c -0.36471,-0.09043 -0.66311,-0.171892 -0.66311,-0.181019 0,-0.0091 0.04591,-0.205868 0.102013,-0.437198 0.08179,-0.337215 0.107074,-0.41906 0.127521,-0.412816 0.01402,0.0043 0.326333,0.08149 0.694012,0.17156 0.442619,0.108433 0.665993,0.170363 0.661065,0.183278 -0.0041,0.01073 -0.05234,0.205047 -0.107197,0.431822 -0.07678,0.317387 -0.105678,0.411913 -0.125478,0.410559 -0.01415,-9.59e-4 -0.32412,-0.07575 -0.68883,-0.166186 z m 0.245338,-1.070769 -0.655807,-0.164017 0.02727,-0.109287 c 0.015,-0.06011 0.03541,-0.112007 0.04539,-0.115331 0.01572,-0.0052 1.349652,0.314173 1.36295,0.326356 0.0028,0.0026 -0.0077,0.05525 -0.02332,0.117185 -0.02409,0.09592 -0.03367,0.112371 -0.06449,0.110872 -0.0199,-9.57e-4 -0.331302,-0.07556 -0.691997,-0.165778 z m 0.14081,-0.427263 c -0.367414,-0.0913 -0.672463,-0.170427 -0.67789,-0.175854 -0.0055,-0.0055 0.0035,-0.06402 0.01962,-0.130211 0.02353,-0.09605 0.0351,-0.118688 0.0573,-0.112122 0.0153,0.0045 0.299415,0.07404 0.631395,0.15448 0.33198,0.08044 0.631642,0.153608 0.665914,0.162592 0.06011,0.01576 0.0618,0.01829 0.04785,0.07132 -0.0079,0.03024 -0.02291,0.08751 -0.03322,0.127254 -0.01033,0.03974 -0.02418,0.07143 -0.03084,0.07039 -0.0067,-0.0011 -0.31271,-0.07658 -0.680124,-0.16786 z m 3.617534,-0.535962 c -0.275228,-0.377552 -0.502154,-0.692664 -0.50428,-0.700249 -0.0036,-0.01279 0.886831,-0.668846 0.92234,-0.679573 0.0088,-0.0027 0.22034,0.276129 0.470104,0.619523 0.249762,0.343395 0.477283,0.655829 0.505601,0.694301 l 0.05148,0.06995 -0.454595,0.330925 c -0.250025,0.182009 -0.462614,0.335573 -0.472416,0.341254 -0.0099,0.0057 -0.240259,-0.294798 -0.518241,-0.676129 z m -3.527605,0.08131 c -0.36471,-0.08938 -0.664594,-0.163561 -0.666413,-0.164847 -0.0018,-0.0013 0.0088,-0.05041 0.02362,-0.109182 0.01549,-0.06152 0.0205,-0.112564 0.0118,-0.120332 -0.0083,-0.0075 -0.152831,-0.04604 -0.321157,-0.08581 -0.168328,-0.03977 -0.310641,-0.07723 -0.316251,-0.08323 -0.01073,-0.01148 0.175989,-0.794469 0.193666,-0.812146 0.01142,-0.01142 1.15213,0.26247 1.17299,0.281648 0.0073,0.0066 0.0021,0.05984 -0.01148,0.118123 -0.01855,0.07954 -0.01973,0.107652 -0.0046,0.112755 0.06828,0.02323 0.291734,0.07311 0.301236,0.06724 0.0063,-0.0039 0.02123,-0.05321 0.0332,-0.109585 0.01197,-0.05639 0.03028,-0.102624 0.04068,-0.102761 0.03248,-4.5e-4 1.157479,0.275659 1.169598,0.287027 0.01591,0.01491 -0.181092,0.806926 -0.202472,0.814053 -0.0095,0.0032 -0.156394,-0.02917 -0.326421,-0.07187 -0.170025,-0.04269 -0.315265,-0.07384 -0.322753,-0.06921 -0.0075,0.0046 -0.0234,0.05454 -0.03537,0.11093 -0.01597,0.07525 -0.02906,0.10214 -0.04918,0.101116 -0.01509,-7.71e-4 -0.325831,-0.07453 -0.69054,-0.163908 z m 4.671296,-0.927215 -0.509858,-0.698987 0.123795,-0.0904 c 0.06809,-0.04972 0.130252,-0.09003 0.138146,-0.08957 0.01928,0.0012 1.000514,1.352716 1.000514,1.378147 0,0.01099 -0.05462,0.06044 -0.121369,0.109896 l -0.121368,0.08991 z m 2.219554,0.483271 c -0.06805,-0.09274 -0.204075,-0.280079 -0.302266,-0.416319 -0.09819,-0.136239 -0.184342,-0.248143 -0.191445,-0.248673 -0.0071,-5.16e-4 -0.06857,0.0402 -0.136585,0.09048 l -0.123667,0.09146 -0.500937,-0.686302 c -0.275515,-0.377464 -0.503265,-0.693287 -0.506113,-0.701829 -0.0029,-0.0086 0.05206,-0.05679 0.122006,-0.107248 l 0.12718,-0.09172 -0.308001,-0.422501 -0.308003,-0.422502 0.04139,-0.03403 c 0.06219,-0.05113 0.29986,-0.160687 0.415451,-0.191491 0.142975,-0.03811 0.433775,-0.05049 0.605516,-0.02579 0.375738,0.05404 0.764921,0.251969 1.077796,0.548131 0.07947,0.07523 0.144489,0.142977 0.144489,0.150565 0,0.0076 -0.04973,0.05033 -0.110519,0.09495 -0.06078,0.04463 -0.110518,0.08745 -0.110518,0.09517 0,0.0077 0.04722,0.07877 0.104924,0.157914 0.06674,0.09152 0.111603,0.138778 0.123269,0.129836 0.07632,-0.05849 0.21397,-0.155301 0.220819,-0.155301 0.01803,0 0.130173,0.220293 0.18668,0.366688 0.102086,0.264473 0.133865,0.463972 0.124421,0.781 -0.0094,0.313752 -0.03213,0.4198 -0.138761,0.646108 -0.103458,0.219571 -0.270441,0.425121 -0.412605,0.507909 -0.01354,0.0078 -0.06393,-0.0467 -0.144524,-0.156505 z m -1.739149,-0.813343 c -0.271114,-0.371233 -0.498453,-0.683973 -0.505198,-0.694978 -0.01543,-0.02518 0.254685,-0.223291 0.274671,-0.201459 0.01661,0.01814 0.97504,1.332693 0.992431,1.361185 0.01068,0.01751 -0.187661,0.179017 -0.248573,0.20239 -0.01171,0.0045 -0.230278,-0.279558 -0.513331,-0.667138 z m -3.891213,-0.525694 c -0.276153,-0.06683 -0.510911,-0.286212 -0.604916,-0.565267 -0.01923,-0.05709 -0.03498,-0.126996 -0.03498,-0.155345 V 43.2783 h 0.860136 0.860136 l -0.0118,0.07226 c -0.0813,0.498074 -0.572692,0.819927 -1.068593,0.699895 z m -0.634808,-0.986468 c 0.0058,-0.05674 0.03415,-0.146481 0.06991,-0.221801 0.239347,-0.503995 0.888697,-0.650105 1.329571,-0.299165 0.14799,0.117801 0.275493,0.342257 0.30457,0.53616 l 0.01201,0.0801 h -0.86295 -0.862951 z m 2.277548,-1.175015 -0.3103,-0.180099 2.56e-4,-0.384231 2.58e-4,-0.384231 0.321409,-0.184221 0.32141,-0.18422 0.320211,0.184835 0.320213,0.184835 0.0044,0.381948 0.0044,0.381948 -0.318954,0.18278 c -0.175425,0.100526 -0.326587,0.182324 -0.335915,0.181767 -0.0094,-5.78e-4 -0.156594,-0.08206 -0.327261,-0.181111 z m 0.516887,-0.202514 c 0.180822,-0.08523 0.266183,-0.287778 0.206089,-0.489032 -0.03013,-0.100896 -0.170175,-0.239763 -0.268017,-0.265757 -0.188245,-0.05001 -0.372996,0.02211 -0.469687,0.183323 -0.064,0.106716 -0.07893,0.18579 -0.05562,0.294495 0.03319,0.154748 0.170783,0.290992 0.322598,0.319429 0.09664,0.0181 0.156538,0.0086 0.26464,-0.04246 z"
       id="path2" /></g></svg>
