<?xml version="1.0" encoding="UTF-8" standalone="no"?>
<!-- Created with Inkscape (http://www.inkscape.org/) -->

<svg
   width="48"
   height="48"
   viewBox="0 0 12.7 12.7"
   version="1.1"
   id="svg1"
   xml:space="preserve"
   inkscape:version="1.3.2 (1:1.3.2+202311252150+091e20ef0f)"
   sodipodi:docname="projectmanagementico.svg"
   xmlns:inkscape="http://www.inkscape.org/namespaces/inkscape"
   xmlns:sodipodi="http://sodipodi.sourceforge.net/DTD/sodipodi-0.dtd"
   xmlns="http://www.w3.org/2000/svg"
   xmlns:svg="http://www.w3.org/2000/svg"><sodipodi:namedview
     id="namedview1"
     pagecolor="#505050"
     bordercolor="#eeeeee"
     borderopacity="1"
     inkscape:showpageshadow="0"
     inkscape:pageopacity="0"
     inkscape:pagecheckerboard="0"
     inkscape:deskcolor="#505050"
     inkscape:document-units="mm"
     inkscape:zoom="8.2243423"
     inkscape:cx="9.8488119"
     inkscape:cy="29.789616"
     inkscape:window-width="1856"
     inkscape:window-height="1016"
     inkscape:window-x="0"
     inkscape:window-y="0"
     inkscape:window-maximized="1"
     inkscape:current-layer="layer1" /><defs
     id="defs1" /><g
     inkscape:label="Layer 1"
     inkscape:groupmode="layer"
     id="layer1"
     transform="translate(-49.193692,-98.211401)"><path
       style="fill:#333333;stroke-width:0.0913271"
       d="m 49.683748,110.3187 c -0.124476,-0.0565 -0.267952,-0.21552 -0.300755,-0.33328 -0.01775,-0.0636 -0.0254,-1.65116 -0.02477,-5.13479 0.0011,-5.445374 -0.0067,-5.129023 0.12841,-5.305564 0.106945,-0.139783 0.245716,-0.188795 0.57257,-0.202218 l 0.284891,-0.01171 0.009,-0.264686 c 0.0087,-0.2546 0.01164,-0.266885 0.07652,-0.322511 0.06505,-0.05579 0.08082,-0.0578 0.447232,-0.05705 0.500521,0.0011 0.512901,0.01087 0.512901,0.407808 v 0.242856 h 0.6534 0.653404 v -0.242859 c 0,-0.396956 0.01238,-0.406802 0.512902,-0.407809 0.367035,-5.3e-4 0.382084,0.0011 0.447701,0.05742 0.06567,0.05626 0.06818,0.06699 0.0761,0.325717 l 0.0083,0.267537 h 0.651258 0.651262 v -0.266492 c 0,-0.25078 0.0037,-0.269992 0.0594,-0.325723 0.05814,-0.05797 0.06762,-0.05922 0.448802,-0.05922 0.381168,0 0.390651,0.0011 0.448799,0.05922 0.05589,0.05573 0.0594,0.07494 0.0594,0.325723 v 0.266492 h 0.651263 0.651257 l 0.0083,-0.267537 c 0.0079,-0.258729 0.01043,-0.269456 0.0761,-0.325717 0.06561,-0.05622 0.08067,-0.05815 0.447698,-0.05742 0.500522,0.0011 0.512903,0.01087 0.512903,0.407809 v 0.242856 h 0.653399 0.653399 v -0.242856 c 0,-0.396956 0.01238,-0.406802 0.512901,-0.407809 0.366413,-5.3e-4 0.382179,0.0011 0.447233,0.05705 0.06486,0.05563 0.06777,0.06791 0.07651,0.322513 l 0.009,0.264684 0.284892,0.01171 c 0.326855,0.01341 0.465624,0.06243 0.572571,0.202218 0.135058,0.176545 0.127394,-0.139985 0.128542,5.308568 0.0011,5.5729 0.01271,5.16601 -0.151215,5.33802 -0.04268,0.0448 -0.121185,0.10166 -0.174422,0.12623 -0.09307,0.043 -0.254199,0.0448 -4.188437,0.0453 l -4.091639,5.3e-4 -0.05263,-0.0559 c -0.06411,-0.0681 -0.06759,-0.16165 -0.0087,-0.23412 0.03195,-0.0393 0.07811,-0.0573 0.169399,-0.066 l 0.125513,-0.0121 v -2.31317 -2.31314 h -0.822778 -0.822798 v 2.31622 2.31621 h 0.325562 c 0.349779,0 0.427499,0.0186 0.470371,0.11238 0.03976,0.0871 0.03333,0.12463 -0.03254,0.19032 l -0.0594,0.0592 -1.326051,-5.4e-4 c -1.230573,-4.5e-4 -1.333022,-0.004 -1.42285,-0.0444 z m 1.681902,-3.12772 v -2.81084 h -0.240857 c -0.419729,0 -0.436745,-0.0234 -0.436745,-0.60197 v -0.41137 h -0.267297 c -0.251536,0 -0.270805,-0.004 -0.326698,-0.0593 l -0.05941,-0.0593 v -0.55713 -0.55712 l 0.05941,-0.0593 0.0594,-0.0593 h 0.606803 0.606806 l -0.0068,-0.31969 -0.0068,-0.31968 -0.816749,-0.006 -0.816755,-0.006 v 4.25554 4.25552 l 0.05018,0.0635 0.05018,0.0635 h 0.772646 0.772644 z m 4.017211,1.49589 v -1.31494 h -0.437462 -0.437462 l -0.07074,-0.0705 -0.07074,-0.0705 v -0.93075 -0.93076 h -0.314602 -0.314597 v 2.31622 2.31621 h 0.822799 0.822804 z m 1.984399,-0.50667 v -1.82161 h -0.314601 -0.314596 v 0.43615 0.43614 l -0.07074,0.0705 -0.07074,0.0705 h -0.437462 -0.437462 v 1.31495 1.31492 h 0.822803 0.822799 z m 2.008603,1.50795 v -0.31366 h -0.243202 c -0.170665,0 -0.264496,-0.011 -0.314601,-0.0367 -0.03928,-0.0203 -0.07351,-0.0393 -0.0761,-0.0422 -0.0027,-0.003 -0.01073,-0.2117 -0.01813,-0.46383 l -0.01345,-0.45842 -0.286578,-0.0121 c -0.401108,-0.0169 -0.378926,0.0222 -0.378926,-0.66802 v -0.54205 l 0.07074,-0.0705 0.07073,-0.0705 h 0.594763 0.594762 v -2.82322 -2.8232 l -0.816749,0.006 -0.81675,0.006 -0.0062,1.81409 -0.0062,1.81408 0.447242,0.007 c 0.602949,0.0105 0.555119,-0.0445 0.564719,0.64622 0.0062,0.44481 0.0011,0.54058 -0.03089,0.60257 -0.02099,0.0406 -0.04067,0.0758 -0.04363,0.0784 -0.0031,0.003 -0.212338,0.0107 -0.465227,0.0181 l -0.459802,0.0134 -0.0062,1.81559 -0.0062,1.81557 h 0.822952 0.822958 z m 1.958449,0.25009 0.05013,-0.0636 v -4.25552 -4.25554 l -0.816748,0.006 -0.81675,0.006 -0.0062,2.81687 -0.0062,2.81686 h 0.425193 c 0.258298,0 0.444367,0.0105 0.47405,0.0261 0.110109,0.0587 0.117369,0.12918 0.117226,1.13729 -8.6e-5,0.58229 -0.0098,0.98264 -0.0253,1.03821 -0.04078,0.14636 -0.09949,0.1629 -0.578337,0.1629 h -0.412655 v 0.31364 0.31366 h 0.772645 0.772646 z m -0.947392,-1.24534 -0.0068,-0.31969 -0.64735,-0.006 -0.647355,-0.006 v 0.32612 0.32611 h 0.654106 0.654101 z m 0.0054,-1.00731 v -0.31366 h -0.992202 -0.992204 v 0.31366 0.31365 h 0.992204 0.992202 z m -4.022552,-0.99525 -0.0068,-0.31969 h -0.8107 -0.810699 l -0.0068,0.31969 -0.0068,0.31968 h 0.824206 0.824202 z m 2.008603,-1.00129 0.0068,-0.31968 h -0.750898 c -0.718637,0 -0.752982,-0.002 -0.799304,-0.0482 -0.07206,-0.0718 -0.06453,-0.20099 0.01536,-0.26364 0.05419,-0.0425 0.09776,-0.05 0.290404,-0.05 h 0.226633 v -1.82193 -1.82194 l -0.816749,0.006 -0.816754,0.006 -0.0062,1.81558 -0.0062,1.81557 h 0.214694 c 0.180551,0 0.224825,0.009 0.27845,0.05 0.08239,0.0646 0.08758,0.19139 0.01079,0.26271 -0.05087,0.0472 -0.08182,0.0492 -0.774399,0.0492 h -0.72144 v 0.32588 0.32587 l 1.821055,-0.006 1.821051,-0.006 z m -4.011862,-0.99525 v -0.31366 h -1.318903 -1.318903 v 0.31366 0.31365 h 1.318903 1.318903 z m 1.010503,-1.50191 -0.0062,-1.81559 -0.816755,-0.006 -0.816749,-0.006 v 1.32733 1.32732 h 0.436703 c 0.590105,0 0.555501,-0.0346 0.555501,0.55382 v 0.43539 h 0.326853 0.326853 z m -2.008054,0.4946 0.0068,-0.31969 h -1.162292 -1.162304 v 0.32596 0.32595 l 1.155548,-0.006 1.155553,-0.006 z m -1.011052,-0.99525 v -0.31365 h -0.980132 -0.980105 v 0.31365 0.31366 h 0.980105 0.980098 z m 1.010674,-0.50064 -0.0064,-0.8143 -0.329602,-0.006 c -0.293116,-0.006 -0.334413,-0.0119 -0.373084,-0.0546 -0.05599,-0.0616 -0.0557,-0.17797 5.31e-4,-0.24 0.04385,-0.0483 0.06554,-0.0485 4.384239,-0.0485 h 4.340158 v -0.58915 c 0,-0.32402 -0.0068,-0.606713 -0.01504,-0.628183 -0.02972,-0.0772 -0.143017,-0.10966 -0.383066,-0.10966 h -0.231179 v 0.22998 c 0,0.249133 -0.03546,0.375793 -0.117359,0.419503 -0.0288,0.0153 -0.199093,0.0261 -0.415312,0.0261 h -0.366455 l -0.07073,-0.0705 c -0.06967,-0.0694 -0.07074,-0.0746 -0.07074,-0.337763 v -0.26778 h -0.653403 -0.653405 v 0.26726 c 0,0.263203 -0.0011,0.268303 -0.07073,0.337763 l -0.07074,0.0705 h -0.375614 c -0.36206,0 -0.37806,-0.002 -0.443511,-0.0582 -0.06606,-0.0566 -0.06812,-0.0657 -0.07604,-0.338163 l -0.0082,-0.27999 -0.645261,0.006 -0.64526,0.006 -0.006,0.24127 c -0.0077,0.309023 -0.01627,0.341353 -0.102048,0.385593 -0.101489,0.0523 -0.723013,0.0523 -0.824499,0 -0.08581,-0.0442 -0.09436,-0.0765 -0.102048,-0.385593 l -0.006,-0.24127 -0.645261,-0.006 -0.645256,-0.006 -0.0082,0.27999 c -0.0079,0.272443 -0.01,0.281553 -0.07604,0.338163 -0.06545,0.056 -0.08145,0.0582 -0.443512,0.0582 h -0.375614 l -0.07074,-0.0705 c -0.06967,-0.0694 -0.07074,-0.0746 -0.07074,-0.337763 v -0.26719 H 52.04314 51.389741 v 0.26726 c 0,0.263203 -0.0011,0.268303 -0.07074,0.337763 l -0.07074,0.0705 h -0.36645 c -0.216225,0 -0.386485,-0.0107 -0.415312,-0.0261 -0.08192,-0.0437 -0.117358,-0.17038 -0.117358,-0.419513 v -0.22993 h -0.231047 c -0.240054,0 -0.353347,0.0324 -0.383066,0.10966 -0.0084,0.0214 -0.01505,0.304163 -0.01505,0.628183 v 0.58915 h 1.16023 1.16023 l 0.03769,0.0537 c 0.05194,0.074 0.04714,0.17817 -0.01073,0.2359 -0.03763,0.0375 -0.08067,0.0483 -0.193596,0.0483 h -0.145203 v 0.32572 0.32572 h 0.436703 c 0.590105,0 0.555501,-0.0346 0.555501,0.55382 v 0.4354 h 0.327018 0.327024 z m -2.341674,-2.660017 v -0.482544 h -0.157302 -0.1573 v 0.482544 0.482547 h 0.1573 0.157302 z m 2.347404,0 v -0.482544 h -0.157338 -0.157296 v 0.482544 0.482547 h 0.157296 0.157305 z m 2.3232,0 v -0.482544 h -0.145232 -0.145202 v 0.482544 0.482547 h 0.145202 0.145198 z m 2.347404,0 v -0.482544 h -0.157303 -0.157302 v 0.482544 0.482547 h 0.157302 0.1573 z m 2.347406,0 v -0.482544 h -0.157303 -0.157301 v 0.482544 0.482547 h 0.157301 0.1573 z"
       id="path2" /></g></svg>
