<?xml version="1.0" encoding="UTF-8" standalone="no"?>
<!-- Created with Inkscape (http://www.inkscape.org/) -->

<svg
   width="48"
   height="48"
   viewBox="0 0 12.7 12.7"
   version="1.1"
   id="svg1"
   xml:space="preserve"
   inkscape:version="1.3.2 (1:1.3.2+202311252150+091e20ef0f)"
   sodipodi:docname="projectmanagementico.svg"
   xmlns:inkscape="http://www.inkscape.org/namespaces/inkscape"
   xmlns:sodipodi="http://sodipodi.sourceforge.net/DTD/sodipodi-0.dtd"
   xmlns="http://www.w3.org/2000/svg"
   xmlns:svg="http://www.w3.org/2000/svg"><sodipodi:namedview
     id="namedview1"
     pagecolor="#505050"
     bordercolor="#eeeeee"
     borderopacity="1"
     inkscape:showpageshadow="0"
     inkscape:pageopacity="0"
     inkscape:pagecheckerboard="0"
     inkscape:deskcolor="#505050"
     inkscape:document-units="mm"
     inkscape:zoom="8.2243423"
     inkscape:cx="23.588512"
     inkscape:cy="32.950963"
     inkscape:window-width="1856"
     inkscape:window-height="1016"
     inkscape:window-x="0"
     inkscape:window-y="0"
     inkscape:window-maximized="1"
     inkscape:current-layer="layer1" /><defs
     id="defs1" /><g
     inkscape:label="Layer 1"
     inkscape:groupmode="layer"
     id="layer1"
     transform="translate(-49.193692,-98.211401)"><path
       style="fill:#333333;stroke:none;stroke-width:0.0945858"
       d="m 54.257075,101.55081 c 0.102608,-0.0512 0.310135,-0.15275 0.360285,-0.26001 0.10399,-0.22244 -0.06266,-0.53538 0.0302,-0.76344 0.04162,-0.10223 0.173782,-0.14418 0.240429,-0.23017 0.165623,-0.21374 0.154589,-0.547589 -0.03563,-0.743809 -0.369378,-0.38104 -1.03981,-0.05371 -0.963143,0.470859 0.0382,0.26144 0.270697,0.30234 0.352754,0.50313 0.107623,0.26334 0.01509,0.73861 0.01509,1.02344 m 0.199838,-1.78 c 0.226924,0.01176 0.202717,0.36423 -0.02458,0.34835 -0.227328,-0.0159 -0.203899,-0.360181 0.02458,-0.34835 m 2.302735,0.87908 h -1.226261 c -0.140185,4e-5 -0.367431,-5.7e-4 -0.357273,0.20019 0.0097,0.19084 0.220561,0.17518 0.357273,0.17518 h 1.226261 l 0.0151,0.52555 0.335261,0.47549 c 0.05736,-0.1367 0.02502,-0.32817 0.02502,-0.47549 v -1.00103 c 0,-0.14412 0.04171,-0.36903 -0.02951,-0.49906 -0.06921,-0.126339 -0.250491,-0.127199 -0.32016,0 -0.08079,0.14753 -0.02572,0.43379 -0.02572,0.59917 m -4.154267,1.75178 h -1.026054 c -0.155034,0 -0.350185,-0.0316 -0.50013,0.0109 -0.143681,0.0406 -0.195737,0.22568 -0.06975,0.32095 0.09052,0.0684 0.238076,0.0436 0.344644,0.0436 v 0.62564 c -0.188991,0 -0.717077,-0.0921 -0.821002,0.10278 -0.056,0.10505 0.01208,0.23079 0.120745,0.2617 0.206464,0.0587 0.485976,0.0109 0.700257,0.0109 0,0.12215 -0.03588,0.31333 0.02572,0.42273 0.08348,0.14824 0.284484,0.0984 0.333328,-0.0484 0.126981,-0.38161 0.01633,-0.97271 0.01633,-1.37533 h 0.8759 c 0,0.17921 -0.07714,0.59799 0.0436,0.73991 0.0705,0.0828 0.210195,0.0609 0.306759,0.0609 h 0.750772 l -0.05005,-0.37539 h -0.675695 c 0,-0.33099 -0.08051,-0.78017 0.0079,-1.09851 0.02731,-0.0983 0.146428,-0.13565 0.211948,-0.20546 0.110668,-0.11791 0.167766,-0.28751 0.151119,-0.44783 -0.05839,-0.5623 -0.875748,-0.69183 -1.082672,-0.15016 -0.148979,0.39 0.140964,0.49292 0.310543,0.76053 0.0548,0.0865 0.02572,0.24209 0.02572,0.3406 m 6.206384,0.37538 H 57.36018 v 0.37539 c 0.241909,0.0185 0.17518,0.29353 0.17518,0.47551 0,0.43352 -0.100455,1.00723 0.0079,1.42607 0.03721,0.1438 0.229228,0.19568 0.320931,0.0697 0.08557,-0.11751 0.0465,-0.33268 0.0465,-0.46975 v -0.45048 h 0.625645 c 0,0.1067 -0.02377,0.24838 0.02148,0.34765 0.05626,0.12341 0.232688,0.13009 0.310312,0.0241 0.07135,-0.0974 0.0436,-0.25777 0.0436,-0.3717 0.35001,0 0.757125,0.0582 1.101017,-0.005 0.158353,-0.0294 0.201908,-0.23205 0.0715,-0.32955 -0.131741,-0.0985 -0.439165,-0.0402 -0.596909,-0.0402 h -1.576619 v -0.67603 c 0.864698,0 1.76665,-0.0748 2.627587,0.002 0.14738,0.013 0.178553,0.1526 0.277754,0.24027 0.145037,0.12816 0.363483,0.16729 0.548213,0.11388 0.569805,-0.16468 0.468801,-0.97805 -0.07508,-1.08954 -0.165185,-0.0338 -0.350256,0.0273 -0.474409,0.13862 -0.07548,0.0677 -0.12355,0.18439 -0.227393,0.21195 -0.408847,0.10854 -0.976382,0.009 -1.400361,0.009 0,-0.19429 -0.06253,-0.51659 0.01509,-0.69539 0.03586,-0.0825 0.145882,-0.12137 0.207505,-0.18315 0.115044,-0.11531 0.158811,-0.26289 0.151759,-0.4228 -0.02678,-0.60709 -0.885657,-0.7117 -1.086381,-0.15015 -0.06824,0.19088 -0.01989,0.42207 0.119644,0.57095 0.06007,0.0641 0.166025,0.10179 0.201887,0.18507 0.07731,0.17955 0.01509,0.50061 0.01509,0.69547 m -6.055843,-1.44016 c 0.224549,-0.0534 0.303018,0.30287 0.0743,0.3471 -0.226053,0.0437 -0.299742,-0.29342 -0.0743,-0.3471 m 2.051724,3.34211 v 0.0251 c -1.446669,0.34361 -1.226261,2.03399 -1.226261,3.15323 h 3.853963 c 0,-1.12019 0.222068,-2.81002 -1.22626,-3.15323 0.350329,-0.20471 0.627815,-0.44344 0.790106,-0.82585 0.45119,-1.06318 -0.102043,-2.5372 -1.390725,-2.55253 -0.213064,-0.002 -0.41997,0.006 -0.625643,0.068 -0.967754,0.29034 -1.302877,1.41411 -1.028932,2.30934 0.124258,0.40606 0.426602,0.8503 0.853752,0.97599 m 4.154736,-3.34211 c 0.228359,-0.0547 0.303905,0.30252 0.07425,0.3471 -0.219143,0.0425 -0.292968,-0.2947 -0.07425,-0.3471 m 2.226906,1.45738 c 0.23078,0 0.238464,0.35272 2.8e-4,0.35272 -0.222282,0 -0.219781,-0.35272 -2.8e-4,-0.35272 m -8.083393,2.18504 h -0.625643 c 0,-0.10906 0.02966,-0.27291 -0.02951,-0.36968 -0.07232,-0.11827 -0.254619,-0.092 -0.316373,0.0208 -0.05342,0.0975 -0.02951,0.24143 -0.02951,0.34889 -0.35001,0 -0.757126,-0.0582 -1.101018,0.005 -0.156976,0.0291 -0.202783,0.22998 -0.07149,0.32606 0.136951,0.10026 0.434788,0.0436 0.596909,0.0436 h 1.576623 v 0.6757 c -0.864318,0 -1.766858,0.0757 -2.627318,-0.002 -0.142937,-0.0128 -0.181604,-0.15434 -0.278006,-0.24056 -0.145512,-0.13012 -0.361707,-0.16753 -0.548229,-0.11362 -0.547479,0.15825 -0.487948,0.96432 0.05005,1.08098 0.177877,0.0385 0.362675,-0.007 0.499434,-0.13005 0.07548,-0.0677 0.123552,-0.18438 0.227394,-0.21195 0.408847,-0.10854 0.97638,-0.009 1.40036,-0.009 0,0.19429 0.06253,0.51659 -0.01509,0.69539 -0.03586,0.0825 -0.145882,0.12137 -0.207506,0.18314 -0.115043,0.11531 -0.158808,0.26291 -0.151756,0.42281 0.02573,0.58318 0.866043,0.72028 1.076205,0.17518 0.07613,-0.19748 0.0438,-0.44049 -0.106557,-0.59598 -0.06138,-0.0634 -0.168617,-0.10098 -0.204803,-0.18507 -0.07732,-0.17954 -0.01509,-0.50062 -0.01509,-0.69547 h 1.176209 c 0,-0.25365 0.06917,-0.47761 0.09576,-0.72574 0.03327,-0.31052 0.0044,-0.6387 0.0044,-0.95098 0,-0.18198 0.05074,-0.45431 -0.01509,-0.62516 -0.06807,-0.17663 -0.290971,-0.13875 -0.343949,0.0249 -0.07897,0.24394 -0.01633,0.59481 -0.01633,0.85048 m 6.181357,1.42647 h -0.875899 c 0,-0.17805 0.08114,-0.63113 -0.06439,-0.75722 -0.148302,-0.12851 -0.639164,-0.0497 -0.836548,-0.0686 0.03846,0.38588 0.179114,0.4004 0.52554,0.4004 0,0.33099 0.08052,0.78018 -0.0079,1.09851 -0.02731,0.0983 -0.146427,0.13563 -0.211947,0.20546 -0.110667,0.11792 -0.167767,0.28752 -0.15112,0.44783 0.05848,0.56309 0.876285,0.69043 1.082673,0.15016 0.150396,-0.3937 -0.141616,-0.48942 -0.310544,-0.76025 -0.05447,-0.0873 -0.02572,-0.24175 -0.02572,-0.34089 h 1.026054 c 0.155032,0 0.350185,0.0316 0.500129,-0.0109 0.143683,-0.0406 0.195738,-0.22567 0.06975,-0.32093 -0.09051,-0.0684 -0.238076,-0.0436 -0.344645,-0.0436 v -0.6257 c 0.173302,0 0.963653,0.10289 0.831912,-0.24914 -0.08349,-0.22313 -0.640109,-0.12624 -0.831912,-0.12624 0,-0.125 0.03379,-0.31032 -0.02951,-0.42272 -0.08199,-0.14558 -0.286052,-0.10107 -0.331555,0.0484 -0.119173,0.39147 -0.01433,0.96573 -0.01433,1.37534 m -9.509351,-0.36415 c 0.220529,-0.0555 0.308939,0.27277 0.09854,0.33595 -0.219866,0.066 -0.328585,-0.2779 -0.09854,-0.33595 m 2.202168,1.45373 c 0.219026,-0.0394 0.289987,0.29762 0.07364,0.35058 -0.225529,0.0551 -0.301583,-0.30948 -0.07364,-0.35058 m 6.23112,5.7e-4 c 0.230948,-0.0112 0.255301,0.33643 0.02487,0.35298 -0.229072,0.0164 -0.257953,-0.34173 -0.02487,-0.35298 m -4.329531,0.58665 c 0,0.27418 -0.102957,0.80776 0.02951,1.04962 0.0692,0.12634 0.250491,0.1272 0.320161,0 0.08079,-0.14753 0.02572,-0.43378 0.02572,-0.59916 h 1.22626 c 0.137927,0 0.346199,0.015 0.36017,-0.17524 0.01531,-0.20856 -0.219089,-0.20012 -0.36017,-0.20014 h -1.22626 v -0.0752 h -0.375358 m 2.502574,0 c 0,0.16059 0.05666,0.45419 -0.02572,0.59537 -0.130416,0.22351 -0.360132,0.26575 -0.348564,0.58084 0.02179,0.59359 0.885005,0.73821 1.086301,0.17518 0.07199,-0.20131 0.03193,-0.43745 -0.119625,-0.593 -0.06179,-0.0634 -0.166514,-0.10098 -0.201904,-0.18602 -0.06362,-0.15289 -0.01509,-0.4078 -0.01509,-0.57237 h -0.375388 m 0.12623,0.99122 c 0.208003,-0.0776 0.336356,0.24022 0.122927,0.31993 -0.208004,0.0776 -0.336355,-0.24023 -0.122927,-0.31993 z"
       id="path1" /></g></svg>
